SplineFontDB: 3.2
FontName: Titillium-RegularItalic
FullName: Titillium Regular Italic
FamilyName: Titillium
Weight: Regular
Copyright: Copyright (c) 2009-2011 by Accademia di Belle Arti di Urbino and students of MA course of Visual design. Some rights reserved.
Version: 57.000
ItalicAngle: -13
UnderlinePosition: -100
UnderlineWidth: 30
Ascent: 750
Descent: 250
InvalidEm: 0
sfntRevision: 0x00010000
LayerCount: 2
Layer: 0 0 "Zur+APwA-ck" 1
Layer: 1 0 "Zeichen" 0
XUID: [1021 1010 -703601740 25131]
StyleMap: 0x0001
FSType: 8
OS2Version: 3
OS2_WeightWidthSlopeOnly: 0
OS2_UseTypoMetrics: 0
CreationTime: 1339467514
ModificationTime: 1577740764
PfmFamily: 81
TTFWeight: 400
TTFWidth: 5
LineGap: 200
VLineGap: 0
Panose: 0 0 5 0 0 0 0 0 0 0
OS2TypoAscent: 750
OS2TypoAOffset: 0
OS2TypoDescent: -250
OS2TypoDOffset: 0
OS2TypoLinegap: 200
OS2WinAscent: 1083
OS2WinAOffset: 0
OS2WinDescent: 283
OS2WinDOffset: 0
HheadAscent: 750
HheadAOffset: 0
HheadDescent: -250
HheadDOffset: 0
OS2SubXSize: 650
OS2SubYSize: 600
OS2SubXOff: -17
OS2SubYOff: 75
OS2SupXSize: 650
OS2SupYSize: 600
OS2SupXOff: 81
OS2SupYOff: 350
OS2StrikeYSize: 30
OS2StrikeYPos: 300
OS2CapHeight: 692
OS2XHeight: 500
OS2Vendor: 'UKWN'
OS2CodePages: 20000093.00000000
OS2UnicodeRanges: 00000007.00000001.00000000.00000000
Lookup: 1 0 0 "'locl' Localized Forms in Lateinisch lookup 0" { "'locl' Localized Forms in Lateinisch lookup 0 subtable"  } ['locl' ('DFLT' <'dflt' > 'latn' <'dflt' > ) ]
Lookup: 1 0 0 "'frac' Diagonal Fractions in Lateinisch lookup 1" { "'frac' Diagonal Fractions in Lateinisch lookup 1 subtable"  } ['frac' ('DFLT' <'dflt' > 'latn' <'dflt' > ) ]
Lookup: 6 0 0 "'frac' Diagonal Fractions in Lateinisch lookup 2" { "'frac' Diagonal Fractions in Lateinisch lookup 2 subtable"  } ['frac' ('DFLT' <'dflt' > 'latn' <'dflt' > ) ]
Lookup: 1 0 0 "'frac' Diagonal Fractions in Lateinisch lookup 3" { "'frac' Diagonal Fractions in Lateinisch lookup 3 subtable"  } ['frac' ('DFLT' <'dflt' > 'latn' <'dflt' > ) ]

StartChar: acute
Encoding: 180 180 2
Width: 546
Flags: MW
HStem: 596 152
VStem: 272 235<654 682>
LayerCount: 2
Fore
SplineSet
279 596 m 1
 272 654 l 1
 500 748 l 1
 507 682 l 1
 279 596 l 1
EndSplineSet
EndChar

StartChar: breve
Encoding: 728 728 3
Width: 439
Flags: MW
HStem: 593 62<336.5 390.5 336.5 397>
VStem: 233 69
LayerCount: 2
Fore
SplineSet
237 731 m 1
 302 731 l 1
 292 688 310 655 363 655 c 0
 418 655 448 687 461 731 c 1
 526 731 l 1
 502 648 449 593 345 593 c 0
 257 593 221 648 237 731 c 1
EndSplineSet
EndChar

StartChar: caron
Encoding: 711 711 4
Width: 791
Flags: MW
HStem: 587 151<418 545 418 503>
VStem: 418 285<738 738>
LayerCount: 2
Fore
SplineSet
545 587 m 1
 503 587 l 1
 418 738 l 1
 487 738 l 1
 538 649 l 1
 628 738 l 1
 703 738 l 1
 545 587 l 1
EndSplineSet
EndChar

StartChar: cedilla
Encoding: 184 184 5
Width: 791
Flags: MW
HStem: -211 55<374.5 401 374.5 421> -87 42<365 418>
VStem: 312 191
LayerCount: 2
Fore
SplineSet
500 -124 m 0
 487 -184 450 -211 392 -211 c 0
 350 -211 312 -204 312 -204 c 1
 325 -153 l 1
 325 -153 362 -156 387 -156 c 0
 415 -156 431 -146 438 -120 c 0
 445 -92 426 -87 404 -87 c 2
 365 -87 l 1
 386 5 l 1
 426 5 l 1
 413 -45 l 1
 418 -45 l 2
 473 -45 514 -63 500 -124 c 0
EndSplineSet
EndChar

StartChar: circumflex
Encoding: 710 710 6
Width: 791
Flags: MW
HStem: 587 151<384 579 539 597 539 666>
VStem: 384 282<587 587>
LayerCount: 2
Fore
SplineSet
384 587 m 1
 539 738 l 1
 579 738 l 1
 666 587 l 1
 597 587 l 1
 549 673 l 1
 460 587 l 1
 384 587 l 1
EndSplineSet
EndChar

StartChar: commaaccent
Encoding: 63171 63171 7
Width: 161
Flags: MW
HStem: -283 210<-45 112 -45 112>
VStem: -45 157
LayerCount: 2
Fore
SplineSet
-45 -283 m 1
 42 -73 l 1
 112 -73 l 1
 16 -283 l 1
 -45 -283 l 1
EndSplineSet
EndChar

StartChar: dieresis
Encoding: 168 168 8
Width: 680
Flags: MW
HStem: 620 93<242 325 263 303 445 485>
VStem: 242 265<620 713>
LayerCount: 2
Fore
SplineSet
242 620 m 1
 263 713 l 1
 325 713 l 1
 303 620 l 1
 242 620 l 1
425 620 m 1
 445 713 l 1
 507 713 l 1
 485 620 l 1
 425 620 l 1
EndSplineSet
EndChar

StartChar: dotaccent
Encoding: 729 729 9
Width: 224
Flags: MW
HStem: 605 89<222 307 243 286>
VStem: 222 85
LayerCount: 2
Fore
SplineSet
222 605 m 1
 243 694 l 1
 307 694 l 1
 286 605 l 1
 222 605 l 1
EndSplineSet
EndChar

StartChar: hungarumlaut
Encoding: 733 733 10
Width: 666
Flags: MW
HStem: 699 20G<492 492 675 675>
VStem: 281 394<623 719>
LayerCount: 2
Fore
SplineSet
502 582 m 1
 463 623 l 1
 632 762 l 1
 675 719 l 1
 502 582 l 1
320 582 m 1
 281 623 l 1
 449 761 l 1
 492 719 l 1
 320 582 l 1
EndSplineSet
EndChar

StartChar: grave
Encoding: 96 96 11
Width: 518
Flags: MW
HStem: 596 145
VStem: 280 221<648 682>
LayerCount: 2
Fore
SplineSet
316 741 m 1
 501 648 l 1
 468 596 l 1
 280 682 l 1
 316 741 l 1
EndSplineSet
EndChar

StartChar: macron
Encoding: 175 175 12
Width: 439
Flags: MW
HStem: 639 59<229 518 243 503>
VStem: 229 289<639 698>
LayerCount: 2
Fore
SplineSet
229 639 m 1
 243 698 l 1
 518 698 l 1
 503 639 l 1
 229 639 l 1
EndSplineSet
EndChar

StartChar: ogonek
Encoding: 731 731 13
Width: 427
Flags: MW
HStem: -204 67<192 258>
VStem: 145 82<-123.5 -113.5>
LayerCount: 2
Fore
SplineSet
299 -132 m 1
 292 -195 l 1
 292 -195 247 -204 215 -204 c 0
 169 -204 145 -181 145 -141 c 0
 145 -86 222 -14 256 12 c 1
 319 4 l 1
 291 -18 227 -81 227 -117 c 0
 227 -130 235 -137 251 -137 c 0
 265 -137 299 -132 299 -132 c 1
EndSplineSet
EndChar

StartChar: ring
Encoding: 730 730 14
Width: 791
Flags: MW
HStem: 544 49<379.5 406.5 379.5 410> 689 51<403 430>
VStem: 310 48 451 46
LayerCount: 2
Fore
SplineSet
313 643 m 0
 324 695 368 740 429 740 c 0
 480 740 503 706 497 655 c 0
 491 589 440 544 380 544 c 0
 320 544 301 587 313 643 c 0
358 643 m 0
 352 619 366 593 393 593 c 0
 420 593 444 615 451 642 c 0
 457 666 443 689 417 689 c 0
 389 689 365 669 358 643 c 0
EndSplineSet
EndChar

StartChar: tilde
Encoding: 732 732 15
Width: 427
Flags: MW
HStem: 614 66<431 448.5> 662 21G<290.5 316.5> 665 21G<524 524> 701 20G<519 519> 708 20G<299.5 339.5>
VStem: 219 305<665 675>
LayerCount: 2
Fore
SplineSet
519 721 m 1x94
 524 665 l 1
 524 665 467 614 430 614 c 0x2c
 390 614 331 662 302 662 c 0
 279 662 222 619 222 619 c 1x4c
 219 675 l 1
 219 675 281 728 318 728 c 0x8c
 361 728 418 680 444 680 c 0
 464 680 519 721 519 721 c 1x94
EndSplineSet
EndChar

StartChar: A
Encoding: 65 65 16
Width: 554
Flags: MW
HStem: 0 21G<24 24 24 102 456 456 456 532> 177 67<223 450 191 451> 624 68<414 414 414 444>
VStem: 447.5 77.5
LayerCount: 2
Fore
SplineSet
24 0 m 1
 369 692 l 1
 518 692 l 1
 532 0 l 1
 456 0 l 1
 450 177 l 1
 191 177 l 1
 102 0 l 1
 24 0 l 1
414 624 m 1
 223 244 l 1
 451 244 l 1
 444 624 l 1
 414 624 l 1
EndSplineSet
Position2: "'cpsp' Capital Spacing in Lateinisch lookup 0 subtable" dx=5 dy=0 dh=10 dv=0
EndChar

StartChar: Aacute
Encoding: 193 193 17
Width: 554
Flags: MW
HStem: 0 21G<24 24 24 102 456 456 456 532> 177 67<223 450 191 451> 624 68<414 414 414 444>
VStem: 447.5 77.5
LayerCount: 2
Fore
SplineSet
388 785 m 1
 379 842 l 1
 607 936 l 1
 616 871 l 1
 388 785 l 1
24 0 m 1
 369 692 l 1
 518 692 l 1
 532 0 l 1
 456 0 l 1
 450 177 l 1
 191 177 l 1
 102 0 l 1
 24 0 l 1
414 624 m 1
 223 244 l 1
 451 244 l 1
 444 624 l 1
 414 624 l 1
EndSplineSet
Position2: "'cpsp' Capital Spacing in Lateinisch lookup 0 subtable" dx=5 dy=0 dh=10 dv=0
EndChar

StartChar: Abreve
Encoding: 258 258 18
Width: 554
Flags: MW
HStem: 0 21G<24 24 24 102 456 456 456 532> 177 67<223 450 191 451> 624 68<414 414 414 444> 795 60<450.5 492.5 450.5 504>
VStem: 344 69 447.5 77.5
LayerCount: 2
Fore
SplineSet
347 922 m 1
 413 922 l 1
 405 870 429 855 472 855 c 0
 513 855 551 881 563 922 c 1
 629 922 l 1
 606 842 549 795 459 795 c 0
 375 795 333 837 347 922 c 1
24 0 m 1
 369 692 l 1
 518 692 l 1
 532 0 l 1
 456 0 l 1
 450 177 l 1
 191 177 l 1
 102 0 l 1
 24 0 l 1
414 624 m 1
 223 244 l 1
 451 244 l 1
 444 624 l 1
 414 624 l 1
EndSplineSet
Position2: "'cpsp' Capital Spacing in Lateinisch lookup 0 subtable" dx=5 dy=0 dh=10 dv=0
EndChar

StartChar: Acircumflex
Encoding: 194 194 19
Width: 554
Flags: MW
HStem: 0 21G<24 24 24 102 456 456 456 532> 177 67<223 450 191 451> 624 68<414 414 414 444> 793 138<303 508 467 535 467 604>
VStem: 447.5 77.5
LayerCount: 2
Fore
SplineSet
303 793 m 1
 467 931 l 1
 508 931 l 1
 604 793 l 1
 535 793 l 1
 481 874 l 1
 385 793 l 1
 303 793 l 1
24 0 m 1
 369 692 l 1
 518 692 l 1
 532 0 l 1
 456 0 l 1
 450 177 l 1
 191 177 l 1
 102 0 l 1
 24 0 l 1
414 624 m 1
 223 244 l 1
 451 244 l 1
 444 624 l 1
 414 624 l 1
EndSplineSet
Position2: "'cpsp' Capital Spacing in Lateinisch lookup 0 subtable" dx=5 dy=0 dh=10 dv=0
EndChar

StartChar: Agrave
Encoding: 192 192 20
Width: 554
Flags: MW
HStem: 0 21G<24 24 24 102 456 456 456 532> 177 67<223 450 191 451> 624 68<414 414 414 444>
VStem: 447.5 77.5
LayerCount: 2
Fore
SplineSet
363 930 m 1
 548 836 l 1
 514 780 l 1
 326 866 l 1
 363 930 l 1
24 0 m 1
 369 692 l 1
 518 692 l 1
 532 0 l 1
 456 0 l 1
 450 177 l 1
 191 177 l 1
 102 0 l 1
 24 0 l 1
414 624 m 1
 223 244 l 1
 451 244 l 1
 444 624 l 1
 414 624 l 1
EndSplineSet
Position2: "'cpsp' Capital Spacing in Lateinisch lookup 0 subtable" dx=5 dy=0 dh=10 dv=0
EndChar

StartChar: Adieresis
Encoding: 196 196 21
Width: 554
Flags: MW
HStem: 0 21G<24 24 24 102 456 456 456 532> 177 67<223 450 191 451> 624 68<414 414 414 444> 814 93<341 424 362 401 550 589>
VStem: 447.5 77.5
LayerCount: 2
Fore
SplineSet
341 814 m 1
 362 907 l 1
 424 907 l 1
 401 814 l 1
 341 814 l 1
528 814 m 1
 550 907 l 1
 612 907 l 1
 589 814 l 1
 528 814 l 1
24 0 m 1
 369 692 l 1
 518 692 l 1
 532 0 l 1
 456 0 l 1
 450 177 l 1
 191 177 l 1
 102 0 l 1
 24 0 l 1
414 624 m 1
 223 244 l 1
 451 244 l 1
 444 624 l 1
 414 624 l 1
EndSplineSet
Position2: "'cpsp' Capital Spacing in Lateinisch lookup 0 subtable" dx=5 dy=0 dh=10 dv=0
EndChar

StartChar: Amacron
Encoding: 256 256 22
Width: 554
Flags: MW
HStem: 0 21G<24 24 24 102 456 456 456 532> 177 67<223 450 191 451> 624 68<414 414 414 444> 829 60<315 622 328 608>
VStem: 447.5 77.5
LayerCount: 2
Fore
SplineSet
315 829 m 1
 328 889 l 1
 622 889 l 1
 608 829 l 1
 315 829 l 1
24 0 m 1
 369 692 l 1
 518 692 l 1
 532 0 l 1
 456 0 l 1
 450 177 l 1
 191 177 l 1
 102 0 l 1
 24 0 l 1
414 624 m 1
 223 244 l 1
 451 244 l 1
 444 624 l 1
 414 624 l 1
EndSplineSet
Position2: "'cpsp' Capital Spacing in Lateinisch lookup 0 subtable" dx=5 dy=0 dh=10 dv=0
EndChar

StartChar: Aogonek
Encoding: 260 260 23
Width: 554
Flags: MW
HStem: -204 67<405 471> 0 21G<24 24 24 102 527 527 527 532> 1 21G<456 456> 177 67<223 450 191 451> 624 68<414 414 414 444>
VStem: 358 82<-123.5 -116.5> 447.5 84.5
LayerCount: 2
Fore
SplineSet
24 0 m 1x5a
 369 692 l 1
 518 692 l 1x3a
 532 4 l 1
 532 0 l 1
 527 0 l 1
 497 -25 440 -83 440 -117 c 0
 440 -130 448 -137 464 -137 c 0
 478 -137 512 -132 512 -132 c 1
 505 -195 l 1
 505 -195 460 -204 428 -204 c 0
 382 -204 358 -181 358 -141 c 0xdc
 358 -92 418 -30 456 1 c 1x3a
 450 177 l 1
 191 177 l 1
 102 0 l 1
 24 0 l 1x5a
414 624 m 1
 223 244 l 1
 451 244 l 1
 444 624 l 1
 414 624 l 1
EndSplineSet
Position2: "'cpsp' Capital Spacing in Lateinisch lookup 0 subtable" dx=5 dy=0 dh=10 dv=0
EndChar

StartChar: Aring
Encoding: 197 197 24
Width: 554
Flags: MW
HStem: 0 21G<24 24 24 102 456 456 456 532> 177 67<223 450 191 451> 624 68<414 447 437 444> 669 21G<358 358> 670 21G<518 518> 788 52<449 481>
VStem: 346 54 447.5 77.5
LayerCount: 2
Fore
SplineSet
24 0 m 1xcf
 358 669 l 1xd7
 345 686 342 710 350 740 c 0
 368 808 417 840 479 840 c 0
 538 840 576 810 559 740 c 0
 551 711 538 687 518 670 c 1
 532 0 l 1
 456 0 l 1
 450 177 l 1
 191 177 l 1
 102 0 l 1
 24 0 l 1xcf
414 624 m 1xe7
 223 244 l 1
 451 244 l 1
 444 624 l 1
 414 624 l 1xe7
400 740 m 0
 394 714 406 694 437 692 c 2
 447 692 l 2
 479 693 501 711 508 740 c 0
 515 772 496 788 466 788 c 0
 432 788 408 771 400 740 c 0
EndSplineSet
Position2: "'cpsp' Capital Spacing in Lateinisch lookup 0 subtable" dx=5 dy=0 dh=10 dv=0
EndChar

StartChar: Atilde
Encoding: 195 195 25
Width: 554
Flags: MW
HStem: 0 21G<24 24 24 102 456 456 456 532> 177 67<223 450 191 451> 624 68<414 414 414 444> 804 66<530.5 548.5> 860 65<386 405>
VStem: 447.5 77.5
LayerCount: 2
Fore
SplineSet
627 916 m 1xf4
 630 863 l 1
 630 863 567 804 530 804 c 0xf4
 486 804 421 860 389 860 c 0
 367 860 302 811 302 811 c 1
 300 865 l 1
 300 865 367 925 405 925 c 0xec
 454 925 516 870 545 870 c 0
 565 870 627 916 627 916 c 1xf4
24 0 m 1
 369 692 l 1
 518 692 l 1
 532 0 l 1
 456 0 l 1
 450 177 l 1
 191 177 l 1
 102 0 l 1
 24 0 l 1
414 624 m 1
 223 244 l 1
 451 244 l 1
 444 624 l 1
 414 624 l 1
EndSplineSet
Position2: "'cpsp' Capital Spacing in Lateinisch lookup 0 subtable" dx=5 dy=0 dh=10 dv=0
EndChar

StartChar: AE
Encoding: 198 198 26
Width: 780
Flags: MW
HStem: 0 72<437 737> 177 70<221 389 188 406> 317 69<511 756 495 771> 625 71
VStem: 25 875<0 696>
LayerCount: 2
Fore
SplineSet
348 0 m 1
 389 177 l 1
 188 177 l 1
 98 0 l 1
 25 0 l 1
 370 696 l 1
 900 696 l 1
 885 624 l 1
 568 626 l 1
 511 386 l 1
 771 386 l 1
 756 317 l 1
 495 317 l 1
 437 72 l 1
 752 72 l 1
 737 0 l 1
 348 0 l 1
408 624 m 1
 221 247 l 1
 406 247 l 1
 496 624 l 1
 408 624 l 1
EndSplineSet
Position2: "'cpsp' Capital Spacing in Lateinisch lookup 0 subtable" dx=5 dy=0 dh=10 dv=0
EndChar

StartChar: AEacute
Encoding: 508 508 27
Width: 780
Flags: MW
HStem: 0 72<437 737> 177 70<221 389 188 406> 317 69<511 756 495 771> 625 71
VStem: 25 875<0 696>
LayerCount: 2
Fore
SplineSet
348 0 m 1
 389 177 l 1
 188 177 l 1
 98 0 l 1
 25 0 l 1
 370 696 l 1
 900 696 l 1
 885 624 l 1
 568 626 l 1
 511 386 l 1
 771 386 l 1
 756 317 l 1
 495 317 l 1
 437 72 l 1
 752 72 l 1
 737 0 l 1
 348 0 l 1
408 624 m 1
 221 247 l 1
 406 247 l 1
 496 624 l 1
 408 624 l 1
547 785 m 1
 538 842 l 1
 766 936 l 1
 775 871 l 1
 547 785 l 1
EndSplineSet
Position2: "'cpsp' Capital Spacing in Lateinisch lookup 0 subtable" dx=5 dy=0 dh=10 dv=0
EndChar

StartChar: B
Encoding: 66 66 28
Width: 577
Flags: MW
HStem: 0 67<170 316> 320 66<243 386 228 397> 625 67<298 447 298 298>
VStem: 501 80<185.5 269.5> 548 78<504.5 575>
LayerCount: 2
Fore
SplineSet
237 692 m 1xf0
 460 692 l 2
 568 692 626 654 626 556 c 0xe8
 626 453 568 389 497 358 c 1
 553 336 581 301 581 239 c 0
 581 97 489 0 316 0 c 2
 78 0 l 1
 237 692 l 1xf0
386 320 m 2
 228 320 l 1
 170 67 l 1
 332 67 l 2
 439 67 501 134 501 237 c 0xf0
 501 302 452 320 386 320 c 2
447 625 m 2
 298 625 l 1
 243 386 l 1
 397 386 l 2
 487 386 548 456 548 545 c 0xe8
 548 605 517 625 447 625 c 2
EndSplineSet
Position2: "'cpsp' Capital Spacing in Lateinisch lookup 0 subtable" dx=5 dy=0 dh=10 dv=0
EndChar

StartChar: C
Encoding: 67 67 29
Width: 504
Flags: MW
HStem: -10 68<272 344.5> 634 68<370 495>
VStem: 112 80<147.5 289.5 147.5 294>
LayerCount: 2
Fore
SplineSet
478 75 m 1
 473 12 l 1
 473 12 384 -10 305 -10 c 0
 175 -10 112 59 112 188 c 0
 112 400 215 702 461 702 c 0
 540 702 627 679 627 679 c 1
 610 619 l 1
 610 619 533 634 457 634 c 0
 283 634 192 387 192 192 c 0
 192 103 229 58 315 58 c 0
 395 58 478 75 478 75 c 1
EndSplineSet
Position2: "'cpsp' Capital Spacing in Lateinisch lookup 0 subtable" dx=5 dy=0 dh=10 dv=0
EndChar

StartChar: Cacute
Encoding: 262 262 30
Width: 504
Flags: MW
HStem: -10 68<272 344.5> 634 68<370 495>
VStem: 112 80<147.5 289.5 147.5 294>
LayerCount: 2
Fore
SplineSet
478 75 m 1
 473 12 l 1
 473 12 384 -10 305 -10 c 0
 175 -10 112 59 112 188 c 0
 112 400 215 702 461 702 c 0
 540 702 627 679 627 679 c 1
 610 619 l 1
 610 619 533 634 457 634 c 0
 283 634 192 387 192 192 c 0
 192 103 229 58 315 58 c 0
 395 58 478 75 478 75 c 1
411 785 m 1
 402 842 l 1
 630 936 l 1
 639 871 l 1
 411 785 l 1
EndSplineSet
Position2: "'cpsp' Capital Spacing in Lateinisch lookup 0 subtable" dx=5 dy=0 dh=10 dv=0
EndChar

StartChar: Ccaron
Encoding: 268 268 31
Width: 504
Flags: MW
HStem: -10 68<272 344.5> 634 68<370 495> 792 137<364 509 364 462>
VStem: 112 80<147.5 289.5 147.5 294>
LayerCount: 2
Fore
SplineSet
478 75 m 1
 473 12 l 1
 473 12 384 -10 305 -10 c 0
 175 -10 112 59 112 188 c 0
 112 400 215 702 461 702 c 0
 540 702 627 679 627 679 c 1
 610 619 l 1
 610 619 533 634 457 634 c 0
 283 634 192 387 192 192 c 0
 192 103 229 58 315 58 c 0
 395 58 478 75 478 75 c 1
666 929 m 1
 509 792 l 1
 462 792 l 1
 364 929 l 1
 438 929 l 1
 496 847 l 1
 589 929 l 1
 666 929 l 1
EndSplineSet
Position2: "'cpsp' Capital Spacing in Lateinisch lookup 0 subtable" dx=5 dy=0 dh=10 dv=0
EndChar

StartChar: Ccedilla
Encoding: 199 199 32
Width: 504
Flags: MW
HStem: -211 55<252.5 279 252.5 299> -87 42<243 296> -10 68<300 305 300 300> -7 21G<261 261> 634 68<370 495>
VStem: 112 80<147.5 289.5 147.5 294>
LayerCount: 2
Fore
SplineSet
478 75 m 1xec
 473 12 l 1
 473 12 384 -10 305 -10 c 2
 300 -10 l 1xec
 291 -45 l 1
 296 -45 l 2
 351 -45 392 -63 378 -124 c 0
 365 -184 328 -211 270 -211 c 0
 228 -211 190 -204 190 -204 c 1
 203 -153 l 1
 203 -153 240 -156 265 -156 c 0
 293 -156 309 -146 316 -120 c 0
 323 -92 304 -87 282 -87 c 2
 243 -87 l 1
 261 -7 l 1xdc
 161 7 112 74 112 188 c 0
 112 400 215 702 461 702 c 0
 540 702 627 679 627 679 c 1
 610 619 l 1
 610 619 533 634 457 634 c 0
 283 634 192 387 192 192 c 0
 192 103 229 58 315 58 c 0
 395 58 478 75 478 75 c 1xec
EndSplineSet
Position2: "'cpsp' Capital Spacing in Lateinisch lookup 0 subtable" dx=5 dy=0 dh=10 dv=0
EndChar

StartChar: Ccircumflex
Encoding: 264 264 33
Width: 504
Flags: MW
HStem: -10 68<272 344.5> 634 68<370 495> 793 138<335 540 499 567 499 636>
VStem: 112 80<147.5 289.5 147.5 294>
LayerCount: 2
Fore
SplineSet
478 75 m 1
 473 12 l 1
 473 12 384 -10 305 -10 c 0
 175 -10 112 59 112 188 c 0
 112 400 215 702 461 702 c 0
 540 702 627 679 627 679 c 1
 610 619 l 1
 610 619 533 634 457 634 c 0
 283 634 192 387 192 192 c 0
 192 103 229 58 315 58 c 0
 395 58 478 75 478 75 c 1
335 793 m 1
 499 931 l 1
 540 931 l 1
 636 793 l 1
 567 793 l 1
 513 874 l 1
 417 793 l 1
 335 793 l 1
EndSplineSet
Position2: "'cpsp' Capital Spacing in Lateinisch lookup 0 subtable" dx=5 dy=0 dh=10 dv=0
EndChar

StartChar: Cdotaccent
Encoding: 266 266 34
Width: 504
Flags: MW
HStem: -10 68<272 344.5> 634 68<370 495> 793 90<450 534 470 513>
VStem: 112 80<147.5 289.5 147.5 294>
LayerCount: 2
Fore
SplineSet
478 75 m 1
 473 12 l 1
 473 12 384 -10 305 -10 c 0
 175 -10 112 59 112 188 c 0
 112 400 215 702 461 702 c 0
 540 702 627 679 627 679 c 1
 610 619 l 1
 610 619 533 634 457 634 c 0
 283 634 192 387 192 192 c 0
 192 103 229 58 315 58 c 0
 395 58 478 75 478 75 c 1
450 793 m 1
 470 883 l 1
 534 883 l 1
 513 793 l 1
 450 793 l 1
EndSplineSet
Position2: "'cpsp' Capital Spacing in Lateinisch lookup 0 subtable" dx=5 dy=0 dh=10 dv=0
EndChar

StartChar: D
Encoding: 68 68 35
Width: 607
Flags: MW
HStem: 0 68<171 317> 624 68<298 445 298 298>
VStem: 572 80<405 535>
LayerCount: 2
Fore
SplineSet
317 0 m 2
 78 0 l 1
 238 692 l 1
 460 692 l 2
 582 692 652 634 652 486 c 0
 652 275 548 0 317 0 c 2
572 486 m 0
 572 584 534 624 445 624 c 2
 298 624 l 1
 171 68 l 1
 328 68 l 2
 493 68 572 324 572 486 c 0
EndSplineSet
Position2: "'cpsp' Capital Spacing in Lateinisch lookup 0 subtable" dx=5 dy=0 dh=10 dv=0
EndChar

StartChar: Dcaron
Encoding: 270 270 36
Width: 607
Flags: MW
HStem: 692 237<325 399 325 460 238 399> 792 137<325 470 325 423>
VStem: 78 574<0 560>
LayerCount: 2
Fore
SplineSet
78 0 m 1xa0
 317 0 l 2
 548 0 652 275 652 486 c 0
 652 634 582 692 460 692 c 2
 238 692 l 1
 78 0 l 1xa0
572 486 m 0
 572 324 493 68 328 68 c 2
 171 68 l 1
 298 624 l 1
 445 624 l 2
 534 624 572 584 572 486 c 0
627 929 m 1
 470 792 l 1
 423 792 l 1x60
 325 929 l 1
 399 929 l 1
 457 847 l 1
 550 929 l 1
 627 929 l 1
EndSplineSet
Position2: "'cpsp' Capital Spacing in Lateinisch lookup 0 subtable" dx=5 dy=0 dh=10 dv=0
EndChar

StartChar: Dcroat
Encoding: 272 272 37
Width: 611
Flags: MW
HStem: 0 68<175 321> 309 77<102 153 86 171 102 230 247 371> 624 68<302 449 302 302>
VStem: 576 80<405 535>
LayerCount: 2
Fore
SplineSet
321 0 m 2
 82 0 l 1
 153 309 l 1
 86 309 l 1
 102 386 l 1
 171 386 l 1
 242 692 l 1
 464 692 l 2
 586 692 656 634 656 486 c 0
 656 275 552 0 321 0 c 2
576 486 m 0
 576 584 538 624 449 624 c 2
 302 624 l 1
 247 386 l 1
 389 386 l 1
 371 309 l 1
 230 309 l 1
 175 68 l 1
 332 68 l 2
 497 68 576 324 576 486 c 0
EndSplineSet
Position2: "'cpsp' Capital Spacing in Lateinisch lookup 0 subtable" dx=5 dy=0 dh=10 dv=0
EndChar

StartChar: E
Encoding: 69 69 38
Width: 505
Flags: MW
HStem: 0 68<170 464> 318 68<243 481 228 497> 624 68<298 607 298 298>
VStem: 78 545
LayerCount: 2
Fore
SplineSet
78 0 m 1
 237 692 l 1
 623 692 l 1
 607 624 l 1
 298 624 l 1
 243 386 l 1
 497 386 l 1
 481 318 l 1
 228 318 l 1
 170 68 l 1
 479 68 l 1
 464 0 l 1
 78 0 l 1
EndSplineSet
Position2: "'cpsp' Capital Spacing in Lateinisch lookup 0 subtable" dx=5 dy=0 dh=10 dv=0
EndChar

StartChar: Eacute
Encoding: 201 201 39
Width: 505
Flags: MW
HStem: 0 68<170 464> 318 68<243 481 228 497> 624 68<298 607 298 298>
VStem: 78 545
LayerCount: 2
Fore
SplineSet
377 785 m 1
 368 842 l 1
 596 936 l 1
 605 871 l 1
 377 785 l 1
78 0 m 1
 237 692 l 1
 623 692 l 1
 607 624 l 1
 298 624 l 1
 243 386 l 1
 497 386 l 1
 481 318 l 1
 228 318 l 1
 170 68 l 1
 479 68 l 1
 464 0 l 1
 78 0 l 1
EndSplineSet
Position2: "'cpsp' Capital Spacing in Lateinisch lookup 0 subtable" dx=5 dy=0 dh=10 dv=0
EndChar

StartChar: Ebreve
Encoding: 276 276 40
Width: 505
Flags: MW
HStem: 0 68<170 464> 318 68<243 481 228 497> 624 68<298 607 298 298> 796 60<435.5 477.5 435.5 489>
VStem: 329 69
LayerCount: 2
Fore
SplineSet
332 923 m 1
 398 923 l 1
 390 871 414 856 457 856 c 0
 498 856 536 882 548 923 c 1
 614 923 l 1
 591 843 534 796 444 796 c 0
 360 796 318 838 332 923 c 1
78 0 m 1
 237 692 l 1
 623 692 l 1
 607 624 l 1
 298 624 l 1
 243 386 l 1
 497 386 l 1
 481 318 l 1
 228 318 l 1
 170 68 l 1
 479 68 l 1
 464 0 l 1
 78 0 l 1
EndSplineSet
Position2: "'cpsp' Capital Spacing in Lateinisch lookup 0 subtable" dx=5 dy=0 dh=10 dv=0
EndChar

StartChar: Ecaron
Encoding: 282 282 41
Width: 505
Flags: MW
HStem: 0 68<170 464> 318 68<243 481 228 497> 624 68<298 607 298 298> 799 137<320 465 320 418>
VStem: 78 545
LayerCount: 2
Fore
SplineSet
622 936 m 1
 465 799 l 1
 418 799 l 1
 320 936 l 1
 394 936 l 1
 452 854 l 1
 545 936 l 1
 622 936 l 1
78 0 m 1
 237 692 l 1
 623 692 l 1
 607 624 l 1
 298 624 l 1
 243 386 l 1
 497 386 l 1
 481 318 l 1
 228 318 l 1
 170 68 l 1
 479 68 l 1
 464 0 l 1
 78 0 l 1
EndSplineSet
Position2: "'cpsp' Capital Spacing in Lateinisch lookup 0 subtable" dx=5 dy=0 dh=10 dv=0
EndChar

StartChar: Ecircumflex
Encoding: 202 202 42
Width: 505
Flags: MW
HStem: 0 68<170 464> 318 68<243 481 228 497> 624 68<298 607 298 298> 791 138<342 547 506 574 506 643>
VStem: 78 565
LayerCount: 2
Fore
SplineSet
342 791 m 1
 506 929 l 1
 547 929 l 1
 643 791 l 1
 574 791 l 1
 520 872 l 1
 424 791 l 1
 342 791 l 1
78 0 m 1
 237 692 l 1
 623 692 l 1
 607 624 l 1
 298 624 l 1
 243 386 l 1
 497 386 l 1
 481 318 l 1
 228 318 l 1
 170 68 l 1
 479 68 l 1
 464 0 l 1
 78 0 l 1
EndSplineSet
Position2: "'cpsp' Capital Spacing in Lateinisch lookup 0 subtable" dx=5 dy=0 dh=10 dv=0
EndChar

StartChar: Edieresis
Encoding: 203 203 43
Width: 505
Flags: MW
HStem: 0 68<170 464> 318 68<243 481 228 497> 624 68<298 607 298 298> 814 93<332 415 353 392 541 580>
VStem: 78 545
LayerCount: 2
Fore
SplineSet
332 814 m 1
 353 907 l 1
 415 907 l 1
 392 814 l 1
 332 814 l 1
519 814 m 1
 541 907 l 1
 603 907 l 1
 580 814 l 1
 519 814 l 1
78 0 m 1
 237 692 l 1
 623 692 l 1
 607 624 l 1
 298 624 l 1
 243 386 l 1
 497 386 l 1
 481 318 l 1
 228 318 l 1
 170 68 l 1
 479 68 l 1
 464 0 l 1
 78 0 l 1
EndSplineSet
Position2: "'cpsp' Capital Spacing in Lateinisch lookup 0 subtable" dx=5 dy=0 dh=10 dv=0
EndChar

StartChar: Edotaccent
Encoding: 278 278 44
Width: 505
Flags: MW
HStem: 0 68<170 464> 318 68<243 481 228 497> 624 68<298 607 298 298> 830 90<418 502 438 481>
VStem: 78 545
LayerCount: 2
Fore
SplineSet
418 830 m 1
 438 920 l 1
 502 920 l 1
 481 830 l 1
 418 830 l 1
78 0 m 1
 237 692 l 1
 623 692 l 1
 607 624 l 1
 298 624 l 1
 243 386 l 1
 497 386 l 1
 481 318 l 1
 228 318 l 1
 170 68 l 1
 479 68 l 1
 464 0 l 1
 78 0 l 1
EndSplineSet
Position2: "'cpsp' Capital Spacing in Lateinisch lookup 0 subtable" dx=5 dy=0 dh=10 dv=0
EndChar

StartChar: Egrave
Encoding: 200 200 45
Width: 505
Flags: MW
HStem: 0 68<170 464> 318 68<243 481 228 497> 624 68<298 607 298 298>
VStem: 78 545
LayerCount: 2
Fore
SplineSet
369 930 m 1
 554 836 l 1
 520 780 l 1
 332 866 l 1
 369 930 l 1
78 0 m 1
 237 692 l 1
 623 692 l 1
 607 624 l 1
 298 624 l 1
 243 386 l 1
 497 386 l 1
 481 318 l 1
 228 318 l 1
 170 68 l 1
 479 68 l 1
 464 0 l 1
 78 0 l 1
EndSplineSet
Position2: "'cpsp' Capital Spacing in Lateinisch lookup 0 subtable" dx=5 dy=0 dh=10 dv=0
EndChar

StartChar: Emacron
Encoding: 274 274 46
Width: 505
Flags: MW
HStem: 0 68<170 464> 318 68<243 481 228 497> 624 68<298 607 298 298> 823 60<305 612 318 598>
VStem: 78 545
LayerCount: 2
Fore
SplineSet
305 823 m 1
 318 883 l 1
 612 883 l 1
 598 823 l 1
 305 823 l 1
78 0 m 1
 237 692 l 1
 623 692 l 1
 607 624 l 1
 298 624 l 1
 243 386 l 1
 497 386 l 1
 481 318 l 1
 228 318 l 1
 170 68 l 1
 479 68 l 1
 464 0 l 1
 78 0 l 1
EndSplineSet
Position2: "'cpsp' Capital Spacing in Lateinisch lookup 0 subtable" dx=5 dy=0 dh=10 dv=0
EndChar

StartChar: Eogonek
Encoding: 280 280 47
Width: 505
Flags: MW
HStem: -204 67<321 387> 0 68<170 370 443 443 443 464> 318 68<243 481 228 497> 624 68<298 607 298 298>
VStem: 274 82<-123.5 -117>
LayerCount: 2
Fore
SplineSet
78 0 m 1
 237 692 l 1
 623 692 l 1
 607 624 l 1
 298 624 l 1
 243 386 l 1
 497 386 l 1
 481 318 l 1
 228 318 l 1
 170 68 l 1
 479 68 l 1
 464 0 l 1
 443 0 l 1
 413 -25 356 -83 356 -117 c 0
 356 -130 364 -137 380 -137 c 0
 394 -137 428 -132 428 -132 c 1
 421 -195 l 1
 421 -195 376 -204 344 -204 c 0
 298 -204 274 -181 274 -141 c 0
 274 -93 332 -32 370 0 c 1
 78 0 l 1
EndSplineSet
Position2: "'cpsp' Capital Spacing in Lateinisch lookup 0 subtable" dx=5 dy=0 dh=10 dv=0
EndChar

StartChar: F
Encoding: 70 70 48
Width: 482
Flags: MW
HStem: 0 21G<78 78 78 154> 284 67<236 476 220 492> 624 68<298 599 298 298>
VStem: 78 537
LayerCount: 2
Fore
SplineSet
78 0 m 1
 238 692 l 1
 615 692 l 1
 599 624 l 1
 298 624 l 1
 236 351 l 1
 492 351 l 1
 476 284 l 1
 220 284 l 1
 154 0 l 1
 78 0 l 1
EndSplineSet
Position2: "'cpsp' Capital Spacing in Lateinisch lookup 0 subtable" dx=5 dy=0 dh=10 dv=0
EndChar

StartChar: G
Encoding: 71 71 49
Width: 572
Flags: MW
HStem: -10 68<286.5 358 286.5 374.5> 293 66<398 595 413 503> 634 68<366 504> 671 21G<668 668>
VStem: 113 80<140.5 279 140.5 308.5>
LayerCount: 2
Fore
SplineSet
398 293 m 1xd8
 413 359 l 1
 595 359 l 1
 515 17 l 1
 515 17 427 -10 322 -10 c 0
 187 -10 113 53 113 186 c 0
 113 431 223 702 469 702 c 0xe8
 570 702 668 671 668 671 c 1xd8
 649 613 l 1
 649 613 549 634 459 634 c 0xe8
 273 634 193 373 193 185 c 0
 193 96 243 58 330 58 c 0
 386 58 451 73 451 73 c 1
 503 293 l 1
 398 293 l 1xd8
EndSplineSet
Position2: "'cpsp' Capital Spacing in Lateinisch lookup 0 subtable" dx=5 dy=0 dh=10 dv=0
EndChar

StartChar: Gbreve
Encoding: 286 286 50
Width: 572
Flags: MW
HStem: -10 68<286.5 358 286.5 374.5> 293 66<398 595 413 503> 634 68<366 504> 671 21G<668 668> 778 70<487.5 534 487.5 537>
VStem: 113 80<140.5 279 140.5 308.5> 372 74<887 892>
LayerCount: 2
Fore
SplineSet
375 923 m 1xde
 447 923 l 1
 446 916 446 909 446 903 c 0
 446 871 466 848 509 848 c 0
 559 848 594 879 606 923 c 1
 678 923 l 1
 654 840 586 778 488 778 c 0
 411 778 374 826 372 886 c 0
 372 898 373 910 375 923 c 1xde
398 293 m 1
 413 359 l 1
 595 359 l 1
 515 17 l 1
 515 17 427 -10 322 -10 c 0
 187 -10 113 53 113 186 c 0
 113 431 223 702 469 702 c 0xee
 570 702 668 671 668 671 c 1xde
 649 613 l 1
 649 613 549 634 459 634 c 0xee
 273 634 193 373 193 185 c 0
 193 96 243 58 330 58 c 0
 386 58 451 73 451 73 c 1
 503 293 l 1
 398 293 l 1
EndSplineSet
Position2: "'cpsp' Capital Spacing in Lateinisch lookup 0 subtable" dx=5 dy=0 dh=10 dv=0
EndChar

StartChar: Gcircumflex
Encoding: 284 284 51
Width: 572
Flags: MW
HStem: -10 68<286.5 358 286.5 374.5> 293 66<398 595 413 503> 634 68<366 504> 671 21G<668 668> 779 151<339 547 494 558 494 634>
VStem: 113 80<140.5 279 140.5 308.5>
LayerCount: 2
Fore
SplineSet
339 779 m 1xdc
 494 930 l 1
 547 930 l 1
 634 779 l 1
 558 779 l 1
 510 865 l 1
 421 779 l 1
 339 779 l 1xdc
398 293 m 1
 413 359 l 1
 595 359 l 1
 515 17 l 1
 515 17 427 -10 322 -10 c 0
 187 -10 113 53 113 186 c 0
 113 431 223 702 469 702 c 0xec
 570 702 668 671 668 671 c 1xdc
 649 613 l 1
 649 613 549 634 459 634 c 0xec
 273 634 193 373 193 185 c 0
 193 96 243 58 330 58 c 0
 386 58 451 73 451 73 c 1
 503 293 l 1
 398 293 l 1
EndSplineSet
Position2: "'cpsp' Capital Spacing in Lateinisch lookup 0 subtable" dx=5 dy=0 dh=10 dv=0
EndChar

StartChar: Gcommaaccent
Encoding: 290 290 52
Width: 572
Flags: MW
HStem: -73 131<257 358 286.5 327> -10 68<286.5 358 286.5 374.5> 293 66<398 595 413 503> 634 68<366 504> 671 21G<668 668>
VStem: 113 80<140.5 279 140.5 308.5>
LayerCount: 2
Fore
SplineSet
398 293 m 1x6c
 413 359 l 1
 595 359 l 1
 515 17 l 1
 515 17 427 -10 322 -10 c 0
 187 -10 113 53 113 186 c 0
 113 431 223 702 469 702 c 0x74
 570 702 668 671 668 671 c 1x6c
 649 613 l 1
 649 613 549 634 459 634 c 0x74
 273 634 193 373 193 185 c 0
 193 96 243 58 330 58 c 0
 386 58 451 73 451 73 c 1
 503 293 l 1
 398 293 l 1x6c
257 -73 m 1xac
 170 -283 l 1
 231 -283 l 1
 327 -73 l 1
 257 -73 l 1xac
EndSplineSet
Position2: "'cpsp' Capital Spacing in Lateinisch lookup 0 subtable" dx=5 dy=0 dh=10 dv=0
EndChar

StartChar: Gdotaccent
Encoding: 288 288 53
Width: 572
Flags: MW
HStem: -10 68<286.5 358 286.5 374.5> 293 66<398 595 413 503> 634 68<366 504> 671 21G<668 668> 797 89<465 556 486 535>
VStem: 113 80<140.5 279 140.5 308.5>
LayerCount: 2
Fore
SplineSet
465 797 m 1xdc
 486 886 l 1
 556 886 l 1
 535 797 l 1
 465 797 l 1xdc
398 293 m 1
 413 359 l 1
 595 359 l 1
 515 17 l 1
 515 17 427 -10 322 -10 c 0
 187 -10 113 53 113 186 c 0
 113 431 223 702 469 702 c 0xec
 570 702 668 671 668 671 c 1xdc
 649 613 l 1
 649 613 549 634 459 634 c 0xec
 273 634 193 373 193 185 c 0
 193 96 243 58 330 58 c 0
 386 58 451 73 451 73 c 1
 503 293 l 1
 398 293 l 1
EndSplineSet
Position2: "'cpsp' Capital Spacing in Lateinisch lookup 0 subtable" dx=5 dy=0 dh=10 dv=0
EndChar

StartChar: H
Encoding: 72 72 54
Width: 624
Flags: MW
HStem: 0 21G<78 154 78 78 469 546 469 469> 316 67<243 542 227 558>
VStem: 78 628
LayerCount: 2
Fore
SplineSet
469 0 m 1
 542 316 l 1
 227 316 l 1
 154 0 l 1
 78 0 l 1
 238 692 l 1
 314 692 l 1
 243 383 l 1
 558 383 l 1
 629 692 l 1
 706 692 l 1
 546 0 l 1
 469 0 l 1
EndSplineSet
Position2: "'cpsp' Capital Spacing in Lateinisch lookup 0 subtable" dx=5 dy=0 dh=10 dv=0
EndChar

StartChar: Hbar
Encoding: 294 294 55
Width: 638
Flags: MW
HStem: 0 21G<85 158 85 85 480 554 480 480> 312 73<247 552 230 569> 503 69<122 217 137 201 137 274 290 596 685 746>
VStem: 85 679<0 572>
LayerCount: 2
Fore
SplineSet
122 503 m 1
 122 504 l 1
 137 572 l 1
 217 572 l 1
 245 692 l 1
 318 692 l 1
 290 572 l 1
 612 572 l 1
 640 692 l 1
 713 692 l 1
 685 572 l 1
 764 572 l 1
 746 503 l 1
 669 503 l 1
 554 0 l 1
 480 0 l 1
 552 312 l 1
 230 312 l 1
 158 0 l 1
 85 0 l 1
 201 503 l 1
 122 503 l 1
247 385 m 1
 569 385 l 1
 596 503 l 1
 274 503 l 1
 247 385 l 1
EndSplineSet
Position2: "'cpsp' Capital Spacing in Lateinisch lookup 0 subtable" dx=5 dy=0 dh=10 dv=0
EndChar

StartChar: Hcircumflex
Encoding: 292 292 56
Width: 624
Flags: MW
HStem: 0 21G<78 154 78 78 469 546 469 469> 316 67<243 542 227 558> 793 138<335 540 499 567 499 636>
VStem: 78 628
LayerCount: 2
Fore
SplineSet
469 0 m 1
 542 316 l 1
 227 316 l 1
 154 0 l 1
 78 0 l 1
 238 692 l 1
 314 692 l 1
 243 383 l 1
 558 383 l 1
 629 692 l 1
 706 692 l 1
 546 0 l 1
 469 0 l 1
335 793 m 1
 499 931 l 1
 540 931 l 1
 636 793 l 1
 567 793 l 1
 513 874 l 1
 417 793 l 1
 335 793 l 1
EndSplineSet
Position2: "'cpsp' Capital Spacing in Lateinisch lookup 0 subtable" dx=5 dy=0 dh=10 dv=0
EndChar

StartChar: I
Encoding: 73 73 57
Width: 232
Flags: MW
HStem: 0 21G<78 78 78 154>
VStem: 78 236
LayerCount: 2
Fore
SplineSet
78 0 m 1
 238 692 l 1
 314 692 l 1
 154 0 l 1
 78 0 l 1
EndSplineSet
Position2: "'cpsp' Capital Spacing in Lateinisch lookup 0 subtable" dx=5 dy=0 dh=10 dv=0
EndChar

StartChar: Iacute
Encoding: 205 205 58
Width: 232
Flags: MW
HStem: 0 21G<78 78 78 154>
VStem: 78 389
LayerCount: 2
Fore
SplineSet
239 785 m 1
 230 842 l 1
 458 936 l 1
 467 871 l 1
 239 785 l 1
78 0 m 1
 238 692 l 1
 314 692 l 1
 154 0 l 1
 78 0 l 1
EndSplineSet
Position2: "'cpsp' Capital Spacing in Lateinisch lookup 0 subtable" dx=5 dy=0 dh=10 dv=0
EndChar

StartChar: Ibreve
Encoding: 300 300 59
Width: 232
Flags: MW
HStem: 0 21G<78 78 78 154> 795 60<289.5 331.5 289.5 343>
VStem: 183 69
LayerCount: 2
Fore
SplineSet
186 922 m 1
 252 922 l 1
 244 870 268 855 311 855 c 0
 352 855 390 881 402 922 c 1
 468 922 l 1
 445 842 388 795 298 795 c 0
 214 795 172 837 186 922 c 1
78 0 m 1
 238 692 l 1
 314 692 l 1
 154 0 l 1
 78 0 l 1
EndSplineSet
Position2: "'cpsp' Capital Spacing in Lateinisch lookup 0 subtable" dx=5 dy=0 dh=10 dv=0
EndChar

StartChar: Icircumflex
Encoding: 206 206 60
Width: 232
Flags: MW
HStem: 0 21G<78 78 78 154> 791 138<143 348 307 375 307 444>
VStem: 78 366
LayerCount: 2
Fore
SplineSet
143 791 m 1
 307 929 l 1
 348 929 l 1
 444 791 l 1
 375 791 l 1
 321 872 l 1
 225 791 l 1
 143 791 l 1
78 0 m 1
 238 692 l 1
 314 692 l 1
 154 0 l 1
 78 0 l 1
EndSplineSet
Position2: "'cpsp' Capital Spacing in Lateinisch lookup 0 subtable" dx=5 dy=0 dh=10 dv=0
EndChar

StartChar: Idieresis
Encoding: 207 207 61
Width: 232
Flags: MW
HStem: 0 21G<78 78 78 154> 819 93<173 256 194 233 382 421>
VStem: 78 366
LayerCount: 2
Fore
SplineSet
173 819 m 1
 194 912 l 1
 256 912 l 1
 233 819 l 1
 173 819 l 1
360 819 m 1
 382 912 l 1
 444 912 l 1
 421 819 l 1
 360 819 l 1
78 0 m 1
 238 692 l 1
 314 692 l 1
 154 0 l 1
 78 0 l 1
EndSplineSet
Position2: "'cpsp' Capital Spacing in Lateinisch lookup 0 subtable" dx=5 dy=0 dh=10 dv=0
EndChar

StartChar: Idotaccent
Encoding: 304 304 62
Width: 232
Flags: MW
HStem: 0 21G<78 78 78 154> 830 90<270 354 290 333>
VStem: 78 276
LayerCount: 2
Fore
SplineSet
270 830 m 1
 290 920 l 1
 354 920 l 1
 333 830 l 1
 270 830 l 1
78 0 m 1
 238 692 l 1
 314 692 l 1
 154 0 l 1
 78 0 l 1
EndSplineSet
Position2: "'cpsp' Capital Spacing in Lateinisch lookup 0 subtable" dx=5 dy=0 dh=10 dv=0
EndChar

StartChar: Igrave
Encoding: 204 204 63
Width: 232
Flags: MW
HStem: 0 21G<78 78 78 154>
VStem: 78 293
LayerCount: 2
Fore
SplineSet
186 930 m 1
 371 836 l 1
 337 780 l 1
 149 866 l 1
 186 930 l 1
78 0 m 1
 238 692 l 1
 314 692 l 1
 154 0 l 1
 78 0 l 1
EndSplineSet
Position2: "'cpsp' Capital Spacing in Lateinisch lookup 0 subtable" dx=5 dy=0 dh=10 dv=0
EndChar

StartChar: Imacron
Encoding: 298 298 64
Width: 232
Flags: MW
HStem: 0 21G<78 78 78 154> 833 60<153 460 166 446>
VStem: 78 382
LayerCount: 2
Fore
SplineSet
153 833 m 1
 166 893 l 1
 460 893 l 1
 446 833 l 1
 153 833 l 1
78 0 m 1
 238 692 l 1
 314 692 l 1
 154 0 l 1
 78 0 l 1
EndSplineSet
Position2: "'cpsp' Capital Spacing in Lateinisch lookup 0 subtable" dx=5 dy=0 dh=10 dv=0
EndChar

StartChar: Iogonek
Encoding: 302 302 65
Width: 232
Flags: MW
HStem: -204 67<25 90.5>
VStem: -23 82<-123.5 -116>
LayerCount: 2
Fore
SplineSet
132 -132 m 1
 124 -195 l 1
 124 -195 80 -204 48 -204 c 0
 2 -204 -23 -181 -23 -141 c 0
 -23 -91 41 -28 78 3 c 1
 238 692 l 1
 314 692 l 1
 154 0 l 1
 121 -22 59 -81 59 -117 c 0
 59 -130 67 -137 83 -137 c 0
 98 -137 132 -132 132 -132 c 1
EndSplineSet
Position2: "'cpsp' Capital Spacing in Lateinisch lookup 0 subtable" dx=5 dy=0 dh=10 dv=0
EndChar

StartChar: Itilde
Encoding: 296 296 66
Width: 232
Flags: MW
HStem: 0 21G<78 78 78 154> 798 66<374.5 392.5> 854 65<230 249>
VStem: 78 396
LayerCount: 2
Fore
SplineSet
471 910 m 1xd0
 474 857 l 1
 474 857 411 798 374 798 c 0xd0
 330 798 265 854 233 854 c 0
 211 854 146 805 146 805 c 1
 144 859 l 1
 144 859 211 919 249 919 c 0xb0
 298 919 360 864 389 864 c 0
 409 864 471 910 471 910 c 1xd0
78 0 m 1
 238 692 l 1
 314 692 l 1
 154 0 l 1
 78 0 l 1
EndSplineSet
Position2: "'cpsp' Capital Spacing in Lateinisch lookup 0 subtable" dx=5 dy=0 dh=10 dv=0
EndChar

StartChar: J
Encoding: 74 74 67
Width: 265
Flags: MW
HStem: -70 68<19 60.5 19 83>
VStem: 7 343
LayerCount: 2
Fore
SplineSet
350 692 m 1
 218 118 l 2
 181 -42 159 -70 7 -70 c 1
 19 -2 l 1
 102 -2 117 14 142 124 c 2
 274 692 l 1
 350 692 l 1
EndSplineSet
Position2: "'cpsp' Capital Spacing in Lateinisch lookup 0 subtable" dx=5 dy=0 dh=10 dv=0
EndChar

StartChar: Jcircumflex
Encoding: 308 308 68
Width: 265
Flags: MW
HStem: -70 68<19 60.5 19 83> 793 138<174 379 338 406 338 475>
VStem: 7 468
LayerCount: 2
Fore
SplineSet
350 692 m 1
 218 118 l 2
 181 -42 159 -70 7 -70 c 1
 19 -2 l 1
 102 -2 117 14 142 124 c 2
 274 692 l 1
 350 692 l 1
174 793 m 1
 338 931 l 1
 379 931 l 1
 475 793 l 1
 406 793 l 1
 352 874 l 1
 256 793 l 1
 174 793 l 1
EndSplineSet
Position2: "'cpsp' Capital Spacing in Lateinisch lookup 0 subtable" dx=5 dy=0 dh=10 dv=0
EndChar

StartChar: K
Encoding: 75 75 69
Width: 521
Flags: MW
HStem: 0 21G<78 154 78 78 422 503 422 422> 305.5 68
VStem: 78 584
LayerCount: 2
Fore
SplineSet
422 0 m 1
 324 307 l 1
 224 304 l 1
 154 0 l 1
 78 0 l 1
 238 692 l 1
 314 692 l 1
 240 372 l 1
 331 375 l 1
 576 692 l 1
 662 692 l 1
 393 343 l 1
 503 0 l 1
 422 0 l 1
EndSplineSet
Position2: "'cpsp' Capital Spacing in Lateinisch lookup 0 subtable" dx=5 dy=0 dh=10 dv=0
EndChar

StartChar: Kcommaaccent
Encoding: 310 310 70
Width: 521
Flags: MW
HStem: 0 21G<78 154 78 78 422 503 422 422> 305.5 68
VStem: 78 584
LayerCount: 2
Fore
SplineSet
229 -73 m 1
 142 -283 l 1
 203 -283 l 1
 299 -73 l 1
 229 -73 l 1
422 0 m 1
 324 307 l 1
 224 304 l 1
 154 0 l 1
 78 0 l 1
 238 692 l 1
 314 692 l 1
 240 372 l 1
 331 375 l 1
 576 692 l 1
 662 692 l 1
 393 343 l 1
 503 0 l 1
 422 0 l 1
EndSplineSet
Position2: "'cpsp' Capital Spacing in Lateinisch lookup 0 subtable" dx=5 dy=0 dh=10 dv=0
EndChar

StartChar: L
Encoding: 76 76 71
Width: 433
Flags: MW
HStem: 0 68<170 427>
VStem: 78 364<0 68>
LayerCount: 2
Fore
SplineSet
427 0 m 1
 78 0 l 1
 238 692 l 1
 314 692 l 1
 170 68 l 1
 442 68 l 1
 427 0 l 1
EndSplineSet
Position2: "'cpsp' Capital Spacing in Lateinisch lookup 0 subtable" dx=5 dy=0 dh=10 dv=0
EndChar

StartChar: Lacute
Encoding: 313 313 72
Width: 433
Flags: MW
HStem: 0 68<170 427>
VStem: 78 466
LayerCount: 2
Fore
SplineSet
316 785 m 1
 307 842 l 1
 535 936 l 1
 544 871 l 1
 316 785 l 1
427 0 m 1
 78 0 l 1
 238 692 l 1
 314 692 l 1
 170 68 l 1
 442 68 l 1
 427 0 l 1
EndSplineSet
Position2: "'cpsp' Capital Spacing in Lateinisch lookup 0 subtable" dx=5 dy=0 dh=10 dv=0
EndChar

StartChar: Lcaron
Encoding: 317 317 73
Width: 453
Flags: MW
HStem: 0 68<170 427> 460 232<486 499 238 431>
VStem: 78 476
LayerCount: 2
Fore
SplineSet
554 692 m 1
 499 460 l 1
 431 460 l 1
 486 692 l 1
 554 692 l 1
427 0 m 1
 78 0 l 1
 238 692 l 1
 314 692 l 1
 170 68 l 1
 442 68 l 1
 427 0 l 1
EndSplineSet
Position2: "'cpsp' Capital Spacing in Lateinisch lookup 0 subtable" dx=5 dy=0 dh=10 dv=0
EndChar

StartChar: Lcommaaccent
Encoding: 315 315 74
Width: 433
Flags: MW
HStem: -73 141<207 207 207 277> 0 68<170 427>
VStem: 78 364<0 68>
LayerCount: 2
Fore
SplineSet
207 -73 m 1xa0
 120 -283 l 1
 181 -283 l 1
 277 -73 l 1
 207 -73 l 1xa0
427 0 m 1x60
 78 0 l 1
 238 692 l 1
 314 692 l 1
 170 68 l 1
 442 68 l 1
 427 0 l 1x60
EndSplineSet
Position2: "'cpsp' Capital Spacing in Lateinisch lookup 0 subtable" dx=5 dy=0 dh=10 dv=0
EndChar

StartChar: Lslash
Encoding: 321 321 75
Width: 434
Flags: MW
HStem: 0 68<172 429>
VStem: 63 381<68 289>
LayerCount: 2
Fore
SplineSet
429 0 m 1
 80 0 l 1
 142 268 l 1
 88 234 l 1
 88 235 l 1
 63 289 l 1
 161 350 l 1
 240 692 l 1
 316 692 l 1
 250 405 l 1
 398 498 l 1
 421 443 l 1
 231 324 l 1
 172 68 l 1
 444 68 l 1
 429 0 l 1
EndSplineSet
Position2: "'cpsp' Capital Spacing in Lateinisch lookup 0 subtable" dx=5 dy=0 dh=10 dv=0
EndChar

StartChar: M
Encoding: 77 77 76
Width: 780
Flags: MW
HStem: 0 21G<78 78 78 154 626 626 626 702> 624 68<298 308 298 298 760 771 760 760>
VStem: 78 784<0 692>
LayerCount: 2
Fore
SplineSet
78 0 m 1
 238 692 l 1
 367 692 l 1
 411 106 l 1
 731 692 l 1
 862 692 l 1
 702 0 l 1
 626 0 l 1
 771 624 l 1
 760 624 l 1
 434 25 l 1
 354 25 l 1
 308 624 l 1
 298 624 l 1
 154 0 l 1
 78 0 l 1
EndSplineSet
Position2: "'cpsp' Capital Spacing in Lateinisch lookup 0 subtable" dx=5 dy=0 dh=10 dv=0
EndChar

StartChar: N
Encoding: 78 78 77
Width: 631
Flags: MW
HStem: 0 79<422 497 478 497 478 553> 617 75<294 314 294 294>
VStem: 78 635
LayerCount: 2
Fore
SplineSet
78 0 m 1
 238 692 l 1
 374 692 l 1
 478 79 l 1
 497 79 l 1
 638 692 l 1
 713 692 l 1
 553 0 l 1
 422 0 l 1
 314 617 l 1
 294 617 l 1
 151 0 l 1
 78 0 l 1
EndSplineSet
Position2: "'cpsp' Capital Spacing in Lateinisch lookup 0 subtable" dx=5 dy=0 dh=10 dv=0
EndChar

StartChar: Nacute
Encoding: 323 323 78
Width: 631
Flags: MW
HStem: 0 79<422 497 478 497 478 553> 617 75<294 314 294 294>
VStem: 78 635
LayerCount: 2
Fore
SplineSet
402 785 m 1
 393 842 l 1
 621 936 l 1
 630 871 l 1
 402 785 l 1
78 0 m 1
 238 692 l 1
 374 692 l 1
 478 79 l 1
 497 79 l 1
 638 692 l 1
 713 692 l 1
 553 0 l 1
 422 0 l 1
 314 617 l 1
 294 617 l 1
 151 0 l 1
 78 0 l 1
EndSplineSet
Position2: "'cpsp' Capital Spacing in Lateinisch lookup 0 subtable" dx=5 dy=0 dh=10 dv=0
EndChar

StartChar: Ncaron
Encoding: 327 327 79
Width: 631
Flags: MW
HStem: 0 79<422 497 478 497 478 553> 617 75<294 314 294 294> 789 137<367 512 367 465>
VStem: 78 635
LayerCount: 2
Fore
SplineSet
669 926 m 1
 512 789 l 1
 465 789 l 1
 367 926 l 1
 441 926 l 1
 499 844 l 1
 592 926 l 1
 669 926 l 1
78 0 m 1
 238 692 l 1
 374 692 l 1
 478 79 l 1
 497 79 l 1
 638 692 l 1
 713 692 l 1
 553 0 l 1
 422 0 l 1
 314 617 l 1
 294 617 l 1
 151 0 l 1
 78 0 l 1
EndSplineSet
Position2: "'cpsp' Capital Spacing in Lateinisch lookup 0 subtable" dx=5 dy=0 dh=10 dv=0
EndChar

StartChar: Ncommaaccent
Encoding: 325 325 80
Width: 631
Flags: MW
HStem: 0 79<422 497 478 497 478 553> 617 75<294 314 294 294>
VStem: 78 635
LayerCount: 2
Fore
SplineSet
280 -73 m 1
 193 -283 l 1
 254 -283 l 1
 350 -73 l 1
 280 -73 l 1
78 0 m 1
 238 692 l 1
 374 692 l 1
 478 79 l 1
 497 79 l 1
 638 692 l 1
 713 692 l 1
 553 0 l 1
 422 0 l 1
 314 617 l 1
 294 617 l 1
 151 0 l 1
 78 0 l 1
EndSplineSet
Position2: "'cpsp' Capital Spacing in Lateinisch lookup 0 subtable" dx=5 dy=0 dh=10 dv=0
EndChar

StartChar: Ntilde
Encoding: 209 209 81
Width: 631
Flags: MW
HStem: 0 79<422 497 478 497 478 553> 617 75<294 314 294 294> 802 66<569.5 587.5> 858 65<425 444>
VStem: 78 635
LayerCount: 2
Fore
SplineSet
666 914 m 1xe8
 669 861 l 1
 669 861 606 802 569 802 c 0xe8
 525 802 460 858 428 858 c 0
 406 858 341 809 341 809 c 1
 339 863 l 1
 339 863 406 923 444 923 c 0xd8
 493 923 555 868 584 868 c 0
 604 868 666 914 666 914 c 1xe8
78 0 m 1
 238 692 l 1
 374 692 l 1
 478 79 l 1
 497 79 l 1
 638 692 l 1
 713 692 l 1
 553 0 l 1
 422 0 l 1
 314 617 l 1
 294 617 l 1
 151 0 l 1
 78 0 l 1
EndSplineSet
Position2: "'cpsp' Capital Spacing in Lateinisch lookup 0 subtable" dx=5 dy=0 dh=10 dv=0
EndChar

StartChar: O
Encoding: 79 79 82
Width: 628
Flags: MW
HStem: -10 68<283 357.5 283 360.5> 634 68<430.5 500.5>
VStem: 114 79<149.5 266 149.5 279> 592 80<421.5 540>
LayerCount: 2
Fore
SplineSet
335 58 m 0
 380 58 419 72 451 98 c 0
 547 177 592 353 592 490 c 0
 592 590 550 634 451 634 c 0
 410 634 373 622 342 597 c 0
 243 516 193 330 193 202 c 0
 193 97 231 58 335 58 c 0
326 -10 m 0
 181 -10 114 48 114 197 c 0
 114 361 168 535 273 630 c 0
 323 676 385 702 457 702 c 0
 596 702 672 639 672 495 c 0
 672 325 619 144 506 51 c 0
 458 12 395 -10 326 -10 c 0
EndSplineSet
Position2: "'cpsp' Capital Spacing in Lateinisch lookup 0 subtable" dx=5 dy=0 dh=10 dv=0
EndChar

StartChar: Oacute
Encoding: 211 211 83
Width: 628
Flags: MW
HStem: -10 68<283 357.5 283 360.5> 634 68<430.5 500.5>
VStem: 114 79<149.5 266 149.5 279> 592 80<421.5 540>
LayerCount: 2
Fore
SplineSet
335 58 m 0
 380 58 419 72 451 98 c 0
 547 177 592 353 592 490 c 0
 592 590 550 634 451 634 c 0
 410 634 373 622 342 597 c 0
 243 516 193 330 193 202 c 0
 193 97 231 58 335 58 c 0
326 -10 m 0
 181 -10 114 48 114 197 c 0
 114 361 168 535 273 630 c 0
 323 676 385 702 457 702 c 0
 596 702 672 639 672 495 c 0
 672 325 619 144 506 51 c 0
 458 12 395 -10 326 -10 c 0
425 785 m 1
 416 842 l 1
 644 936 l 1
 653 871 l 1
 425 785 l 1
EndSplineSet
Position2: "'cpsp' Capital Spacing in Lateinisch lookup 0 subtable" dx=5 dy=0 dh=10 dv=0
EndChar

StartChar: Obreve
Encoding: 334 334 84
Width: 628
Flags: MW
HStem: -10 68<283 357.5 283 360.5> 634 68<430.5 500.5> 796 60<480.5 522.5 480.5 534>
VStem: 114 79<149.5 266 149.5 279> 374 69 592 80<421.5 540>
LayerCount: 2
Fore
SplineSet
377 923 m 1
 443 923 l 1
 435 871 459 856 502 856 c 0
 543 856 581 882 593 923 c 1
 659 923 l 1
 636 843 579 796 489 796 c 0
 405 796 363 838 377 923 c 1
335 58 m 0
 380 58 419 72 451 98 c 0
 547 177 592 353 592 490 c 0
 592 590 550 634 451 634 c 0
 410 634 373 622 342 597 c 0
 243 516 193 330 193 202 c 0
 193 97 231 58 335 58 c 0
326 -10 m 0
 181 -10 114 48 114 197 c 0
 114 361 168 535 273 630 c 0
 323 676 385 702 457 702 c 0
 596 702 672 639 672 495 c 0
 672 325 619 144 506 51 c 0
 458 12 395 -10 326 -10 c 0
EndSplineSet
Position2: "'cpsp' Capital Spacing in Lateinisch lookup 0 subtable" dx=5 dy=0 dh=10 dv=0
EndChar

StartChar: Ocircumflex
Encoding: 212 212 85
Width: 628
Flags: MW
HStem: -10 68<283 357.5 283 360.5> 634 68<430.5 500.5> 793 138<347 552 511 579 511 648>
VStem: 114 79<149.5 266 149.5 279> 592 80<421.5 540>
LayerCount: 2
Fore
SplineSet
335 58 m 0
 380 58 419 72 451 98 c 0
 547 177 592 353 592 490 c 0
 592 590 550 634 451 634 c 0
 410 634 373 622 342 597 c 0
 243 516 193 330 193 202 c 0
 193 97 231 58 335 58 c 0
326 -10 m 0
 181 -10 114 48 114 197 c 0
 114 361 168 535 273 630 c 0
 323 676 385 702 457 702 c 0
 596 702 672 639 672 495 c 0
 672 325 619 144 506 51 c 0
 458 12 395 -10 326 -10 c 0
347 793 m 1
 511 931 l 1
 552 931 l 1
 648 793 l 1
 579 793 l 1
 525 874 l 1
 429 793 l 1
 347 793 l 1
EndSplineSet
Position2: "'cpsp' Capital Spacing in Lateinisch lookup 0 subtable" dx=5 dy=0 dh=10 dv=0
EndChar

StartChar: Odieresis
Encoding: 214 214 86
Width: 628
Flags: MW
HStem: -10 68<283 357.5 283 360.5> 634 68<430.5 500.5> 812 93<371 461 392 439 581 628>
VStem: 114 79<149.5 266 149.5 279> 592 80<421.5 540>
LayerCount: 2
Fore
SplineSet
371 812 m 1
 392 905 l 1
 461 905 l 1
 439 812 l 1
 371 812 l 1
560 812 m 1
 581 905 l 1
 649 905 l 1
 628 812 l 1
 560 812 l 1
335 58 m 0
 380 58 419 72 451 98 c 0
 547 177 592 353 592 490 c 0
 592 590 550 634 451 634 c 0
 410 634 373 622 342 597 c 0
 243 516 193 330 193 202 c 0
 193 97 231 58 335 58 c 0
326 -10 m 0
 181 -10 114 48 114 197 c 0
 114 361 168 535 273 630 c 0
 323 676 385 702 457 702 c 0
 596 702 672 639 672 495 c 0
 672 325 619 144 506 51 c 0
 458 12 395 -10 326 -10 c 0
EndSplineSet
Position2: "'cpsp' Capital Spacing in Lateinisch lookup 0 subtable" dx=5 dy=0 dh=10 dv=0
EndChar

StartChar: Ograve
Encoding: 210 210 87
Width: 628
Flags: MW
HStem: -10 68<283 357.5 283 360.5> 634 68<430.5 500.5>
VStem: 114 79<149.5 266 149.5 279> 592 80<421.5 540>
LayerCount: 2
Fore
SplineSet
413 930 m 1
 598 836 l 1
 564 780 l 1
 376 866 l 1
 413 930 l 1
335 58 m 0
 380 58 419 72 451 98 c 0
 547 177 592 353 592 490 c 0
 592 590 550 634 451 634 c 0
 410 634 373 622 342 597 c 0
 243 516 193 330 193 202 c 0
 193 97 231 58 335 58 c 0
326 -10 m 0
 181 -10 114 48 114 197 c 0
 114 361 168 535 273 630 c 0
 323 676 385 702 457 702 c 0
 596 702 672 639 672 495 c 0
 672 325 619 144 506 51 c 0
 458 12 395 -10 326 -10 c 0
EndSplineSet
Position2: "'cpsp' Capital Spacing in Lateinisch lookup 0 subtable" dx=5 dy=0 dh=10 dv=0
EndChar

StartChar: Ohungarumlaut
Encoding: 336 336 88
Width: 628
Flags: MW
HStem: -10 68<283 357.5 283 360.5> 634 68<430.5 500.5>
VStem: 114 79<149.5 266 149.5 279> 592 80<421.5 540>
LayerCount: 2
Fore
SplineSet
577 771 m 1
 535 801 l 1
 699 932 l 1
 748 900 l 1
 577 771 l 1
388 772 m 1
 345 801 l 1
 511 933 l 1
 557 901 l 1
 388 772 l 1
335 58 m 0
 380 58 419 72 451 98 c 0
 547 177 592 353 592 490 c 0
 592 590 550 634 451 634 c 0
 410 634 373 622 342 597 c 0
 243 516 193 330 193 202 c 0
 193 97 231 58 335 58 c 0
326 -10 m 0
 181 -10 114 48 114 197 c 0
 114 361 168 535 273 630 c 0
 323 676 385 702 457 702 c 0
 596 702 672 639 672 495 c 0
 672 325 619 144 506 51 c 0
 458 12 395 -10 326 -10 c 0
EndSplineSet
Position2: "'cpsp' Capital Spacing in Lateinisch lookup 0 subtable" dx=5 dy=0 dh=10 dv=0
EndChar

StartChar: Omacron
Encoding: 332 332 89
Width: 628
Flags: MW
HStem: -10 68<283 357.5 283 360.5> 634 68<430.5 500.5> 823 60<351 658 364 644>
VStem: 114 79<149.5 266 149.5 279> 592 80<421.5 540>
LayerCount: 2
Fore
SplineSet
335 58 m 0
 380 58 419 72 451 98 c 0
 547 177 592 353 592 490 c 0
 592 590 550 634 451 634 c 0
 410 634 373 622 342 597 c 0
 243 516 193 330 193 202 c 0
 193 97 231 58 335 58 c 0
326 -10 m 0
 181 -10 114 48 114 197 c 0
 114 361 168 535 273 630 c 0
 323 676 385 702 457 702 c 0
 596 702 672 639 672 495 c 0
 672 325 619 144 506 51 c 0
 458 12 395 -10 326 -10 c 0
351 823 m 1
 364 883 l 1
 658 883 l 1
 644 823 l 1
 351 823 l 1
EndSplineSet
Position2: "'cpsp' Capital Spacing in Lateinisch lookup 0 subtable" dx=5 dy=0 dh=10 dv=0
EndChar

StartChar: Oslash
Encoding: 216 216 90
Width: 628
Flags: MW
HStem: -10 68<315 357.5 315 360.5> 634 68<430.5 471>
VStem: 114 79<184 266 184 279> 592 80<421.5 506>
LayerCount: 2
Fore
SplineSet
111 -114 m 1
 69 -89 l 1
 159 44 l 1
 128 77 114 127 114 197 c 0
 114 361 168 535 273 630 c 0
 323 676 385 702 457 702 c 0
 509 702 553 693 587 674 c 1
 671 797 l 1
 718 776 l 1
 627 642 l 1
 656 608 672 560 672 495 c 0
 672 325 619 144 506 51 c 0
 458 12 395 -10 326 -10 c 0
 273 -10 231 -2 199 14 c 1
 111 -114 l 1
207 116 m 1
 369 354 l 1
 544 611 l 1
 522 627 491 634 451 634 c 0
 410 634 373 622 342 597 c 0
 243 516 193 330 193 202 c 0
 193 166 197 137 207 116 c 1
335 58 m 0
 380 58 419 72 451 98 c 0
 547 177 592 353 592 490 c 0
 592 522 588 549 578 570 c 1
 415 329 l 1
 242 77 l 1
 264 64 295 58 335 58 c 0
EndSplineSet
Position2: "'cpsp' Capital Spacing in Lateinisch lookup 0 subtable" dx=5 dy=0 dh=10 dv=0
EndChar

StartChar: Oslashacute
Encoding: 510 510 91
Width: 630
Flags: MW
HStem: -10 68<316 358.5 316 361.5> 634 68<431.5 472>
VStem: 115 79<184 266 184 279> 593 80<421.5 506>
LayerCount: 2
Fore
SplineSet
112 -114 m 1
 70 -89 l 1
 160 44 l 1
 129 77 115 127 115 197 c 0
 115 361 169 535 274 630 c 0
 324 676 386 702 458 702 c 0
 510 702 554 693 588 674 c 1
 672 797 l 1
 719 776 l 1
 628 642 l 1
 657 608 673 560 673 495 c 0
 673 325 620 144 507 51 c 0
 459 12 396 -10 327 -10 c 0
 274 -10 232 -2 200 14 c 1
 112 -114 l 1
208 116 m 1
 370 354 l 1
 545 611 l 1
 523 627 492 634 452 634 c 0
 411 634 374 622 343 597 c 0
 244 516 194 330 194 202 c 0
 194 166 198 137 208 116 c 1
336 58 m 0
 381 58 420 72 452 98 c 0
 548 177 593 353 593 490 c 0
 593 522 589 549 579 570 c 1
 416 329 l 1
 243 77 l 1
 265 64 296 58 336 58 c 0
420 778 m 1
 411 842 l 1
 639 936 l 1
 649 864 l 1
 420 778 l 1
EndSplineSet
Position2: "'cpsp' Capital Spacing in Lateinisch lookup 0 subtable" dx=5 dy=0 dh=10 dv=0
EndChar

StartChar: Otilde
Encoding: 213 213 92
Width: 628
Flags: MW
HStem: -10 68<283 357.5 283 360.5> 634 68<430.5 500.5> 802 66<581.5 599.5> 858 65<437 456>
VStem: 114 79<149.5 266 149.5 279> 592 80<421.5 540>
LayerCount: 2
Fore
SplineSet
678 914 m 1xec
 681 861 l 1
 681 861 618 802 581 802 c 0xec
 537 802 472 858 440 858 c 0
 418 858 353 809 353 809 c 1
 351 863 l 1
 351 863 418 923 456 923 c 0xdc
 505 923 567 868 596 868 c 0
 616 868 678 914 678 914 c 1xec
335 58 m 0
 380 58 419 72 451 98 c 0
 547 177 592 353 592 490 c 0
 592 590 550 634 451 634 c 0
 410 634 373 622 342 597 c 0
 243 516 193 330 193 202 c 0
 193 97 231 58 335 58 c 0
326 -10 m 0
 181 -10 114 48 114 197 c 0
 114 361 168 535 273 630 c 0
 323 676 385 702 457 702 c 0
 596 702 672 639 672 495 c 0
 672 325 619 144 506 51 c 0
 458 12 395 -10 326 -10 c 0
EndSplineSet
Position2: "'cpsp' Capital Spacing in Lateinisch lookup 0 subtable" dx=5 dy=0 dh=10 dv=0
EndChar

StartChar: OE
Encoding: 338 338 93
Width: 858
Flags: MW
HStem: -10 75<270 312> -1 66 -1 76<520 815> 316 72 621 75<649 963 649 649> 631 75<384 473 373 474>
VStem: 107 77
LayerCount: 2
Fore
SplineSet
815 -1 m 1x3a
 432 -1 l 1x3a
 387 -5 329 -10 295 -10 c 0
 164 -10 110 50 107 163 c 0
 106 214 114 273 131 345 c 0
 187 583 283 706 463 706 c 0x96
 483 706 569 700 594 696 c 1
 979 696 l 1
 963 621 l 1
 649 621 l 1
 592 388 l 1
 849 388 l 1
 833 315 l 1
 577 317 l 1
 520 75 l 1
 833 75 l 1
 815 -1 l 1x3a
319 65 m 0x56
 340 65 408 70 446 73 c 1
 577 624 l 1
 555 627 495 631 453 631 c 0
 315 631 252 538 207 346 c 0
 192 284 184 235 184 193 c 0
 184 107 221 65 319 65 c 0x56
EndSplineSet
Position2: "'cpsp' Capital Spacing in Lateinisch lookup 0 subtable" dx=5 dy=0 dh=10 dv=0
EndChar

StartChar: P
Encoding: 80 80 94
Width: 547
Flags: MW
HStem: 0 21G<78 154 78 78> 232 68<224 359 208 371> 624 68<298 447 298 298>
VStem: 547 80<465 559>
LayerCount: 2
Fore
SplineSet
359 232 m 2
 208 232 l 1
 154 0 l 1
 78 0 l 1
 238 692 l 1
 456 692 l 2
 576 692 627 638 627 528 c 0
 627 355 532 232 359 232 c 2
224 300 m 1
 371 300 l 2
 490 300 547 403 547 527 c 0
 547 591 520 624 447 624 c 2
 298 624 l 1
 224 300 l 1
EndSplineSet
Position2: "'cpsp' Capital Spacing in Lateinisch lookup 0 subtable" dx=5 dy=0 dh=10 dv=0
EndChar

StartChar: Q
Encoding: 81 81 95
Width: 628
Flags: MW
HStem: -10 68<283 337> 634 68<430.5 500.5>
VStem: 114 79<149.5 266 149.5 279> 592 80<421.5 540>
LayerCount: 2
Fore
SplineSet
326 -10 m 0
 181 -10 114 48 114 197 c 0
 114 361 168 535 273 630 c 0
 323 676 385 702 457 702 c 0
 596 702 672 639 672 495 c 0
 672 325 619 144 506 51 c 0
 492 39 476 29 460 21 c 1
 508 -121 l 1
 435 -145 l 1
 390 -3 l 1
 370 -7 348 -10 326 -10 c 0
335 58 m 0
 380 58 419 72 451 98 c 0
 547 177 592 353 592 490 c 0
 592 590 550 634 451 634 c 0
 410 634 373 622 342 597 c 0
 243 516 193 330 193 202 c 0
 193 97 231 58 335 58 c 0
EndSplineSet
Position2: "'cpsp' Capital Spacing in Lateinisch lookup 0 subtable" dx=5 dy=0 dh=10 dv=0
EndChar

StartChar: R
Encoding: 82 82 96
Width: 564
Flags: MW
HStem: 0 21G<78 154 78 78 450 527 450 450> 259 67<230 377 377 379 215 377> 625 67<299 441 299 299>
VStem: 549 80<466 560.5>
LayerCount: 2
Fore
SplineSet
450 0 m 1
 379 259 l 1
 215 259 l 1
 154 0 l 1
 78 0 l 1
 238 692 l 1
 449 692 l 2
 567 692 629 647 629 525 c 0
 629 367 531 291 451 269 c 1
 527 0 l 1
 450 0 l 1
549 523 m 0
 549 598 517 625 441 625 c 2
 299 625 l 1
 230 326 l 1
 377 326 l 2
 482 326 549 409 549 523 c 0
EndSplineSet
Position2: "'cpsp' Capital Spacing in Lateinisch lookup 0 subtable" dx=5 dy=0 dh=10 dv=0
EndChar

StartChar: Racute
Encoding: 340 340 97
Width: 564
Flags: MW
HStem: 326 299<299 377 230 441> 692 21G<238 449 238 238>
VStem: 78 551<0 586>
LayerCount: 2
Fore
SplineSet
379 259 m 1
 450 0 l 1
 527 0 l 1
 451 269 l 1
 531 291 629 367 629 525 c 0
 629 647 567 692 449 692 c 2
 238 692 l 1
 78 0 l 1
 154 0 l 1
 215 259 l 1
 379 259 l 1
549 523 m 0
 549 409 482 326 377 326 c 2
 230 326 l 1
 299 625 l 1
 441 625 l 2
 517 625 549 598 549 523 c 0
357 785 m 1
 348 842 l 1
 576 936 l 1
 585 871 l 1
 357 785 l 1
EndSplineSet
Position2: "'cpsp' Capital Spacing in Lateinisch lookup 0 subtable" dx=5 dy=0 dh=10 dv=0
EndChar

StartChar: Rcaron
Encoding: 344 344 98
Width: 564
Flags: MW
HStem: 326 299<299 377 230 441> 692 234<312 386 312 449 238 386> 789 137<312 457 312 410>
VStem: 78 551<0 586>
LayerCount: 2
Fore
SplineSet
614 926 m 1xd0
 457 789 l 1
 410 789 l 1xb0
 312 926 l 1
 386 926 l 1
 444 844 l 1
 537 926 l 1
 614 926 l 1xd0
379 259 m 1
 450 0 l 1
 527 0 l 1
 451 269 l 1
 531 291 629 367 629 525 c 0
 629 647 567 692 449 692 c 2
 238 692 l 1xd0
 78 0 l 1
 154 0 l 1
 215 259 l 1
 379 259 l 1
549 523 m 0
 549 409 482 326 377 326 c 2
 230 326 l 1
 299 625 l 1
 441 625 l 2
 517 625 549 598 549 523 c 0
EndSplineSet
Position2: "'cpsp' Capital Spacing in Lateinisch lookup 0 subtable" dx=5 dy=0 dh=10 dv=0
EndChar

StartChar: Rcommaaccent
Encoding: 342 342 99
Width: 564
Flags: MW
HStem: -283 210<164 321 164 321> 0 21G<78 154 78 78 450 527 450 450> 259 67<230 377 377 379 215 377> 625 67<299 441 299 299>
VStem: 549 80<466 560.5>
LayerCount: 2
Fore
SplineSet
164 -283 m 1
 251 -73 l 1
 321 -73 l 1
 225 -283 l 1
 164 -283 l 1
450 0 m 1
 379 259 l 1
 215 259 l 1
 154 0 l 1
 78 0 l 1
 238 692 l 1
 449 692 l 2
 567 692 629 647 629 525 c 0
 629 367 531 291 451 269 c 1
 527 0 l 1
 450 0 l 1
549 523 m 0
 549 598 517 625 441 625 c 2
 299 625 l 1
 230 326 l 1
 377 326 l 2
 482 326 549 409 549 523 c 0
EndSplineSet
Position2: "'cpsp' Capital Spacing in Lateinisch lookup 0 subtable" dx=5 dy=0 dh=10 dv=0
EndChar

StartChar: S
Encoding: 83 83 100
Width: 499
Flags: MW
HStem: -10 68<222.5 312.5 222.5 332> 635 67<351.5 436>
VStem: 162 78<461 537 461 552> 426 79<169.5 250.5>
LayerCount: 2
Fore
SplineSet
590 674 m 1
 577 617 l 1
 577 617 471 635 401 635 c 0
 302 635 240 585 240 489 c 0
 240 433 272 419 364 386 c 0
 465 350 505 319 505 229 c 0
 505 79 407 -10 257 -10 c 0
 162 -10 56 16 56 16 c 1
 69 76 l 1
 69 76 185 58 260 58 c 0
 365 58 426 117 426 222 c 0
 426 279 402 295 313 326 c 0
 215 360 162 391 162 483 c 0
 162 621 258 702 404 702 c 0
 496 702 590 674 590 674 c 1
EndSplineSet
Position2: "'cpsp' Capital Spacing in Lateinisch lookup 0 subtable" dx=5 dy=0 dh=10 dv=0
EndChar

StartChar: Sacute
Encoding: 346 346 101
Width: 499
Flags: MW
HStem: -10 68<222.5 312.5 222.5 332> 635 67<351.5 436>
VStem: 162 78<461 537 461 552> 426 79<169.5 250.5>
LayerCount: 2
Fore
SplineSet
590 674 m 1
 577 617 l 1
 577 617 471 635 401 635 c 0
 302 635 240 585 240 489 c 0
 240 433 272 419 364 386 c 0
 465 350 505 319 505 229 c 0
 505 79 407 -10 257 -10 c 0
 162 -10 56 16 56 16 c 1
 69 76 l 1
 69 76 185 58 260 58 c 0
 365 58 426 117 426 222 c 0
 426 279 402 295 313 326 c 0
 215 360 162 391 162 483 c 0
 162 621 258 702 404 702 c 0
 496 702 590 674 590 674 c 1
352 785 m 1
 343 842 l 1
 571 936 l 1
 580 871 l 1
 352 785 l 1
EndSplineSet
Position2: "'cpsp' Capital Spacing in Lateinisch lookup 0 subtable" dx=5 dy=0 dh=10 dv=0
EndChar

StartChar: Scaron
Encoding: 352 352 102
Width: 499
Flags: MW
HStem: -10 68<222.5 312.5 222.5 332> 635 67<351.5 436> 792 137<319 464 319 417>
VStem: 162 78<461 537 461 552> 426 79<169.5 250.5>
LayerCount: 2
Fore
SplineSet
621 929 m 1
 464 792 l 1
 417 792 l 1
 319 929 l 1
 393 929 l 1
 451 847 l 1
 544 929 l 1
 621 929 l 1
590 674 m 1
 577 617 l 1
 577 617 471 635 401 635 c 0
 302 635 240 585 240 489 c 0
 240 433 272 419 364 386 c 0
 465 350 505 319 505 229 c 0
 505 79 407 -10 257 -10 c 0
 162 -10 56 16 56 16 c 1
 69 76 l 1
 69 76 185 58 260 58 c 0
 365 58 426 117 426 222 c 0
 426 279 402 295 313 326 c 0
 215 360 162 391 162 483 c 0
 162 621 258 702 404 702 c 0
 496 702 590 674 590 674 c 1
EndSplineSet
Position2: "'cpsp' Capital Spacing in Lateinisch lookup 0 subtable" dx=5 dy=0 dh=10 dv=0
EndChar

StartChar: Scedilla
Encoding: 350 350 103
Width: 499
Flags: MW
HStem: -211 55<217.5 244 217.5 264> -87 42<208 261> -9 21G<225 225> -9 67<225 225> 635 67<351.5 436>
VStem: 162 78<461 537 461 552> 426 79<169.5 250.5>
LayerCount: 2
Fore
SplineSet
590 674 m 1xee
 577 617 l 1
 577 617 471 635 401 635 c 0
 302 635 240 585 240 489 c 0
 240 433 272 419 364 386 c 0
 465 350 505 319 505 229 c 0
 505 81 410 -7 265 -10 c 1
 256 -45 l 1
 261 -45 l 2
 316 -45 357 -63 343 -124 c 0
 330 -184 293 -211 235 -211 c 0
 193 -211 155 -204 155 -204 c 1
 168 -153 l 1
 168 -153 205 -156 230 -156 c 0
 258 -156 274 -146 281 -120 c 0
 288 -92 269 -87 247 -87 c 2
 208 -87 l 1
 225 -9 l 1
 140 -5 56 16 56 16 c 1
 69 76 l 1
 69 76 185 58 260 58 c 0xde
 365 58 426 117 426 222 c 0
 426 279 402 295 313 326 c 0
 215 360 162 391 162 483 c 0
 162 621 258 702 404 702 c 0
 496 702 590 674 590 674 c 1xee
EndSplineSet
Substitution2: "'locl' Localized Forms in Lateinisch lookup 0 subtable" Scommaaccent
Position2: "'cpsp' Capital Spacing in Lateinisch lookup 0 subtable" dx=5 dy=0 dh=10 dv=0
EndChar

StartChar: Scircumflex
Encoding: 348 348 104
Width: 499
Flags: MW
HStem: -10 68<222.5 312.5 222.5 332> 635 67<351.5 436> 793 138<279 484 443 511 443 580>
VStem: 162 78<461 537 461 552> 426 79<169.5 250.5>
LayerCount: 2
Fore
SplineSet
590 674 m 1
 577 617 l 1
 577 617 471 635 401 635 c 0
 302 635 240 585 240 489 c 0
 240 433 272 419 364 386 c 0
 465 350 505 319 505 229 c 0
 505 79 407 -10 257 -10 c 0
 162 -10 56 16 56 16 c 1
 69 76 l 1
 69 76 185 58 260 58 c 0
 365 58 426 117 426 222 c 0
 426 279 402 295 313 326 c 0
 215 360 162 391 162 483 c 0
 162 621 258 702 404 702 c 0
 496 702 590 674 590 674 c 1
279 793 m 1
 443 931 l 1
 484 931 l 1
 580 793 l 1
 511 793 l 1
 457 874 l 1
 361 793 l 1
 279 793 l 1
EndSplineSet
Position2: "'cpsp' Capital Spacing in Lateinisch lookup 0 subtable" dx=5 dy=0 dh=10 dv=0
EndChar

StartChar: Scommaaccent
Encoding: 536 536 105
Width: 499
Flags: MW
HStem: -73 131<211 312.5 222.5 281> -10 68<222.5 312.5 222.5 332> 635 67<351.5 436>
VStem: 162 78<461 537 461 552> 426 79<169.5 250.5>
LayerCount: 2
Fore
SplineSet
211 -73 m 1xb8
 124 -283 l 1
 185 -283 l 1
 281 -73 l 1
 211 -73 l 1xb8
590 674 m 1
 577 617 l 1
 577 617 471 635 401 635 c 0
 302 635 240 585 240 489 c 0
 240 433 272 419 364 386 c 0
 465 350 505 319 505 229 c 0
 505 79 407 -10 257 -10 c 0
 162 -10 56 16 56 16 c 1
 69 76 l 1
 69 76 185 58 260 58 c 0x78
 365 58 426 117 426 222 c 0
 426 279 402 295 313 326 c 0
 215 360 162 391 162 483 c 0
 162 621 258 702 404 702 c 0
 496 702 590 674 590 674 c 1
EndSplineSet
Position2: "'cpsp' Capital Spacing in Lateinisch lookup 0 subtable" dx=5 dy=0 dh=10 dv=0
EndChar

StartChar: T
Encoding: 84 84 106
Width: 469
Flags: MW
HStem: 0 21G<195 271 195 195> 624 68<154 617 170 339 415 415 415 601>
VStem: 154 463<624 692>
LayerCount: 2
Fore
SplineSet
154 624 m 1
 170 692 l 1
 617 692 l 1
 601 624 l 1
 415 624 l 1
 271 0 l 1
 195 0 l 1
 339 624 l 1
 154 624 l 1
EndSplineSet
Position2: "'cpsp' Capital Spacing in Lateinisch lookup 0 subtable" dx=5 dy=0 dh=10 dv=0
EndChar

StartChar: Tbar
Encoding: 358 358 107
Width: 474
Flags: MW
HStem: 0 21G<197 273 197 197> 295 70<130 265 114 281 357 495 130 341> 624 68<156 619 172 341 417 417 417 603>
VStem: 114 505<295 692>
LayerCount: 2
Fore
SplineSet
156 624 m 1
 172 692 l 1
 619 692 l 1
 603 624 l 1
 417 624 l 1
 357 365 l 1
 513 365 l 1
 495 295 l 1
 341 295 l 1
 273 0 l 1
 197 0 l 1
 265 295 l 1
 114 295 l 1
 130 365 l 1
 281 365 l 1
 341 624 l 1
 156 624 l 1
EndSplineSet
Position2: "'cpsp' Capital Spacing in Lateinisch lookup 0 subtable" dx=5 dy=0 dh=10 dv=0
EndChar

StartChar: Tcaron
Encoding: 356 356 108
Width: 469
Flags: MW
HStem: 0 21G<195 271 195 195> 624 68<154 617 170 339 415 415 415 601> 789 137<282 427 282 380>
VStem: 154 463<624 692>
LayerCount: 2
Fore
SplineSet
584 926 m 1
 427 789 l 1
 380 789 l 1
 282 926 l 1
 356 926 l 1
 414 844 l 1
 507 926 l 1
 584 926 l 1
154 624 m 1
 170 692 l 1
 617 692 l 1
 601 624 l 1
 415 624 l 1
 271 0 l 1
 195 0 l 1
 339 624 l 1
 154 624 l 1
EndSplineSet
Position2: "'cpsp' Capital Spacing in Lateinisch lookup 0 subtable" dx=5 dy=0 dh=10 dv=0
EndChar

StartChar: Tcommaaccent
Encoding: 538 538 109
Width: 469
Flags: MW
HStem: 0 21G<195 271 195 195> 624 68<154 617 170 339 415 415 415 601>
VStem: 99 518
LayerCount: 2
Fore
SplineSet
186 -73 m 1
 99 -283 l 1
 160 -283 l 1
 256 -73 l 1
 186 -73 l 1
154 624 m 1
 170 692 l 1
 617 692 l 1
 601 624 l 1
 415 624 l 1
 271 0 l 1
 195 0 l 1
 339 624 l 1
 154 624 l 1
EndSplineSet
Position2: "'cpsp' Capital Spacing in Lateinisch lookup 0 subtable" dx=5 dy=0 dh=10 dv=0
EndChar

StartChar: U
Encoding: 85 85 110
Width: 594
Flags: MW
HStem: -10 68<277.5 371.5 277.5 387>
VStem: 113 76<112.5 147.5>
LayerCount: 2
Fore
SplineSet
309 692 m 1
 199 217 l 2
 193 193 189 166 189 144 c 0
 189 81 238 58 317 58 c 0
 426 58 470 110 493 211 c 2
 604 692 l 1
 681 692 l 1
 570 211 l 2
 536 63 463 -10 311 -10 c 0
 191 -10 113 35 113 134 c 0
 113 161 117 198 124 225 c 2
 232 692 l 1
 309 692 l 1
EndSplineSet
Position2: "'cpsp' Capital Spacing in Lateinisch lookup 0 subtable" dx=5 dy=0 dh=10 dv=0
EndChar

StartChar: Uacute
Encoding: 218 218 111
Width: 594
Flags: MW
HStem: -10 68<277.5 371.5 277.5 387>
VStem: 113 76<112.5 147.5>
LayerCount: 2
Fore
SplineSet
309 692 m 1
 199 217 l 2
 193 193 189 166 189 144 c 0
 189 81 238 58 317 58 c 0
 426 58 470 110 493 211 c 2
 604 692 l 1
 681 692 l 1
 570 211 l 2
 536 63 463 -10 311 -10 c 0
 191 -10 113 35 113 134 c 0
 113 161 117 198 124 225 c 2
 232 692 l 1
 309 692 l 1
386 785 m 1
 377 842 l 1
 605 936 l 1
 614 871 l 1
 386 785 l 1
EndSplineSet
Position2: "'cpsp' Capital Spacing in Lateinisch lookup 0 subtable" dx=5 dy=0 dh=10 dv=0
EndChar

StartChar: Ubreve
Encoding: 364 364 112
Width: 594
Flags: MW
HStem: -10 68<277.5 371.5 277.5 387> 796 60<457.5 499.5 457.5 511>
VStem: 113 76<112.5 147.5> 351 69
LayerCount: 2
Fore
SplineSet
354 923 m 1
 420 923 l 1
 412 871 436 856 479 856 c 0
 520 856 558 882 570 923 c 1
 636 923 l 1
 613 843 556 796 466 796 c 0
 382 796 340 838 354 923 c 1
309 692 m 1
 199 217 l 2
 193 193 189 166 189 144 c 0
 189 81 238 58 317 58 c 0
 426 58 470 110 493 211 c 2
 604 692 l 1
 681 692 l 1
 570 211 l 2
 536 63 463 -10 311 -10 c 0
 191 -10 113 35 113 134 c 0
 113 161 117 198 124 225 c 2
 232 692 l 1
 309 692 l 1
EndSplineSet
Position2: "'cpsp' Capital Spacing in Lateinisch lookup 0 subtable" dx=5 dy=0 dh=10 dv=0
EndChar

StartChar: Ucircumflex
Encoding: 219 219 113
Width: 594
Flags: MW
HStem: -10 68<277.5 371.5 277.5 387> 793 138<322 527 486 554 486 623>
VStem: 113 76<112.5 147.5>
LayerCount: 2
Fore
SplineSet
309 692 m 1
 199 217 l 2
 193 193 189 166 189 144 c 0
 189 81 238 58 317 58 c 0
 426 58 470 110 493 211 c 2
 604 692 l 1
 681 692 l 1
 570 211 l 2
 536 63 463 -10 311 -10 c 0
 191 -10 113 35 113 134 c 0
 113 161 117 198 124 225 c 2
 232 692 l 1
 309 692 l 1
322 793 m 1
 486 931 l 1
 527 931 l 1
 623 793 l 1
 554 793 l 1
 500 874 l 1
 404 793 l 1
 322 793 l 1
EndSplineSet
Position2: "'cpsp' Capital Spacing in Lateinisch lookup 0 subtable" dx=5 dy=0 dh=10 dv=0
EndChar

StartChar: Udieresis
Encoding: 220 220 114
Width: 594
Flags: MW
HStem: -10 68<277.5 371.5 277.5 387> 812 93<345 435 366 413 554 601>
VStem: 113 76<112.5 147.5>
LayerCount: 2
Fore
SplineSet
345 812 m 1
 366 905 l 1
 435 905 l 1
 413 812 l 1
 345 812 l 1
534 812 m 1
 554 905 l 1
 623 905 l 1
 601 812 l 1
 534 812 l 1
309 692 m 1
 199 217 l 2
 193 193 189 166 189 144 c 0
 189 81 238 58 317 58 c 0
 426 58 470 110 493 211 c 2
 604 692 l 1
 681 692 l 1
 570 211 l 2
 536 63 463 -10 311 -10 c 0
 191 -10 113 35 113 134 c 0
 113 161 117 198 124 225 c 2
 232 692 l 1
 309 692 l 1
EndSplineSet
Position2: "'cpsp' Capital Spacing in Lateinisch lookup 0 subtable" dx=5 dy=0 dh=10 dv=0
EndChar

StartChar: Ugrave
Encoding: 217 217 115
Width: 594
Flags: MW
HStem: -10 68<277.5 371.5 277.5 387>
VStem: 113 76<112.5 147.5>
LayerCount: 2
Fore
SplineSet
393 930 m 1
 578 836 l 1
 544 780 l 1
 356 866 l 1
 393 930 l 1
309 692 m 1
 199 217 l 2
 193 193 189 166 189 144 c 0
 189 81 238 58 317 58 c 0
 426 58 470 110 493 211 c 2
 604 692 l 1
 681 692 l 1
 570 211 l 2
 536 63 463 -10 311 -10 c 0
 191 -10 113 35 113 134 c 0
 113 161 117 198 124 225 c 2
 232 692 l 1
 309 692 l 1
EndSplineSet
Position2: "'cpsp' Capital Spacing in Lateinisch lookup 0 subtable" dx=5 dy=0 dh=10 dv=0
EndChar

StartChar: Uhungarumlaut
Encoding: 368 368 116
Width: 594
Flags: MW
HStem: -10 68<277.5 371.5 277.5 387>
VStem: 113 76<112.5 147.5>
LayerCount: 2
Fore
SplineSet
546 755 m 1
 504 785 l 1
 668 916 l 1
 717 884 l 1
 546 755 l 1
357 756 m 1
 314 785 l 1
 480 917 l 1
 526 885 l 1
 357 756 l 1
309 692 m 1
 199 217 l 2
 193 193 189 166 189 144 c 0
 189 81 238 58 317 58 c 0
 426 58 470 110 493 211 c 2
 604 692 l 1
 681 692 l 1
 570 211 l 2
 536 63 463 -10 311 -10 c 0
 191 -10 113 35 113 134 c 0
 113 161 117 198 124 225 c 2
 232 692 l 1
 309 692 l 1
EndSplineSet
Position2: "'cpsp' Capital Spacing in Lateinisch lookup 0 subtable" dx=5 dy=0 dh=10 dv=0
EndChar

StartChar: Umacron
Encoding: 362 362 117
Width: 594
Flags: MW
HStem: -10 68<277.5 371.5 277.5 387> 823 60<331 638 344 624>
VStem: 113 76<112.5 147.5>
LayerCount: 2
Fore
SplineSet
309 692 m 1
 199 217 l 2
 193 193 189 166 189 144 c 0
 189 81 238 58 317 58 c 0
 426 58 470 110 493 211 c 2
 604 692 l 1
 681 692 l 1
 570 211 l 2
 536 63 463 -10 311 -10 c 0
 191 -10 113 35 113 134 c 0
 113 161 117 198 124 225 c 2
 232 692 l 1
 309 692 l 1
331 823 m 1
 344 883 l 1
 638 883 l 1
 624 823 l 1
 331 823 l 1
EndSplineSet
Position2: "'cpsp' Capital Spacing in Lateinisch lookup 0 subtable" dx=5 dy=0 dh=10 dv=0
EndChar

StartChar: Uogonek
Encoding: 370 370 118
Width: 595
Flags: MW
HStem: -204 67<255 321> -10 18 -10 68<308.5 372.5 278.5 388> -9 67<293 296>
VStem: 114 76<112.5 147.5> 208 82<-123.5 -119>
LayerCount: 2
Fore
SplineSet
310 692 m 1x48
 200 217 l 2
 194 193 190 166 190 144 c 0
 190 81 239 58 318 58 c 0x28
 427 58 471 110 494 211 c 2
 605 692 l 1
 682 692 l 1
 571 211 l 2
 537 63 464 -10 312 -10 c 0x48
 305 -10 299 -9 293 -9 c 1x18
 303 0 312 6 319 12 c 1
 382 4 l 1
 354 -18 290 -81 290 -117 c 0
 290 -130 298 -137 314 -137 c 0
 328 -137 362 -132 362 -132 c 1
 355 -195 l 1
 355 -195 310 -204 278 -204 c 0
 232 -204 208 -181 208 -141 c 0xcc
 208 -97 256 -43 293 -9 c 1x18
 184 -5 114 40 114 134 c 0
 114 161 118 198 125 225 c 2
 233 692 l 1
 310 692 l 1x48
EndSplineSet
Position2: "'cpsp' Capital Spacing in Lateinisch lookup 0 subtable" dx=5 dy=0 dh=10 dv=0
EndChar

StartChar: Uring
Encoding: 366 366 119
Width: 594
Flags: MW
HStem: -10 68<277.5 371.5 277.5 387> 741 52<462.5 497.5 462.5 501.5> 889 52<487 519>
VStem: 113 76<112.5 147.5> 384 54
LayerCount: 2
Fore
SplineSet
597 841 m 0
 581 779 535 741 468 741 c 0
 406 741 371 778 388 841 c 0
 406 909 455 941 517 941 c 0
 576 941 614 911 597 841 c 0
438 841 m 0
 432 814 445 793 480 793 c 0
 515 793 539 811 546 841 c 0
 553 873 534 889 504 889 c 0
 470 889 446 872 438 841 c 0
309 692 m 1
 199 217 l 2
 193 193 189 166 189 144 c 0
 189 81 238 58 317 58 c 0
 426 58 470 110 493 211 c 2
 604 692 l 1
 681 692 l 1
 570 211 l 2
 536 63 463 -10 311 -10 c 0
 191 -10 113 35 113 134 c 0
 113 161 117 198 124 225 c 2
 232 692 l 1
 309 692 l 1
EndSplineSet
Position2: "'cpsp' Capital Spacing in Lateinisch lookup 0 subtable" dx=5 dy=0 dh=10 dv=0
EndChar

StartChar: Utilde
Encoding: 360 360 120
Width: 594
Flags: MW
HStem: -10 68<277.5 371.5 277.5 387> 802 66<550.5 568.5> 858 65<406 425>
VStem: 113 76<112.5 147.5>
LayerCount: 2
Fore
SplineSet
647 914 m 1xd0
 650 861 l 1
 650 861 587 802 550 802 c 0xd0
 506 802 441 858 409 858 c 0
 387 858 322 809 322 809 c 1
 320 863 l 1
 320 863 387 923 425 923 c 0xb0
 474 923 536 868 565 868 c 0
 585 868 647 914 647 914 c 1xd0
309 692 m 1
 199 217 l 2
 193 193 189 166 189 144 c 0
 189 81 238 58 317 58 c 0
 426 58 470 110 493 211 c 2
 604 692 l 1
 681 692 l 1
 570 211 l 2
 536 63 463 -10 311 -10 c 0
 191 -10 113 35 113 134 c 0
 113 161 117 198 124 225 c 2
 232 692 l 1
 309 692 l 1
EndSplineSet
Position2: "'cpsp' Capital Spacing in Lateinisch lookup 0 subtable" dx=5 dy=0 dh=10 dv=0
EndChar

StartChar: V
Encoding: 86 86 121
Width: 545
Flags: MW
HStem: 0 68<261 306 261 348>
VStem: 185.5 74
LayerCount: 2
Fore
SplineSet
601 692 m 1
 678 692 l 1
 348 0 l 1
 190 0 l 1
 181 692 l 1
 258 692 l 1
 261 68 l 1
 306 68 l 1
 601 692 l 1
EndSplineSet
Position2: "'cpsp' Capital Spacing in Lateinisch lookup 0 subtable" dx=5 dy=0 dh=10 dv=0
EndChar

StartChar: W
Encoding: 87 87 122
Width: 829
Flags: MW
HStem: 0 71<232 258 232 297 592 618>
VStem: 535.5 66
LayerCount: 2
Fore
SplineSet
187 692 m 1
 263 692 l 1
 232 71 l 1
 258 71 l 1
 527 682 l 1
 611 682 l 1
 592 71 l 1
 618 71 l 1
 880 692 l 1
 957 692 l 1
 659 0 l 1
 526 0 l 1
 545 570 l 1
 297 0 l 1
 160 0 l 1
 187 692 l 1
EndSplineSet
Position2: "'cpsp' Capital Spacing in Lateinisch lookup 0 subtable" dx=5 dy=0 dh=10 dv=0
EndChar

StartChar: Wacute
Encoding: 7810 7810 123
Width: 829
Flags: MW
HStem: 0 71<232 258 232 297 592 618>
VStem: 535.5 66
LayerCount: 2
Fore
SplineSet
505 785 m 1
 496 842 l 1
 724 936 l 1
 733 871 l 1
 505 785 l 1
187 692 m 1
 263 692 l 1
 232 71 l 1
 258 71 l 1
 527 682 l 1
 611 682 l 1
 592 71 l 1
 618 71 l 1
 880 692 l 1
 957 692 l 1
 659 0 l 1
 526 0 l 1
 545 570 l 1
 297 0 l 1
 160 0 l 1
 187 692 l 1
EndSplineSet
Position2: "'cpsp' Capital Spacing in Lateinisch lookup 0 subtable" dx=5 dy=0 dh=10 dv=0
EndChar

StartChar: Wcircumflex
Encoding: 372 372 124
Width: 829
Flags: MW
HStem: 0 71<232 258 232 297 592 618> 790 138<436 641 600 668 600 737>
VStem: 535.5 66
LayerCount: 2
Fore
SplineSet
436 790 m 1
 600 928 l 1
 641 928 l 1
 737 790 l 1
 668 790 l 1
 614 871 l 1
 518 790 l 1
 436 790 l 1
187 692 m 1
 263 692 l 1
 232 71 l 1
 258 71 l 1
 527 682 l 1
 611 682 l 1
 592 71 l 1
 618 71 l 1
 880 692 l 1
 957 692 l 1
 659 0 l 1
 526 0 l 1
 545 570 l 1
 297 0 l 1
 160 0 l 1
 187 692 l 1
EndSplineSet
Position2: "'cpsp' Capital Spacing in Lateinisch lookup 0 subtable" dx=5 dy=0 dh=10 dv=0
EndChar

StartChar: Wdieresis
Encoding: 7812 7812 125
Width: 829
Flags: MW
HStem: 0 71<232 258 232 297 592 618> 814 93<468 551 489 528 677 716>
VStem: 535.5 66
LayerCount: 2
Fore
SplineSet
468 814 m 1
 489 907 l 1
 551 907 l 1
 528 814 l 1
 468 814 l 1
655 814 m 1
 677 907 l 1
 739 907 l 1
 716 814 l 1
 655 814 l 1
187 692 m 1
 263 692 l 1
 232 71 l 1
 258 71 l 1
 527 682 l 1
 611 682 l 1
 592 71 l 1
 618 71 l 1
 880 692 l 1
 957 692 l 1
 659 0 l 1
 526 0 l 1
 545 570 l 1
 297 0 l 1
 160 0 l 1
 187 692 l 1
EndSplineSet
Position2: "'cpsp' Capital Spacing in Lateinisch lookup 0 subtable" dx=5 dy=0 dh=10 dv=0
EndChar

StartChar: Wgrave
Encoding: 7808 7808 126
Width: 829
Flags: MW
HStem: 0 71<232 258 232 297 592 618>
VStem: 535.5 66
LayerCount: 2
Fore
SplineSet
508 930 m 1
 693 836 l 1
 659 780 l 1
 471 866 l 1
 508 930 l 1
187 692 m 1
 263 692 l 1
 232 71 l 1
 258 71 l 1
 527 682 l 1
 611 682 l 1
 592 71 l 1
 618 71 l 1
 880 692 l 1
 957 692 l 1
 659 0 l 1
 526 0 l 1
 545 570 l 1
 297 0 l 1
 160 0 l 1
 187 692 l 1
EndSplineSet
Position2: "'cpsp' Capital Spacing in Lateinisch lookup 0 subtable" dx=5 dy=0 dh=10 dv=0
EndChar

StartChar: X
Encoding: 88 88 127
Width: 513
Flags: MW
HStem: 0 21G<12 97 12 12 416 495 416 416>
VStem: 12 647
LayerCount: 2
Fore
SplineSet
261 692 m 1
 351 404 l 1
 575 692 l 1
 659 692 l 1
 383 343 l 1
 495 0 l 1
 416 0 l 1
 324 287 l 1
 97 0 l 1
 12 0 l 1
 292 347 l 1
 181 692 l 1
 261 692 l 1
EndSplineSet
Position2: "'cpsp' Capital Spacing in Lateinisch lookup 0 subtable" dx=5 dy=0 dh=10 dv=0
EndChar

StartChar: Y
Encoding: 89 89 128
Width: 493
Flags: MW
HStem: 0 21G<206 279 206 206>
VStem: 170 471<692 692>
LayerCount: 2
Fore
SplineSet
641 692 m 1
 348 296 l 1
 279 0 l 1
 206 0 l 1
 276 302 l 1
 170 692 l 1
 248 692 l 1
 329 369 l 1
 558 692 l 1
 641 692 l 1
EndSplineSet
Position2: "'cpsp' Capital Spacing in Lateinisch lookup 0 subtable" dx=5 dy=0 dh=10 dv=0
EndChar

StartChar: Yacute
Encoding: 221 221 129
Width: 493
Flags: MW
HStem: 0 21G<206 279 206 206>
VStem: 170 471<692 692>
LayerCount: 2
Fore
SplineSet
345 785 m 1
 336 842 l 1
 564 936 l 1
 573 871 l 1
 345 785 l 1
641 692 m 1
 348 296 l 1
 279 0 l 1
 206 0 l 1
 276 302 l 1
 170 692 l 1
 248 692 l 1
 329 369 l 1
 558 692 l 1
 641 692 l 1
EndSplineSet
Position2: "'cpsp' Capital Spacing in Lateinisch lookup 0 subtable" dx=5 dy=0 dh=10 dv=0
EndChar

StartChar: Ycircumflex
Encoding: 374 374 130
Width: 493
Flags: MW
HStem: 0 21G<206 279 206 206> 790 138<272 477 436 504 436 573>
VStem: 170 471<692 692>
LayerCount: 2
Fore
SplineSet
272 790 m 1
 436 928 l 1
 477 928 l 1
 573 790 l 1
 504 790 l 1
 450 871 l 1
 354 790 l 1
 272 790 l 1
641 692 m 1
 348 296 l 1
 279 0 l 1
 206 0 l 1
 276 302 l 1
 170 692 l 1
 248 692 l 1
 329 369 l 1
 558 692 l 1
 641 692 l 1
EndSplineSet
Position2: "'cpsp' Capital Spacing in Lateinisch lookup 0 subtable" dx=5 dy=0 dh=10 dv=0
EndChar

StartChar: Ydieresis
Encoding: 376 376 131
Width: 493
Flags: MW
HStem: 0 21G<206 279 206 206> 813 93<298 381 319 358 507 546>
VStem: 170 471<692 692>
LayerCount: 2
Fore
SplineSet
298 813 m 1
 319 906 l 1
 381 906 l 1
 358 813 l 1
 298 813 l 1
485 813 m 1
 507 906 l 1
 569 906 l 1
 546 813 l 1
 485 813 l 1
641 692 m 1
 348 296 l 1
 279 0 l 1
 206 0 l 1
 276 302 l 1
 170 692 l 1
 248 692 l 1
 329 369 l 1
 558 692 l 1
 641 692 l 1
EndSplineSet
Position2: "'cpsp' Capital Spacing in Lateinisch lookup 0 subtable" dx=5 dy=0 dh=10 dv=0
EndChar

StartChar: Ygrave
Encoding: 7922 7922 132
Width: 493
Flags: MW
HStem: 0 21G<206 279 206 206>
VStem: 170 471<692 692>
LayerCount: 2
Fore
SplineSet
341 930 m 1
 526 836 l 1
 492 780 l 1
 304 866 l 1
 341 930 l 1
641 692 m 1
 348 296 l 1
 279 0 l 1
 206 0 l 1
 276 302 l 1
 170 692 l 1
 248 692 l 1
 329 369 l 1
 558 692 l 1
 641 692 l 1
EndSplineSet
Position2: "'cpsp' Capital Spacing in Lateinisch lookup 0 subtable" dx=5 dy=0 dh=10 dv=0
EndChar

StartChar: Z
Encoding: 90 90 133
Width: 495
Flags: MW
HStem: 0 68<138 454> 624 68<184 616 200 514>
VStem: 38 578
LayerCount: 2
Fore
SplineSet
184 624 m 1
 200 692 l 1
 616 692 l 1
 592 590 l 1
 144 92 l 1
 138 68 l 1
 470 68 l 1
 454 0 l 1
 38 0 l 1
 60 99 l 1
 508 597 l 1
 514 624 l 1
 184 624 l 1
EndSplineSet
Position2: "'cpsp' Capital Spacing in Lateinisch lookup 0 subtable" dx=5 dy=0 dh=10 dv=0
EndChar

StartChar: Zacute
Encoding: 377 377 134
Width: 495
Flags: MW
HStem: 0 68<138 454> 624 68<184 616 200 514>
VStem: 38 578
LayerCount: 2
Fore
SplineSet
336 785 m 1
 327 842 l 1
 555 936 l 1
 564 871 l 1
 336 785 l 1
184 624 m 1
 200 692 l 1
 616 692 l 1
 592 590 l 1
 144 92 l 1
 138 68 l 1
 470 68 l 1
 454 0 l 1
 38 0 l 1
 60 99 l 1
 508 597 l 1
 514 624 l 1
 184 624 l 1
EndSplineSet
Position2: "'cpsp' Capital Spacing in Lateinisch lookup 0 subtable" dx=5 dy=0 dh=10 dv=0
EndChar

StartChar: Zcaron
Encoding: 381 381 135
Width: 495
Flags: MW
HStem: 0 68<138 454> 624 68<184 616 200 514> 788 137<304 449 304 402>
VStem: 38 578
LayerCount: 2
Fore
SplineSet
606 925 m 1
 449 788 l 1
 402 788 l 1
 304 925 l 1
 378 925 l 1
 436 843 l 1
 529 925 l 1
 606 925 l 1
184 624 m 1
 200 692 l 1
 616 692 l 1
 592 590 l 1
 144 92 l 1
 138 68 l 1
 470 68 l 1
 454 0 l 1
 38 0 l 1
 60 99 l 1
 508 597 l 1
 514 624 l 1
 184 624 l 1
EndSplineSet
Position2: "'cpsp' Capital Spacing in Lateinisch lookup 0 subtable" dx=5 dy=0 dh=10 dv=0
EndChar

StartChar: Zdotaccent
Encoding: 379 379 136
Width: 495
Flags: MW
HStem: 0 68<138 454> 624 68<184 616 200 514> 830 90<394 478 414 457>
VStem: 38 578
LayerCount: 2
Fore
SplineSet
394 830 m 1
 414 920 l 1
 478 920 l 1
 457 830 l 1
 394 830 l 1
184 624 m 1
 200 692 l 1
 616 692 l 1
 592 590 l 1
 144 92 l 1
 138 68 l 1
 470 68 l 1
 454 0 l 1
 38 0 l 1
 60 99 l 1
 508 597 l 1
 514 624 l 1
 184 624 l 1
EndSplineSet
Position2: "'cpsp' Capital Spacing in Lateinisch lookup 0 subtable" dx=5 dy=0 dh=10 dv=0
EndChar

StartChar: g
Encoding: 103 103 139
Width: 468
Flags: MW
HStem: -235 64<162 245 162 275> 170 62<260 320 243.5 337> 436 64<461 565> 447 63<276 347 256.5 349.5>
VStem: 18 71<-111.5 -66> 120 71<288.5 341.5 288.5 357> 134 69<95.5 114> 374 73<-93 -35> 407 71<337.5 383 322.5 390.5>
LayerCount: 2
Fore
SplineSet
197 -235 m 0xed
 87 -235 18 -188 18 -104 c 0
 18 -28 92 19 150 49 c 1
 140 59 134 72 134 92 c 0xeb
 134 136 189 189 189 189 c 1
 144 210 120 248 120 309 c 0
 120 405 192 510 321 510 c 0xdc80
 373 510 417 494 417 494 c 1
 565 500 l 1
 550 436 l 1
 461 436 l 1
 470 421 478 399 478 367 c 0
 478 278 407 170 267 170 c 0
 253 170 234 173 234 173 c 1
 234 173 203 133 203 107 c 0xea80
 203 84 227 78 296 69 c 0
 397 56 447 27 447 -50 c 0
 447 -149 353 -235 197 -235 c 0xed
276 7 m 0
 231 12 203 18 189 23 c 1
 144 0 89 -43 89 -88 c 0
 89 -135 124 -171 200 -171 c 0
 290 -171 374 -130 374 -56 c 0
 374 -14 345 -2 276 7 c 0
274 232 m 0xdc80
 366 232 407 312 407 363 c 0
 407 418 382 447 317 447 c 0
 235 447 191 371 191 312 c 0
 191 265 213 232 274 232 c 0xdc80
EndSplineSet
EndChar

StartChar: h
Encoding: 104 104 140
Width: 499
Flags: MW
HStem: 0 21G<66 141 66 66 363 363 363 437> 444 66<355.5 396> 698 20G<232 307 307 307>
VStem: 439 77<363.5 392.5>
LayerCount: 2
Fore
SplineSet
141 0 m 1
 66 0 l 1
 232 718 l 1
 307 718 l 1
 236 412 l 1
 236 412 313 510 398 510 c 0
 478 510 516 459 516 384 c 0
 516 343 504 289 495 252 c 2
 437 0 l 1
 363 0 l 1
 421 249 l 2
 428 281 439 335 439 369 c 0
 439 416 420 444 372 444 c 0
 306 444 217 331 217 331 c 1
 141 0 l 1
EndSplineSet
EndChar

StartChar: s
Encoding: 115 115 141
Width: 429
Flags: MW
HStem: -10 65<187.5 256 187.5 269.5> 445 65<276 343> 490 20G<264 360>
VStem: 123 75<331.5 374 331.5 384> 350 77<122.5 177>
LayerCount: 2
Fore
SplineSet
485 489 m 1xb8
 470 431 l 1
 470 431 375 445 311 445 c 0
 241 445 198 400 198 348 c 0
 198 315 217 304 290 285 c 0
 379 263 427 245 427 172 c 0
 427 49 330 -10 209 -10 c 0
 132 -10 51 13 51 13 c 1
 65 71 l 1
 65 71 157 55 218 55 c 0
 294 55 350 88 350 157 c 0
 350 197 323 205 255 221 c 0
 171 242 123 263 123 330 c 0
 123 438 208 510 320 510 c 0xd8
 400 510 485 489 485 489 c 1xb8
EndSplineSet
EndChar

StartChar: endash
Encoding: 8211 8211 143
Width: 594
Flags: MW
HStem: 235 66<109 609 109 609>
VStem: 109 500<235 301 235 301>
LayerCount: 2
Fore
SplineSet
109 301 m 1
 609 301 l 1
 609 235 l 1
 109 235 l 1
 109 301 l 1
EndSplineSet
Substitution2: "'case' Case-Sensitive Forms in Lateinisch lookup 4 subtable" endash.cap
EndChar

StartChar: dollar
Encoding: 36 36 144
Width: 560
Flags: MW
HStem: -10 65<280.5 290 290 340 274 358.5> -4 21G<197 197> 607 65<377 424 424 433 357.5 438> 665 21G<514 514>
VStem: 196 74<445.5 514 445.5 528> 448 76<162 235.5>
LayerCount: 2
Fore
SplineSet
605 645 m 1x9c
 593 590 l 1
 593 590 542 598 490 603 c 1
 397 366 l 1
 488 333 524 302 524 219 c 0
 524 76 430 -10 287 -10 c 0
 274 -10 261 -9 249 -8 c 1x9c
 205 -120 l 1
 152 -120 l 1
 197 -4 l 1
 140 3 95 15 95 15 c 1
 107 73 l 1
 107 73 164 64 222 58 c 1
 324 317 l 1
 241 347 196 379 196 462 c 0
 196 594 288 672 427 672 c 0
 439 672 451 672 463 671 c 1x6c
 507 782 l 1
 561 782 l 1
 514 665 l 1
 566 657 605 645 605 645 c 1x9c
448 212 m 0
 448 259 430 277 371 300 c 1
 274 55 l 1
 290 55 l 2
 390 55 448 112 448 212 c 0
270 468 m 0
 270 423 292 406 350 383 c 1
 438 607 l 1
 424 607 l 2xac
 330 607 270 560 270 468 c 0
EndSplineSet
EndChar

StartChar: exclam
Encoding: 33 33 145
Width: 189
Flags: MW
HStem: 0 111<59 160 84 135>
VStem: 59 236
LayerCount: 2
Fore
SplineSet
112 230 m 1
 218 700 l 1
 295 700 l 1
 179 230 l 1
 112 230 l 1
59 0 m 1
 84 111 l 1
 160 111 l 1
 135 0 l 1
 59 0 l 1
EndSplineSet
EndChar

StartChar: summation
Encoding: 8721 8721 146
Width: 560
Flags: MW
HStem: -163 69<193 582 193 582> 685 68<193 582 193 193>
VStem: 112 81<-94 -69 -94 -62 -94 -62 663 685>
LayerCount: 2
Fore
SplineSet
379 308 m 1
 112 654 l 1
 112 753 l 1
 582 753 l 1
 582 685 l 1
 193 685 l 1
 193 663 l 1
 449 334 l 1
 449 279 l 1
 193 -69 l 1
 193 -94 l 1
 582 -94 l 1
 582 -163 l 1
 112 -163 l 1
 112 -62 l 1
 379 308 l 1
EndSplineSet
EndChar

StartChar: a
Encoding: 97 97 147
Width: 500
Flags: MW
HStem: -10 65<212 260.5> -1 21G<369 369> 445 65<284 365.5>
VStem: 89 77<112.5 201 112.5 217>
LayerCount: 2
Fore
SplineSet
217 -10 m 0xb0
 128 -10 89 47 89 139 c 0
 89 295 172 510 341 510 c 0
 404 510 546 485 546 485 c 1
 470 160 l 2
 455 97 442 2 442 2 c 1
 369 -1 l 1x70
 369 -1 383 85 387 106 c 1
 387 106 304 -10 217 -10 c 0xb0
342 445 m 0
 226 445 166 263 166 139 c 0
 166 86 184 55 240 55 c 0
 303 55 402 186 402 186 c 1
 459 431 l 1
 459 431 389 445 342 445 c 0
EndSplineSet
EndChar

StartChar: o
Encoding: 111 111 148
Width: 494
Flags: MW
HStem: -10 65<230 317 230 341.5> 445 65<289.5 376.5>
VStem: 91 75<121.5 228 121.5 247> 441 75<266 372>
LayerCount: 2
Fore
SplineSet
343 510 m 0
 455 510 516 455 516 340 c 0
 516 157 421 -10 262 -10 c 0
 151 -10 91 39 91 154 c 0
 91 340 193 510 343 510 c 0
262 55 m 0
 372 55 441 191 441 341 c 0
 441 403 410 445 343 445 c 0
 236 445 166 303 166 153 c 0
 166 90 198 55 262 55 c 0
EndSplineSet
EndChar

StartChar: n
Encoding: 110 110 149
Width: 498
Flags: MW
HStem: 0 21G<66 140 66 66 362 362 362 436> 444 66<354.5 395> 480 20G<181 254 254 254>
VStem: 439 76<363.5 392.5>
LayerCount: 2
Fore
SplineSet
140 0 m 1xd0
 66 0 l 1
 181 500 l 1
 254 500 l 1xb0
 236 413 l 1
 236 413 312 510 397 510 c 0
 477 510 515 459 515 384 c 0
 515 343 504 290 495 254 c 2
 436 0 l 1
 362 0 l 1
 420 249 l 2
 428 281 439 335 439 369 c 0
 439 416 419 444 371 444 c 0
 304 444 217 332 217 332 c 1
 140 0 l 1xd0
EndSplineSet
EndChar

StartChar: numbersign
Encoding: 35 35 150
Width: 560
Flags: MW
HStem: 0 21G<129 197 129 129 352 420 352 352> 180 64<79 173 63 189 257 396 79 241 480 574> 422 64<139 233 123 249 139 301 317 456 540 634>
VStem: 63 587<180 486>
LayerCount: 2
Fore
SplineSet
574 180 m 1
 464 180 l 1
 420 0 l 1
 352 0 l 1
 396 180 l 1
 241 180 l 1
 197 0 l 1
 129 0 l 1
 173 180 l 1
 63 180 l 1
 79 244 l 1
 189 244 l 1
 233 422 l 1
 123 422 l 1
 139 486 l 1
 249 486 l 1
 295 666 l 1
 363 666 l 1
 317 486 l 1
 472 486 l 1
 517 666 l 1
 585 666 l 1
 540 486 l 1
 650 486 l 1
 634 422 l 1
 524 422 l 1
 480 244 l 1
 590 244 l 1
 574 180 l 1
412 244 m 1
 456 422 l 1
 301 422 l 1
 257 244 l 1
 412 244 l 1
EndSplineSet
EndChar

StartChar: at
Encoding: 64 64 151
Width: 933
Flags: MW
HStem: -201 66<312.5 463.5> -10 67<453 465.5> -10 71<723 770 723 778> 445 65<520 589> 655 66<501 771.5>
VStem: 87 72 311 75 613 74 912 69
LayerCount: 2
Fore
SplineSet
639 721 m 0xde80
 965 721 1018 527 963 297 c 0
 901 41 832 -10 724 -10 c 0xbe80
 670 -10 635 5 626 46 c 1
 586 26 496 -10 435 -10 c 0xde80
 297 -11 303 124 319 216 c 0
 353 401 433 510 573 510 c 0
 612 510 699 497 768 485 c 1
 757 440 689 154 687 103 c 0
 686 67 706 61 740 61 c 0xbf80
 800 61 845 99 894 307 c 0
 939 499 917 655 626 655 c 0
 376 655 245 539 178 265 c 0
 127 51 166 -135 459 -135 c 0
 496 -135 595 -126 595 -126 c 1
 582 -192 l 1
 582 -192 486 -201 441 -201 c 0
 97 -201 53 45 105 265 c 0
 184 599 346 721 639 721 c 0xde80
453 57 m 0
 507 57 575 88 613 109 c 1
 616 143 655 321 682 431 c 1
 656 437 608 445 570 445 c 0xdf80
 470 445 424 354 394 215 c 0
 377 136 381 58 453 57 c 0
EndSplineSet
EndChar

StartChar: ydieresis
Encoding: 255 255 152
Width: 454
Flags: MW
HStem: -221 21G<105 181 105 105> 0 64<152 251> 480 20G<139 213 213 213 469 546 546 546> 620 93<228 318 249 296 438 485>
VStem: 145.5 71.5
LayerCount: 2
Fore
SplineSet
228 620 m 1
 249 713 l 1
 318 713 l 1
 296 620 l 1
 228 620 l 1
418 620 m 1
 438 713 l 1
 507 713 l 1
 485 620 l 1
 418 620 l 1
139 500 m 1
 213 500 l 1
 221 64 l 1
 251 64 l 1
 469 500 l 1
 546 500 l 1
 181 -221 l 1
 105 -221 l 1
 220 0 l 1
 152 0 l 1
 139 500 l 1
EndSplineSet
EndChar

StartChar: scaron
Encoding: 353 353 153
Width: 429
Flags: MW
HStem: -10 65<187.5 256 187.5 269.5> 445 65<276 343> 490 20G<264 360> 587 151<246 373 246 331>
VStem: 123 75<331.5 374 331.5 384> 350 77<122.5 177>
LayerCount: 2
Fore
SplineSet
485 489 m 1xac
 470 431 l 1
 470 431 375 445 311 445 c 0
 241 445 198 400 198 348 c 0
 198 315 217 304 290 285 c 0
 379 263 427 245 427 172 c 0
 427 49 330 -10 209 -10 c 0
 132 -10 51 13 51 13 c 1
 65 71 l 1
 65 71 157 55 218 55 c 0
 294 55 350 88 350 157 c 0
 350 197 323 205 255 221 c 0
 171 242 123 263 123 330 c 0
 123 438 208 510 320 510 c 0xdc
 400 510 485 489 485 489 c 1xac
373 587 m 1
 331 587 l 1
 246 738 l 1
 315 738 l 1
 366 649 l 1
 456 738 l 1
 531 738 l 1
 373 587 l 1
EndSplineSet
EndChar

StartChar: yacute
Encoding: 253 253 154
Width: 454
Flags: MW
HStem: -221 21G<105 181 105 105> 0 64<152 251> 480 20G<139 213 213 213 469 546 546 546>
VStem: 145.5 71.5
LayerCount: 2
Fore
SplineSet
139 500 m 1
 213 500 l 1
 221 64 l 1
 251 64 l 1
 469 500 l 1
 546 500 l 1
 181 -221 l 1
 105 -221 l 1
 220 0 l 1
 152 0 l 1
 139 500 l 1
289 596 m 1
 282 654 l 1
 510 748 l 1
 517 682 l 1
 289 596 l 1
EndSplineSet
EndChar

StartChar: zcaron
Encoding: 382 382 155
Width: 418
Flags: MW
HStem: 0 65<140 380> 435 65<138 495 154 390> 587 151<228 355 228 313>
VStem: 38 475
LayerCount: 2
Fore
SplineSet
355 587 m 1
 313 587 l 1
 228 738 l 1
 297 738 l 1
 348 649 l 1
 438 738 l 1
 513 738 l 1
 355 587 l 1
138 435 m 1
 154 500 l 1
 495 500 l 1
 481 436 l 1
 140 65 l 1
 395 65 l 1
 380 0 l 1
 38 0 l 1
 50 64 l 1
 390 435 l 1
 138 435 l 1
EndSplineSet
EndChar

StartChar: degree
Encoding: 176 176 156
Width: 560
Flags: MW
HStem: 420 48<381 436.5 381 451> 654 48<381 436.5>
VStem: 267 50<533 588.5 533 603> 502 48<533 588.5>
LayerCount: 2
Fore
SplineSet
267 561 m 0
 267 645 324 702 409 702 c 0
 493 702 550 645 550 561 c 0
 550 476 493 420 409 420 c 0
 324 420 267 476 267 561 c 0
317 561 m 0
 317 505 353 468 409 468 c 0
 464 468 502 505 502 561 c 0
 502 616 464 654 409 654 c 0
 353 654 317 616 317 561 c 0
EndSplineSet
EndChar

StartChar: section
Encoding: 167 167 157
Width: 470
Flags: MW
HStem: -148 68<181.5 251.5 181.5 289> 581 69<338.5 406.5>
VStem: 103 77<223.5 261.5> 170 76<442 500> 345 76<33 57> 406 77<248 282>
LayerCount: 2
Fore
SplineSet
546 633 m 1xd8
 528 567 l 1
 528 567 429 581 384 581 c 0
 293 581 246 535 246 468 c 0
 246 416 288 408 358 395 c 0
 457 376 483 328 483 283 c 0xd4
 483 213 418 135 404 119 c 1
 420 98 421 82 421 60 c 0
 421 6 383 -148 195 -148 c 0
 134 -148 33 -132 33 -132 c 1
 55 -66 l 1
 55 -66 156 -80 207 -80 c 0
 296 -80 345 -15 345 36 c 0
 345 78 324 86 232 106 c 0
 134 125 103 163 103 220 c 0xe8
 103 303 176 370 190 380 c 1
 174 399 170 424 170 456 c 0
 170 544 245 650 396 650 c 0
 458 650 546 633 546 633 c 1xd8
315 329 m 0
 280 336 243 346 235 352 c 1
 231 347 180 288 180 242 c 0
 180 205 201 188 267 176 c 0xe8
 303 168 332 161 354 149 c 1
 360 154 406 222 406 266 c 0
 406 298 382 317 315 329 c 0
EndSplineSet
EndChar

StartChar: copyright
Encoding: 169 169 158
Width: 644
Flags: MW
HStem: 161 44<358 485 358 499.5> 276 57<405 444 405 445.5> 534 57<403 445> 664 43<359 485>
VStem: 159 44<371 497 371 511> 309 60<402 468 402 487> 642 44<370.5 497>
LayerCount: 2
Fore
SplineSet
159 434 m 0
 159 588 270 707 422 707 c 0
 578 707 686 584 686 434 c 0
 686 281 578 161 421 161 c 0
 270 161 159 282 159 434 c 0
203 434 m 0
 203 308 295 205 421 205 c 0
 549 205 642 307 642 434 c 0
 642 560 548 664 422 664 c 0
 296 664 203 560 203 434 c 0
500 340 m 1
 503 288 l 1
 503 288 466 276 425 276 c 0
 337 276 309 326 309 435 c 0
 309 539 336 591 427 591 c 0
 469 591 503 581 503 581 c 1
 500 528 l 1
 500 528 461 534 429 534 c 0
 377 534 369 501 369 435 c 0
 369 369 381 333 429 333 c 0
 459 333 500 340 500 340 c 1
EndSplineSet
EndChar

StartChar: trademark
Encoding: 8482 8482 159
Width: 699
Flags: MW
HStem: 331 299<219 450 450 502 677 677 677 729> 580 50<219 419 219 298 353 353 353 419>
VStem: 298 55<332 580 332 580> 450 52<331 555 331 630> 677 52<331 555 555 555>
LayerCount: 2
Fore
SplineSet
219 580 m 1x78
 219 630 l 1
 419 630 l 1
 419 580 l 1
 353 580 l 1
 353 332 l 1
 298 332 l 1
 298 580 l 1
 219 580 l 1x78
450 331 m 1
 450 630 l 1
 521 630 l 1x78
 588 422 l 1
 658 630 l 1
 729 630 l 1
 729 331 l 1
 677 331 l 1xb8
 677 555 l 1
 610 346 l 1
 567 346 l 1
 502 555 l 1
 502 331 l 1
 450 331 l 1
EndSplineSet
EndChar

StartChar: registered
Encoding: 174 174 160
Width: 644
Flags: MW
HStem: 161 44<359.5 485.5 359.5 500> 389 47<370 429 429 430 370 429> 538 47<370 370 370 418> 664 43<359 485>
VStem: 159 44<371 497 371 511> 313 57<282 389 282 436 436 538> 480 56<469 505> 642 44<370.5 497>
LayerCount: 2
Fore
SplineSet
159 434 m 0
 159 588 270 707 422 707 c 0
 578 707 686 584 686 434 c 0
 686 281 578 161 422 161 c 0
 270 161 159 282 159 434 c 0
203 434 m 0
 203 308 297 205 422 205 c 0
 549 205 642 307 642 434 c 0
 642 560 548 664 422 664 c 0
 296 664 203 560 203 434 c 0
479 282 m 1
 430 389 l 1
 370 389 l 1
 370 282 l 1
 313 282 l 1
 313 585 l 1
 423 585 l 2
 494 585 536 561 536 490 c 0
 536 441 524 414 486 397 c 1
 541 282 l 1
 479 282 l 1
370 538 m 1
 370 436 l 1
 429 436 l 2
 464 436 480 451 480 487 c 0
 480 523 460 538 418 538 c 2
 370 538 l 1
EndSplineSet
EndChar

StartChar: aacute
Encoding: 225 225 161
Width: 500
Flags: MW
HStem: -10 65<212 260.5> -1 21G<369 369> 445 65<284 365.5>
VStem: 89 77<112.5 201 112.5 217>
LayerCount: 2
Fore
SplineSet
217 -10 m 0xb0
 128 -10 89 47 89 139 c 0
 89 295 172 510 341 510 c 0
 404 510 546 485 546 485 c 1
 470 160 l 2
 455 97 442 2 442 2 c 1
 369 -1 l 1x70
 369 -1 383 85 387 106 c 1
 387 106 304 -10 217 -10 c 0xb0
342 445 m 0
 226 445 166 263 166 139 c 0
 166 86 184 55 240 55 c 0
 303 55 402 186 402 186 c 1
 459 431 l 1
 459 431 389 445 342 445 c 0
340 596 m 1
 333 654 l 1
 561 748 l 1
 568 682 l 1
 340 596 l 1
EndSplineSet
EndChar

StartChar: agrave
Encoding: 224 224 162
Width: 500
Flags: MW
HStem: -10 65<212 260.5> -1 21G<369 369> 445 65<284 365.5>
VStem: 89 77<112.5 201 112.5 217>
LayerCount: 2
Fore
SplineSet
217 -10 m 0xb0
 128 -10 89 47 89 139 c 0
 89 295 172 510 341 510 c 0
 404 510 546 485 546 485 c 1
 470 160 l 2
 455 97 442 2 442 2 c 1
 369 -1 l 1x70
 369 -1 383 85 387 106 c 1
 387 106 304 -10 217 -10 c 0xb0
342 445 m 0
 226 445 166 263 166 139 c 0
 166 86 184 55 240 55 c 0
 303 55 402 186 402 186 c 1
 459 431 l 1
 459 431 389 445 342 445 c 0
338 741 m 1
 523 648 l 1
 490 596 l 1
 302 682 l 1
 338 741 l 1
EndSplineSet
EndChar

StartChar: acircumflex
Encoding: 226 226 163
Width: 500
Flags: MW
HStem: -10 65<212 260.5> -1 21G<369 369> 445 65<284 365.5> 587 151<241 449 396 460 396 535>
VStem: 89 77<112.5 201 112.5 217>
LayerCount: 2
Fore
SplineSet
241 587 m 1xb8
 396 738 l 1
 449 738 l 1
 535 587 l 1
 460 587 l 1
 412 673 l 1
 323 587 l 1
 241 587 l 1xb8
217 -10 m 0
 128 -10 89 47 89 139 c 0
 89 295 172 510 341 510 c 0
 404 510 546 485 546 485 c 1
 470 160 l 2
 455 97 442 2 442 2 c 1
 369 -1 l 1x78
 369 -1 383 85 387 106 c 1
 387 106 304 -10 217 -10 c 0
342 445 m 0
 226 445 166 263 166 139 c 0
 166 86 184 55 240 55 c 0
 303 55 402 186 402 186 c 1
 459 431 l 1
 459 431 389 445 342 445 c 0
EndSplineSet
EndChar

StartChar: adieresis
Encoding: 228 228 164
Width: 500
Flags: MW
HStem: -10 65<212 260.5> -1 21G<369 369> 445 65<284 365.5> 620 93<266 356 287 334 476 523>
VStem: 89 77<112.5 201 112.5 217>
LayerCount: 2
Fore
SplineSet
266 620 m 1xb8
 287 713 l 1
 356 713 l 1
 334 620 l 1
 266 620 l 1xb8
456 620 m 1
 476 713 l 1
 545 713 l 1
 523 620 l 1
 456 620 l 1
217 -10 m 0
 128 -10 89 47 89 139 c 0
 89 295 172 510 341 510 c 0
 404 510 546 485 546 485 c 1
 470 160 l 2
 455 97 442 2 442 2 c 1
 369 -1 l 1x78
 369 -1 383 85 387 106 c 1
 387 106 304 -10 217 -10 c 0
342 445 m 0
 226 445 166 263 166 139 c 0
 166 86 184 55 240 55 c 0
 303 55 402 186 402 186 c 1
 459 431 l 1
 459 431 389 445 342 445 c 0
EndSplineSet
EndChar

StartChar: atilde
Encoding: 227 227 165
Width: 500
Flags: MW
HStem: -10 65<212 260.5> -1 21G<369 369> 445 65<284 365.5> 614 66<487 504.5> 662 21G<346.5 372.5> 665 21G<580 580> 701 20G<575 575> 708 20G<355.5 395.5>
VStem: 89 77<112.5 201 112.5 217>
LayerCount: 2
Fore
SplineSet
217 -10 m 0xa580
 128 -10 89 47 89 139 c 0
 89 295 172 510 341 510 c 0
 404 510 546 485 546 485 c 1
 470 160 l 2
 455 97 442 2 442 2 c 1
 369 -1 l 1x6580
 369 -1 383 85 387 106 c 1
 387 106 304 -10 217 -10 c 0xa580
342 445 m 0
 226 445 166 263 166 139 c 0
 166 86 184 55 240 55 c 0
 303 55 402 186 402 186 c 1
 459 431 l 1
 459 431 389 445 342 445 c 0
575 721 m 1xb280
 580 665 l 1
 580 665 523 614 486 614 c 0xa580
 446 614 387 662 358 662 c 0
 335 662 278 619 278 619 c 1xa980
 275 675 l 1
 275 675 337 728 374 728 c 0xb180
 417 728 474 680 500 680 c 0
 520 680 575 721 575 721 c 1xb280
EndSplineSet
EndChar

StartChar: aring
Encoding: 229 229 166
Width: 500
Flags: MW
HStem: -10 65<212 260.5> -1 21G<369 369> 445 65<284 365.5> 564 49<403.5 430.5 403.5 434> 709 51<427 454>
VStem: 89 77<112.5 201 112.5 217> 334 48 475 46
LayerCount: 2
Fore
SplineSet
217 -10 m 0xbc
 128 -10 89 47 89 139 c 0
 89 295 172 510 341 510 c 0
 404 510 546 485 546 485 c 1
 470 160 l 2
 455 97 442 2 442 2 c 1
 369 -1 l 1x7c
 369 -1 383 85 387 106 c 1
 387 106 304 -10 217 -10 c 0xbc
342 445 m 0
 226 445 166 263 166 139 c 0
 166 86 184 55 240 55 c 0
 303 55 402 186 402 186 c 1
 459 431 l 1
 459 431 389 445 342 445 c 0
337 663 m 0xbf
 348 715 392 760 453 760 c 0
 504 760 527 726 521 675 c 0
 515 609 464 564 404 564 c 0
 344 564 325 607 337 663 c 0xbf
382 663 m 0
 376 639 390 613 417 613 c 0
 444 613 468 635 475 662 c 0
 481 686 467 709 441 709 c 0
 413 709 389 689 382 663 c 0
EndSplineSet
EndChar

StartChar: eacute
Encoding: 233 233 167
Width: 462
Flags: MW
HStem: -10 66<233.5 287> 228 59<187 228 177 242> 447 63<311.5 381.5>
VStem: 91 75<117 158.5 117 228> 434 74<348 409>
LayerCount: 2
Fore
SplineSet
262 56 m 0
 336 56 427 78 427 78 c 1
 421 19 l 1
 421 19 332 -10 242 -10 c 0
 146 -10 91 40 91 142 c 0
 91 314 173 510 360 510 c 0
 450 510 508 474 508 388 c 0
 508 265 415 228 228 228 c 2
 177 228 l 1
 170 203 166 170 166 147 c 0
 166 87 205 56 262 56 c 0
187 287 m 1
 242 287 l 2
 373 287 434 309 434 387 c 0
 434 431 406 447 357 447 c 0
 266 447 215 383 187 287 c 1
300 596 m 1
 293 654 l 1
 521 748 l 1
 528 682 l 1
 300 596 l 1
EndSplineSet
EndChar

StartChar: egrave
Encoding: 232 232 168
Width: 462
Flags: MW
HStem: -10 66<233.5 287> 228 59<187 228 177 242> 447 63<311.5 381.5>
VStem: 91 75<117 158.5 117 228> 434 74<348 409>
LayerCount: 2
Fore
SplineSet
262 56 m 0
 336 56 427 78 427 78 c 1
 421 19 l 1
 421 19 332 -10 242 -10 c 0
 146 -10 91 40 91 142 c 0
 91 314 173 510 360 510 c 0
 450 510 508 474 508 388 c 0
 508 265 415 228 228 228 c 2
 177 228 l 1
 170 203 166 170 166 147 c 0
 166 87 205 56 262 56 c 0
187 287 m 1
 242 287 l 2
 373 287 434 309 434 387 c 0
 434 431 406 447 357 447 c 0
 266 447 215 383 187 287 c 1
258 741 m 1
 443 648 l 1
 410 596 l 1
 222 682 l 1
 258 741 l 1
EndSplineSet
EndChar

StartChar: ecircumflex
Encoding: 234 234 169
Width: 462
Flags: MW
HStem: -10 66<233.5 287> 228 59<187 228 177 242> 447 63<311.5 381.5> 587 151<220 428 375 439 375 514>
VStem: 91 75<117 158.5 117 228> 434 74<348 409>
LayerCount: 2
Fore
SplineSet
220 587 m 1
 375 738 l 1
 428 738 l 1
 514 587 l 1
 439 587 l 1
 391 673 l 1
 302 587 l 1
 220 587 l 1
262 56 m 0
 336 56 427 78 427 78 c 1
 421 19 l 1
 421 19 332 -10 242 -10 c 0
 146 -10 91 40 91 142 c 0
 91 314 173 510 360 510 c 0
 450 510 508 474 508 388 c 0
 508 265 415 228 228 228 c 2
 177 228 l 1
 170 203 166 170 166 147 c 0
 166 87 205 56 262 56 c 0
187 287 m 1
 242 287 l 2
 373 287 434 309 434 387 c 0
 434 431 406 447 357 447 c 0
 266 447 215 383 187 287 c 1
EndSplineSet
EndChar

StartChar: edieresis
Encoding: 235 235 170
Width: 462
Flags: MW
HStem: -10 66<233.5 287> 228 59<187 228 177 242> 447 63<311.5 381.5> 620 93<253 343 274 321 463 510>
VStem: 91 75<117 158.5 117 228> 434 74<348 409>
LayerCount: 2
Fore
SplineSet
253 620 m 1
 274 713 l 1
 343 713 l 1
 321 620 l 1
 253 620 l 1
443 620 m 1
 463 713 l 1
 532 713 l 1
 510 620 l 1
 443 620 l 1
262 56 m 0
 336 56 427 78 427 78 c 1
 421 19 l 1
 421 19 332 -10 242 -10 c 0
 146 -10 91 40 91 142 c 0
 91 314 173 510 360 510 c 0
 450 510 508 474 508 388 c 0
 508 265 415 228 228 228 c 2
 177 228 l 1
 170 203 166 170 166 147 c 0
 166 87 205 56 262 56 c 0
187 287 m 1
 242 287 l 2
 373 287 434 309 434 387 c 0
 434 431 406 447 357 447 c 0
 266 447 215 383 187 287 c 1
EndSplineSet
EndChar

StartChar: idieresis
Encoding: 239 239 171
Width: 206
Flags: MW
HStem: 0 21G<66 66 66 140> 480 20G<181 256 256 256> 620 93<103 194 125 172 313 360>
VStem: 66 316
LayerCount: 2
Fore
SplineSet
103 620 m 1
 125 713 l 1
 194 713 l 1
 172 620 l 1
 103 620 l 1
293 620 m 1
 313 713 l 1
 382 713 l 1
 360 620 l 1
 293 620 l 1
66 0 m 1
 181 500 l 1
 256 500 l 1
 140 0 l 1
 66 0 l 1
EndSplineSet
EndChar

StartChar: ntilde
Encoding: 241 241 172
Width: 498
Flags: MW
HStem: 614 66<465 482.5> 662 21G<324.5 350.5> 665 21G<558 558> 701 20G<553 553> 708 20G<333.5 373.5>
VStem: 66 492
LayerCount: 2
Fore
SplineSet
66 0 m 1x2c
 140 0 l 1
 217 332 l 1
 217 332 304 444 371 444 c 0
 419 444 439 416 439 369 c 0
 439 335 428 281 420 249 c 2
 362 0 l 1
 436 0 l 1
 495 254 l 2
 504 290 515 343 515 384 c 0
 515 459 477 510 397 510 c 0
 312 510 236 413 236 413 c 1
 254 500 l 1
 181 500 l 1
 66 0 l 1x2c
553 721 m 1x94
 558 665 l 1
 558 665 501 614 464 614 c 0x2c
 424 614 365 662 336 662 c 0
 313 662 256 619 256 619 c 1x4c
 253 675 l 1
 253 675 315 728 352 728 c 0x8c
 395 728 452 680 478 680 c 0
 498 680 553 721 553 721 c 1x94
EndSplineSet
EndChar

StartChar: oacute
Encoding: 243 243 173
Width: 494
Flags: MW
HStem: -10 65<230 317 230 341.5> 445 65<289.5 376.5>
VStem: 91 75<121.5 228 121.5 247> 441 75<266 372>
LayerCount: 2
Fore
SplineSet
343 510 m 0
 455 510 516 455 516 340 c 0
 516 157 421 -10 262 -10 c 0
 151 -10 91 39 91 154 c 0
 91 340 193 510 343 510 c 0
262 55 m 0
 372 55 441 191 441 341 c 0
 441 403 410 445 343 445 c 0
 236 445 166 303 166 153 c 0
 166 90 198 55 262 55 c 0
302 596 m 1
 295 654 l 1
 523 748 l 1
 530 682 l 1
 302 596 l 1
EndSplineSet
EndChar

StartChar: ograve
Encoding: 242 242 174
Width: 494
Flags: MW
HStem: -10 65<230 317 230 341.5> 445 65<289.5 376.5>
VStem: 91 75<121.5 228 121.5 247> 441 75<266 372>
LayerCount: 2
Fore
SplineSet
343 510 m 0
 455 510 516 455 516 340 c 0
 516 157 421 -10 262 -10 c 0
 151 -10 91 39 91 154 c 0
 91 340 193 510 343 510 c 0
262 55 m 0
 372 55 441 191 441 341 c 0
 441 403 410 445 343 445 c 0
 236 445 166 303 166 153 c 0
 166 90 198 55 262 55 c 0
286 741 m 1
 471 648 l 1
 438 596 l 1
 250 682 l 1
 286 741 l 1
EndSplineSet
EndChar

StartChar: ocircumflex
Encoding: 244 244 175
Width: 494
Flags: MW
HStem: -10 65<230 317 230 341.5> 445 65<289.5 376.5> 587 151<235 443 390 454 390 530>
VStem: 91 75<121.5 228 121.5 247> 441 75<266 372>
LayerCount: 2
Fore
SplineSet
235 587 m 1
 390 738 l 1
 443 738 l 1
 530 587 l 1
 454 587 l 1
 406 673 l 1
 317 587 l 1
 235 587 l 1
343 510 m 0
 455 510 516 455 516 340 c 0
 516 157 421 -10 262 -10 c 0
 151 -10 91 39 91 154 c 0
 91 340 193 510 343 510 c 0
262 55 m 0
 372 55 441 191 441 341 c 0
 441 403 410 445 343 445 c 0
 236 445 166 303 166 153 c 0
 166 90 198 55 262 55 c 0
EndSplineSet
EndChar

StartChar: odieresis
Encoding: 246 246 176
Width: 494
Flags: MW
HStem: -10 65<230 317 230 341.5> 445 65<289.5 376.5> 620 93<262 345 283 323 465 505>
VStem: 91 75<121.5 228 121.5 247> 441 75<266 372>
LayerCount: 2
Fore
SplineSet
343 510 m 0
 455 510 516 455 516 340 c 0
 516 157 421 -10 262 -10 c 0
 151 -10 91 39 91 154 c 0
 91 340 193 510 343 510 c 0
262 55 m 0
 372 55 441 191 441 341 c 0
 441 403 410 445 343 445 c 0
 236 445 166 303 166 153 c 0
 166 90 198 55 262 55 c 0
262 620 m 1
 283 713 l 1
 345 713 l 1
 323 620 l 1
 262 620 l 1
445 620 m 1
 465 713 l 1
 527 713 l 1
 505 620 l 1
 445 620 l 1
EndSplineSet
EndChar

StartChar: otilde
Encoding: 245 245 177
Width: 494
Flags: MW
HStem: -10 65<230 317 230 341.5> 445 65<289.5 376.5> 614 66<450 467.5> 662 21G<309.5 335.5> 665 21G<543 543> 701 20G<538 538> 708 20G<318.5 358.5>
VStem: 91 75<121.5 228 121.5 247> 441 75<266 372>
LayerCount: 2
Fore
SplineSet
343 510 m 0xcb80
 455 510 516 455 516 340 c 0
 516 157 421 -10 262 -10 c 0
 151 -10 91 39 91 154 c 0
 91 340 193 510 343 510 c 0xcb80
262 55 m 0
 372 55 441 191 441 341 c 0
 441 403 410 445 343 445 c 0
 236 445 166 303 166 153 c 0
 166 90 198 55 262 55 c 0
538 721 m 1xe580
 543 665 l 1
 543 665 486 614 449 614 c 0xcb80
 409 614 350 662 321 662 c 0
 298 662 241 619 241 619 c 1xd380
 238 675 l 1
 238 675 300 728 337 728 c 0xe380
 380 728 437 680 463 680 c 0
 483 680 538 721 538 721 c 1xe580
EndSplineSet
EndChar

StartChar: uacute
Encoding: 250 250 178
Width: 498
Flags: MW
HStem: -10 66<219 258.5> 0 21G<359 432 359 359> 480 20G<177 251 251 251 473 547 547 547>
VStem: 98 76<107.5 136.5>
LayerCount: 2
Fore
SplineSet
473 500 m 1xb0
 547 500 l 1
 432 0 l 1
 359 0 l 1x70
 377 87 l 1
 377 87 301 -10 216 -10 c 0
 137 -10 98 41 98 116 c 0
 98 157 109 210 118 246 c 2
 177 500 l 1
 251 500 l 1
 193 251 l 2
 185 219 174 165 174 131 c 0
 174 84 196 56 242 56 c 0
 309 56 396 168 396 168 c 1
 473 500 l 1xb0
313 596 m 1
 306 654 l 1
 534 748 l 1
 541 682 l 1
 313 596 l 1
EndSplineSet
EndChar

StartChar: ugrave
Encoding: 249 249 179
Width: 498
Flags: MW
HStem: -10 66<219 258.5> 0 21G<359 432 359 359> 480 20G<177 251 251 251 473 547 547 547>
VStem: 98 76<107.5 136.5>
LayerCount: 2
Fore
SplineSet
288 741 m 1xb0
 473 648 l 1
 440 596 l 1
 252 682 l 1
 288 741 l 1xb0
473 500 m 1
 547 500 l 1
 432 0 l 1
 359 0 l 1x70
 377 87 l 1
 377 87 301 -10 216 -10 c 0
 137 -10 98 41 98 116 c 0
 98 157 109 210 118 246 c 2
 177 500 l 1
 251 500 l 1
 193 251 l 2
 185 219 174 165 174 131 c 0
 174 84 196 56 242 56 c 0
 309 56 396 168 396 168 c 1
 473 500 l 1
EndSplineSet
EndChar

StartChar: ucircumflex
Encoding: 251 251 180
Width: 498
Flags: MW
HStem: -10 66<219 258.5> 0 21G<359 432 359 359> 480 20G<177 251 251 251 473 547 547 547> 587 151<220 428 375 439 375 514>
VStem: 98 76<107.5 136.5>
LayerCount: 2
Fore
SplineSet
220 587 m 1xb8
 375 738 l 1
 428 738 l 1
 514 587 l 1
 439 587 l 1
 391 673 l 1
 302 587 l 1
 220 587 l 1xb8
473 500 m 1
 547 500 l 1
 432 0 l 1
 359 0 l 1x78
 377 87 l 1
 377 87 301 -10 216 -10 c 0
 137 -10 98 41 98 116 c 0
 98 157 109 210 118 246 c 2
 177 500 l 1
 251 500 l 1
 193 251 l 2
 185 219 174 165 174 131 c 0
 174 84 196 56 242 56 c 0
 309 56 396 168 396 168 c 1
 473 500 l 1
EndSplineSet
EndChar

StartChar: udieresis
Encoding: 252 252 181
Width: 498
Flags: MW
HStem: -10 66<219 258.5> 0 21G<359 432 359 359> 480 20G<177 251 251 251 473 547 547 547> 620 93<248 339 270 317 458 505>
VStem: 98 76<107.5 136.5>
LayerCount: 2
Fore
SplineSet
248 620 m 1xb8
 270 713 l 1
 339 713 l 1
 317 620 l 1
 248 620 l 1xb8
438 620 m 1
 458 713 l 1
 527 713 l 1
 505 620 l 1
 438 620 l 1
473 500 m 1
 547 500 l 1
 432 0 l 1
 359 0 l 1x78
 377 87 l 1
 377 87 301 -10 216 -10 c 0
 137 -10 98 41 98 116 c 0
 98 157 109 210 118 246 c 2
 177 500 l 1
 251 500 l 1
 193 251 l 2
 185 219 174 165 174 131 c 0
 174 84 196 56 242 56 c 0
 309 56 396 168 396 168 c 1
 473 500 l 1
EndSplineSet
EndChar

StartChar: minus
Encoding: 8722 8722 182
Width: 560
Flags: MW
HStem: 217 68<124 551 124 551>
VStem: 124 427<217 285 217 285>
LayerCount: 2
Fore
SplineSet
124 217 m 1
 124 285 l 1
 551 285 l 1
 551 217 l 1
 124 217 l 1
EndSplineSet
EndChar

StartChar: multiply
Encoding: 215 215 183
Width: 560
Flags: MW
HStem: 42 418<177 498 498 498>
VStem: 128 418<90 90>
LayerCount: 2
Fore
SplineSet
177 459 m 1
 337 297 l 1
 498 460 l 1
 546 412 l 1
 384 251 l 1
 546 90 l 1
 498 42 l 1
 337 204 l 1
 177 42 l 1
 128 90 l 1
 291 251 l 1
 129 411 l 1
 177 459 l 1
EndSplineSet
EndChar

StartChar: dotlessi
Encoding: 305 305 184
Width: 207
Flags: MW
HStem: 0 21G<66 66 66 140> 480 20G<181 256 256 256>
VStem: 66 190
LayerCount: 2
Fore
SplineSet
66 0 m 1
 181 500 l 1
 256 500 l 1
 140 0 l 1
 66 0 l 1
EndSplineSet
EndChar

StartChar: iacute
Encoding: 237 237 185
Width: 206
Flags: MW
HStem: 0 21G<66 66 66 140> 480 20G<181 256 256 256>
VStem: 66 356
LayerCount: 2
Fore
SplineSet
66 0 m 1
 181 500 l 1
 256 500 l 1
 140 0 l 1
 66 0 l 1
194 596 m 1
 187 654 l 1
 415 748 l 1
 422 682 l 1
 194 596 l 1
EndSplineSet
EndChar

StartChar: igrave
Encoding: 236 236 186
Width: 206
Flags: MW
HStem: 0 21G<66 66 66 140> 480 20G<181 256 256 256>
VStem: 66 231
LayerCount: 2
Fore
SplineSet
66 0 m 1
 181 500 l 1
 256 500 l 1
 140 0 l 1
 66 0 l 1
112 741 m 1
 297 648 l 1
 264 596 l 1
 76 682 l 1
 112 741 l 1
EndSplineSet
EndChar

StartChar: icircumflex
Encoding: 238 238 187
Width: 206
Flags: MW
HStem: 0 21G<66 66 66 140> 480 20G<181 256 256 256> 587 151<84 292 239 303 239 379>
VStem: 66 313
LayerCount: 2
Fore
SplineSet
84 587 m 1
 239 738 l 1
 292 738 l 1
 379 587 l 1
 303 587 l 1
 255 673 l 1
 166 587 l 1
 84 587 l 1
66 0 m 1
 181 500 l 1
 256 500 l 1
 140 0 l 1
 66 0 l 1
EndSplineSet
EndChar

StartChar: germandbls
Encoding: 223 223 188
Width: 539
Flags: MW
HStem: -10 21G<300.5 398.5> -10 65<304 372.5 304 398.5> 0 21G<65 136 65 65> 663 21G<362 439> 708 20G<349.5 466.5>
VStem: 321 75<375.5 401 375.5 404.5> 472 76<147.5 205> 499 76<575 620>
LayerCount: 2
Fore
SplineSet
136 0 m 1x3d
 65 0 l 1
 190 529 l 2
 225 678 288 728 411 728 c 0
 522 728 575 684 575 608 c 0x3d
 575 530 541 486 479 456 c 0
 419 428 396 414 396 388 c 0
 396 363 406 352 458 320 c 0
 523 280 548 262 548 194 c 0
 548 70 468 -10 329 -10 c 0x5e
 272 -10 203 9 203 9 c 1x9e
 217 68 l 1
 217 68 283 55 325 55 c 0
 420 55 472 109 472 186 c 0x5e
 472 224 459 238 396 276 c 0
 338 311 321 335 321 375 c 0
 321 434 349 460 422 497 c 0
 478 526 499 551 499 599 c 0
 499 641 473 663 405 663 c 0
 319 663 282 623 258 520 c 2
 136 0 l 1x3d
EndSplineSet
EndChar

StartChar: ccedilla
Encoding: 231 231 189
Width: 406
Flags: MW
HStem: -211 55<200.5 227 200.5 247> -87 42<191 244> -10 65<248 279> -7 21G<209 209> 445 65<289.5 374.5> 490 20G<265.5 383.5>
VStem: 92 77<123.5 226 123.5 238>
LayerCount: 2
Fore
SplineSet
355 510 m 0xea
 412 510 480 491 480 491 c 1xe6
 461 433 l 1
 461 433 396 445 353 445 c 0
 226 445 169 296 169 156 c 0
 169 91 197 55 272 55 c 0
 311 55 384 70 384 70 c 1
 379 11 l 1
 379 11 310 -10 248 -10 c 1xea
 239 -45 l 1
 244 -45 l 2
 299 -45 340 -63 326 -124 c 0
 313 -184 276 -211 218 -211 c 0
 176 -211 138 -204 138 -204 c 1
 151 -153 l 1
 151 -153 188 -156 213 -156 c 0
 241 -156 257 -146 264 -120 c 0
 271 -92 252 -87 230 -87 c 2
 191 -87 l 1
 209 -7 l 1xda
 132 5 92 58 92 142 c 0
 92 334 176 510 355 510 c 0xea
EndSplineSet
EndChar

StartChar: lslash
Encoding: 322 322 190
Width: 270
Flags: MW
HStem: 0 21G<95 95 95 170> 698 20G<261 335 335 335>
VStem: 68 290<291 402>
LayerCount: 2
Fore
SplineSet
95 0 m 1
 159 278 l 1
 94 238 l 1
 68 291 l 1
 178 359 l 1
 261 718 l 1
 335 718 l 1
 265 413 l 1
 334 456 l 1
 358 402 l 1
 246 332 l 1
 170 0 l 1
 95 0 l 1
EndSplineSet
EndChar

StartChar: eth
Encoding: 240 240 191
Width: 517
Flags: MW
HStem: -9 74<223.5 316 223.5 323.5> 360 71<282 360> 695 21G<550 550> 701 20G<275 275>
VStem: 82 79 488 76
LayerCount: 2
Fore
SplineSet
393 594 m 1xdc
 279 520 l 1
 251 566 l 1
 338 622 l 1
 308 634 277 645 246 654 c 1
 275 721 l 1
 330 709 378 694 418 673 c 1
 523 741 l 1xdc
 550 695 l 1
 468 642 l 1xec
 553 577 582 481 553 357 c 0
 491 100 399 -9 248 -9 c 0
 117 -9 69 77 82 169 c 1
 95 328 206 431 338 431 c 0
 409 431 485 396 485 396 c 1
 501 492 458 553 393 594 c 1xdc
327 360 m 0
 237 360 167 279 161 172 c 0
 154 109 182 65 265 65 c 0
 367 65 430 167 470 324 c 1
 466 326 393 360 327 360 c 0
EndSplineSet
EndChar

StartChar: Thorn
Encoding: 222 222 192
Width: 549
Flags: MW
HStem: 0 21G<76 150 76 76> 120 74<195 337 178 354> 511.5 73.5
VStem: 531 75
LayerCount: 2
Fore
SplineSet
354 194 m 2
 448 194 499 265 523 359 c 0
 543 439 529 510 425 511 c 2
 270 512 l 1
 195 194 l 1
 354 194 l 2
337 120 m 2
 178 120 l 1
 150 0 l 1
 76 0 l 1
 240 696 l 1
 314 696 l 1
 287 585 l 1
 442 585 l 2
 586 585 624 482 598 359 c 0
 567 218 477 119 337 120 c 2
EndSplineSet
Position2: "'cpsp' Capital Spacing in Lateinisch lookup 0 subtable" dx=5 dy=0 dh=10 dv=0
EndChar

StartChar: oslash
Encoding: 248 248 193
Width: 494
Flags: MW
HStem: -8 65<253.5 318 253.5 342.5> 447 65<290.5 353.5>
VStem: 92 75<143 230 143 249> 442 75<268 355>
LayerCount: 2
Fore
SplineSet
344 512 m 0
 377 512 405 507 429 497 c 1
 496 605 l 1
 541 585 l 1
 469 472 l 1
 500 444 517 401 517 342 c 0
 517 159 422 -8 263 -8 c 0
 229 -8 200 -3 176 6 c 1
 104 -111 l 1
 60 -92 l 1
 137 30 l 1
 108 56 92 97 92 156 c 0
 92 342 194 512 344 512 c 0
263 57 m 0
 373 57 442 193 442 343 c 0
 442 367 437 389 427 406 c 1
 321 239 l 1
 214 66 l 1
 227 60 244 57 263 57 c 0
180 97 m 1
 283 259 l 1
 392 437 l 1
 379 444 363 447 344 447 c 0
 237 447 167 305 167 155 c 0
 167 131 171 112 180 97 c 1
EndSplineSet
EndChar

StartChar: zero.pnum
Encoding: 65540 -1 194
Width: 515
Flags: MW
HStem: -9 70<229.5 284.5> 439 70<348 399.5>
VStem: 81 82<131.5 215> 467 82<302 365>
LayerCount: 2
Fore
SplineSet
377 509 m 0
 501 509 549 451 549 342 c 0
 549 250 513 125 427 52 c 0
 382 14 322 -9 247 -9 c 0
 132 -9 81 49 81 154 c 0
 81 276 132 401 226 465 c 0
 268 494 319 509 377 509 c 0
361 439 m 0
 239 439 163 303 163 167 c 0
 163 96 193 61 266 61 c 0
 432 61 467 278 467 326 c 0
 467 404 438 439 361 439 c 0
EndSplineSet
Substitution2: "'frac' Diagonal Fractions in Lateinisch lookup 1 subtable" zerosuperior
EndChar

StartChar: one.pnum
Encoding: 65541 -1 195
Width: 324
Flags: MW
HStem: 0 21G<188 268 188 188> 480 20G<316 392 392 392>
VStem: 105 287<383 500>
LayerCount: 2
Fore
SplineSet
105 383 m 1
 316 500 l 1
 392 500 l 1
 268 0 l 1
 188 0 l 1
 289 408 l 1
 126 319 l 1
 105 383 l 1
EndSplineSet
Substitution2: "'frac' Diagonal Fractions in Lateinisch lookup 1 subtable" onesuperior
EndChar

StartChar: two.pnum
Encoding: 65542 -1 196
Width: 439
Flags: MW
HStem: 0 71<168 411> 437 72<298 342>
VStem: 398 87<353 397.5>
LayerCount: 2
Fore
SplineSet
411 0 m 1
 31 0 l 1
 47 68 l 1
 236 202 l 2
 312 254 398 323 398 381 c 0
 398 414 381 437 303 437 c 0
 241 437 140 420 139 419 c 2
 151 486 l 1
 151 486 258 509 338 509 c 0
 444 509 485 461 485 402 c 0
 485 304 418 245 344 194 c 2
 168 71 l 1
 424 71 l 1
 411 0 l 1
EndSplineSet
Substitution2: "'frac' Diagonal Fractions in Lateinisch lookup 1 subtable" twosuperior
EndChar

StartChar: three.pnum
Encoding: 65543 -1 197
Width: 452
Flags: MW
HStem: -9 21G<184.5 311> -9 71<198.5 285.5 198.5 311> 226 67<176 281 159 300> 439 70<306 361>
VStem: 378 76<140.5 193.5> 420 79<359.5 409>
LayerCount: 2
Fore
SplineSet
161 489 m 1x78
 161 489 267 509 345 509 c 0
 462 509 499 466 499 416 c 0x74
 499 303 414 269 377 264 c 1
 423 255 454 222 454 181 c 0
 454 88 394 -9 228 -9 c 0x78
 141 -9 34 11 34 11 c 1xb8
 59 77 l 1
 59 77 161 62 236 62 c 0
 335 62 378 112 378 169 c 0
 378 218 322 226 281 226 c 2x78
 159 226 l 1
 176 293 l 1
 300 293 l 2
 357 293 420 326 420 390 c 0
 420 428 395 439 327 439 c 0x74
 251 439 152 423 152 423 c 1
 161 489 l 1x78
EndSplineSet
Substitution2: "'frac' Diagonal Fractions in Lateinisch lookup 1 subtable" threesuperior
EndChar

StartChar: four.pnum
Encoding: 65544 -1 198
Width: 460
Flags: MW
HStem: 0 168<297 297 297 339 156 373> 100 68<156 321 156 398 415 459> 480 20G<311 400 400 400>
VStem: 48 428<100 168>
LayerCount: 2
Fore
SplineSet
297 0 m 1xb0
 321 100 l 1
 48 100 l 1
 63 160 l 1x70
 311 500 l 1
 400 500 l 1
 156 168 l 1
 339 168 l 1
 370 294 l 1
 446 294 l 1
 415 168 l 1
 476 168 l 1xb0
 459 100 l 1
 398 100 l 1x70
 373 0 l 1
 297 0 l 1xb0
EndSplineSet
Substitution2: "'frac' Diagonal Fractions in Lateinisch lookup 1 subtable" foursuperior
EndChar

StartChar: five.pnum
Encoding: 65545 -1 199
Width: 460
Flags: MW
HStem: -9 68<211.5 288.5 211.5 310> 251 65<288 330> 429 72<237 503 237 237>
VStem: 388 80<149.5 205.5>
LayerCount: 2
Fore
SplineSet
186 501 m 1
 521 501 l 1
 503 429 l 1
 237 429 l 1
 188 288 l 1
 188 288 261 316 315 316 c 0
 410 316 468 279 468 197 c 0
 468 78 386 -9 234 -9 c 0
 159 -9 40 15 40 15 c 1
 64 83 l 1
 64 83 178 59 245 59 c 0
 332 59 388 114 388 185 c 0
 388 226 367 251 293 251 c 0
 239 251 154 217 154 217 c 1
 100 230 l 1
 186 501 l 1
EndSplineSet
Substitution2: "'frac' Diagonal Fractions in Lateinisch lookup 1 subtable" fivesuperior
EndChar

StartChar: six.pnum
Encoding: 65546 -1 200
Width: 473
Flags: MW
HStem: -10 62<213.5 321.5 213.5 329> 252 63<305 350> 442 68<320.5 401.5> 490 20G<278.5 410>
VStem: 82 74<123 159 123 238> 407 75<175.5 209.5>
LayerCount: 2
Fore
SplineSet
532 489 m 1xdc
 510 428 l 1
 510 428 437 442 366 442 c 0
 275 442 209 395 179 279 c 1
 207 293 279 315 331 315 c 0
 450 315 482 273 482 202 c 0
 482 101 422 -10 236 -10 c 0
 126 -10 82 52 82 141 c 0
 82 335 181 510 376 510 c 0xec
 444 510 532 489 532 489 c 1xdc
309 252 m 0
 243 252 164 216 164 216 c 1
 161 200 156 169 156 149 c 0
 156 97 174 52 253 52 c 0
 390 52 407 159 407 192 c 0
 407 227 391 252 309 252 c 0
EndSplineSet
Substitution2: "'frac' Diagonal Fractions in Lateinisch lookup 1 subtable" sixsuperior
EndChar

StartChar: seven.pnum
Encoding: 65547 -1 201
Width: 398
Flags: MW
HStem: 432 69<121 490 139 392>
VStem: 88 402
LayerCount: 2
Fore
SplineSet
121 432 m 1
 139 501 l 1
 490 501 l 1
 466 402 l 1
 150 -16 l 1
 88 19 l 1
 385 408 l 1
 392 432 l 1
 121 432 l 1
EndSplineSet
Substitution2: "'frac' Diagonal Fractions in Lateinisch lookup 1 subtable" sevensuperior
EndChar

StartChar: eight.pnum
Encoding: 65548 -1 202
Width: 489
Flags: MW
HStem: -10 70<216 311 216 331> 228 66<267 339 250 355> 443 66<285.5 385.5>
VStem: 61 84<97 142.5> 132 80<337 363 337 390> 408 80<140 186.5> 456 82<368 407.5>
LayerCount: 2
Fore
SplineSet
366 509 m 0xea
 482 509 538 465 538 407 c 0xf2
 538 329 486 284 414 264 c 1
 468 241 488 208 488 171 c 0
 488 73 425 -10 237 -10 c 0
 122 -10 61 33 61 95 c 0xf4
 61 190 125 237 195 264 c 1
 143 290 132 321 132 350 c 0
 132 430 205 509 366 509 c 0xea
254 60 m 0xf4
 368 60 408 107 408 173 c 0
 408 200 385 216 339 228 c 1
 250 228 l 1
 191 216 145 179 145 114 c 0
 145 80 178 60 254 60 c 0xf4
346 443 m 0xea
 224 443 212 377 212 349 c 0
 212 325 221 309 267 294 c 1
 355 294 l 1
 414 311 456 334 456 391 c 0
 456 424 425 443 346 443 c 0xea
EndSplineSet
Substitution2: "'frac' Diagonal Fractions in Lateinisch lookup 1 subtable" eightsuperior
EndChar

StartChar: nine.pnum
Encoding: 65549 -1 203
Width: 472
Flags: MW
HStem: -10 21G -10 68<185 267 185 308.5> 190 63<237.5 283.5> 448 62<264.5 372.5>
VStem: 106 75<298 329.5 298 348> 431 73<341 377>
LayerCount: 2
Fore
SplineSet
55 11 m 1xbc
 77 72 l 1
 77 72 150 58 220 58 c 0
 314 58 386 116 411 226 c 1
 372 210 311 190 256 190 c 0
 138 190 106 239 106 303 c 0
 106 393 167 510 351 510 c 0
 460 510 504 447 504 358 c 0
 504 160 406 -10 211 -10 c 0x7c
 143 -10 55 11 55 11 c 1xbc
278 253 m 0
 344 253 425 288 425 288 c 1
 429 305 431 331 431 351 c 0
 431 403 412 448 333 448 c 0
 196 448 181 346 181 313 c 0
 181 283 197 253 278 253 c 0
EndSplineSet
Substitution2: "'frac' Diagonal Fractions in Lateinisch lookup 1 subtable" ninesuperior
EndChar

StartChar: brokenbar
Encoding: 166 166 204
Width: 318
Flags: MW
HStem: -222 21G<179 253 179 179> 698 20G<179 253 253 253>
VStem: 179 74<-222 156 -222 156 344 718>
LayerCount: 2
Fore
SplineSet
179 718 m 1
 253 718 l 1
 253 344 l 1
 179 344 l 1
 179 718 l 1
179 156 m 1
 253 156 l 1
 253 -222 l 1
 179 -222 l 1
 179 156 l 1
EndSplineSet
EndChar

StartChar: plusminus
Encoding: 177 177 205
Width: 560
Flags: MW
HStem: 38 68<103 552 103 552> 293 68<103 291 103 291 361 552>
VStem: 291 70<166 293 166 293 361 487>
LayerCount: 2
Fore
SplineSet
103 293 m 1
 103 361 l 1
 291 361 l 1
 291 487 l 1
 361 487 l 1
 361 361 l 1
 552 361 l 1
 552 293 l 1
 361 293 l 1
 361 166 l 1
 291 166 l 1
 291 293 l 1
 103 293 l 1
103 106 m 1
 552 106 l 1
 552 38 l 1
 103 38 l 1
 103 106 l 1
EndSplineSet
EndChar

StartChar: pi
Encoding: 960 960 206
Width: 560
Flags: MW
HStem: -4 65<550 585 550 585> 0 21G<163 239 163 163> 435 65<194 463 267 423 267 267>
VStem: 423 75<154 435 435 435>
LayerCount: 2
Fore
SplineSet
423 154 m 2xb0
 423 435 l 1
 267 435 l 1
 239 0 l 1
 163 0 l 1x70
 194 435 l 1
 129 434 86 422 86 422 c 1
 86 485 l 1
 86 485 145 500 228 500 c 2
 463 500 l 2
 536 500 594 514 594 514 c 1
 594 451 l 1
 594 451 566 439 498 437 c 1
 498 154 l 2
 498 79 515 61 585 61 c 1
 585 -4 l 1
 452 -4 423 26 423 154 c 2xb0
EndSplineSet
EndChar

StartChar: bullet
Encoding: 8226 8226 207
Width: 485
Flags: MW
HStem: 106 286<175 425 175 425>
VStem: 175 250<106 392 106 392>
LayerCount: 2
Fore
SplineSet
175 106 m 1
 175 392 l 1
 425 392 l 1
 425 106 l 1
 175 106 l 1
EndSplineSet
EndChar

StartChar: ordfeminine
Encoding: 170 170 208
Width: 344
Flags: MW
HStem: 357 49<364.5 405> 357 54<219.5 227.5> 492.5 45.5 603 56<299 324.5>
VStem: 135 69
LayerCount: 2
Fore
SplineSet
412 560 m 2x78
 380 422 l 1
 384 413 394 408 405 406 c 1
 392 357 l 1xb8
 337 357 326 366 315 383 c 1
 315 383 254 357 201 357 c 0
 149 357 125 393 138 449 c 0
 152 504 184 531 253 535 c 2
 340 541 l 1
 346 563 l 2
 353 593 341 603 308 603 c 0
 270 603 192 596 192 596 c 1
 200 644 l 1
 200 644 274 659 324 659 c 0
 396 659 429 636 412 560 c 2x78
330 495 m 1
 255 490 l 2
 225 488 210 477 204 450 c 0
 198 423 208 411 231 411 c 0
 266 411 314 428 314 428 c 1x78
 330 495 l 1
EndSplineSet
EndChar

StartChar: ordmasculine
Encoding: 186 186 209
Width: 341
Flags: MW
HStem: 355 60<246 287.5 246 297> 600 59<285.5 326.5>
VStem: 146 67<456 464> 360 66
LayerCount: 2
Fore
SplineSet
321 659 m 0
 376 659 422 637 426 584 c 0
 430 556 426 532 420 507 c 0
 396 400 344 355 250 355 c 0
 182 355 144 391 146 456 c 0
 146 472 149 491 154 511 c 0
 180 618 231 659 321 659 c 0
264 415 m 0
 311 415 336 439 354 510 c 0
 358 527 360 542 360 555 c 0
 360 588 344 600 309 600 c 0
 262 600 237 578 221 512 c 0
 216 493 213 477 213 463 c 0
 213 430 228 415 264 415 c 0
EndSplineSet
EndChar

StartChar: quotedblleft
Encoding: 8220 8220 210
Width: 338
Flags: MW
HStem: 469 223<140 307 140 307 298 298 298 307 251 374>
VStem: 140 325<469 692>
LayerCount: 2
Fore
SplineSet
251 692 m 1
 307 692 l 1
 216 469 l 1
 140 469 l 1
 251 692 l 1
409 692 m 1
 465 692 l 1
 374 469 l 1
 298 469 l 1
 409 692 l 1
EndSplineSet
EndChar

StartChar: asciitilde
Encoding: 126 126 211
Width: 560
Flags: MW
HStem: 195 69<419.5 461 419.5 469> 257 68<221.5 263>
VStem: 127 427<249 272>
LayerCount: 2
Fore
SplineSet
544 310 m 1xa0
 554 249 l 1
 554 249 496 195 442 195 c 0xa0
 386 195 284 257 242 257 c 0
 201 257 137 210 137 210 c 1
 127 272 l 1
 127 272 189 325 243 325 c 0x60
 299 325 397 264 442 264 c 0
 480 264 544 310 544 310 c 1xa0
EndSplineSet
EndChar

StartChar: emdash
Encoding: 8212 8212 212
Width: 1094
Flags: MW
HStem: 235 66<109 1109 109 1109>
VStem: 109 1000<235 301 235 301>
LayerCount: 2
Fore
SplineSet
109 301 m 1
 1109 301 l 1
 1109 235 l 1
 109 235 l 1
 109 301 l 1
EndSplineSet
Substitution2: "'case' Case-Sensitive Forms in Lateinisch lookup 4 subtable" emdash.cap
EndChar

StartChar: six
Encoding: 54 54 213
Width: 560
Flags: MW
HStem: -10 67<266 367.5 266 388> 347 67<349.5 413> 604 67<383 491>
VStem: 112 79<169 232.5 169 309.5> 491 78<188.5 276.5>
LayerCount: 2
Fore
SplineSet
633 651 m 1
 610 588 l 1
 610 588 530 604 452 604 c 0
 314 604 246 479 214 371 c 1
 214 371 306 414 393 414 c 0
 515 414 569 352 569 254 c 0
 569 98 473 -10 303 -10 c 0
 183 -10 112 67 112 217 c 0
 112 402 225 671 470 671 c 0
 548 671 633 651 633 651 c 1
371 347 m 0
 288 347 201 307 201 307 c 1
 196 289 191 250 191 215 c 0
 191 123 226 57 306 57 c 0
 429 57 491 137 491 240 c 0
 491 313 455 347 371 347 c 0
EndSplineSet
Substitution2: "'frac' Diagonal Fractions in Lateinisch lookup 1 subtable" sixsuperior
EndChar

StartChar: nine
Encoding: 57 57 214
Width: 560
Flags: MW
HStem: -10 21G -10 71<215 310.5 215 320.5> 249 69<289.5 342> 600 71<365 465>
VStem: 143 77 526 69
LayerCount: 2
Fore
SplineSet
78 11 m 1xbc
 104 78 l 1
 104 78 176 61 254 61 c 0
 367 61 455 133 494 285 c 1
 494 285 375 249 309 249 c 0
 188 249 127 309 147 441 c 0
 168 564 271 671 427 671 c 0
 570 671 618 556 585 362 c 1
 547 98 405 -10 236 -10 c 0x7c
 162 -10 78 11 78 11 c 1xbc
333 318 m 0
 398 318 512 350 512 350 c 1
 546 501 520 600 410 600 c 0
 320 600 240 542 224 445 c 0
 207 355 246 318 333 318 c 0
EndSplineSet
Substitution2: "'frac' Diagonal Fractions in Lateinisch lookup 1 subtable" ninesuperior
EndChar

StartChar: yen
Encoding: 165 165 215
Width: 560
Flags: MW
HStem: 0 21G<243 319 243 243> 160 67<122 280 106 295 372 526 122 356> 310 67<141 282 157 282 157 307 454 561>
VStem: 106 587<160 661>
LayerCount: 2
Fore
SplineSet
141 310 m 1
 157 377 l 1
 282 377 l 1
 168 661 l 1
 250 661 l 1
 363 382 l 1
 594 661 l 1
 693 661 l 1
 454 377 l 1
 576 377 l 1
 561 310 l 1
 401 310 l 1
 387 293 l 1
 372 227 l 1
 542 227 l 1
 526 160 l 1
 356 160 l 1
 319 0 l 1
 243 0 l 1
 280 160 l 1
 106 160 l 1
 122 227 l 1
 295 227 l 1
 311 294 l 1
 307 310 l 1
 141 310 l 1
EndSplineSet
EndChar

StartChar: less
Encoding: 60 60 216
Width: 560
Flags: MW
HStem: 13 474<523 523>
VStem: 106 417<13 284 13 284>
LayerCount: 2
Fore
SplineSet
523 409 m 1
 184 252 l 1
 523 92 l 1
 523 13 l 1
 106 218 l 1
 106 284 l 1
 523 487 l 1
 523 409 l 1
EndSplineSet
EndChar

StartChar: greater
Encoding: 62 62 217
Width: 560
Flags: MW
HStem: 13 474<151 151>
VStem: 151 417<13 284 92 284 218 487 218 487>
LayerCount: 2
Fore
SplineSet
490 252 m 1
 151 409 l 1
 151 487 l 1
 568 284 l 1
 568 218 l 1
 151 13 l 1
 151 92 l 1
 490 252 l 1
EndSplineSet
EndChar

StartChar: bracketleft
Encoding: 91 91 218
Width: 276
Flags: MW
HStem: -122 65<116 218> 682 65<289 408 289 289>
VStem: 25 398
LayerCount: 2
Fore
SplineSet
228 747 m 1
 423 747 l 1
 408 682 l 1
 289 682 l 1
 116 -57 l 1
 235 -57 l 1
 218 -122 l 1
 25 -122 l 1
 228 747 l 1
EndSplineSet
Substitution2: "'case' Case-Sensitive Forms in Lateinisch lookup 4 subtable" bracketleft.cap
EndChar

StartChar: backslash
Encoding: 92 92 219
Width: 426
Flags: MW
HStem: 0 21G<320 320> 693 21G<188 188>
VStem: 188 210
LayerCount: 2
Fore
SplineSet
398 8 m 1
 320 0 l 1
 188 693 l 1
 267 701 l 1
 398 8 l 1
EndSplineSet
EndChar

StartChar: bracketright
Encoding: 93 93 220
Width: 276
Flags: MW
HStem: -121 65<13 132 13 193 -2 132> 683 65<203 305 186 396>
VStem: -2 398
LayerCount: 2
Fore
SplineSet
193 -121 m 1
 -2 -121 l 1
 13 -56 l 1
 132 -56 l 1
 305 683 l 1
 186 683 l 1
 203 748 l 1
 396 748 l 1
 193 -121 l 1
EndSplineSet
Substitution2: "'case' Case-Sensitive Forms in Lateinisch lookup 4 subtable" bracketright.cap
EndChar

StartChar: bar
Encoding: 124 124 221
Width: 312
Flags: MW
HStem: -222 21G<176 176 176 250> 698 20G<176 250 250 250>
VStem: 176 74<-222 718 -222 718>
LayerCount: 2
Fore
SplineSet
176 -222 m 1
 176 718 l 1
 250 718 l 1
 250 -222 l 1
 176 -222 l 1
EndSplineSet
EndChar

StartChar: notequal
Encoding: 8800 8800 222
Width: 560
Flags: MW
HStem: -4 21G<183 183> 124 69<121 239 121 269 339 553 121 309> 309 69<121 349 121 319 121 390 420 553> 489 20G<478 478>
VStem: 121 432<124 193 124 193 309 378 124 378>
LayerCount: 2
Fore
SplineSet
121 309 m 1
 121 378 l 1
 349 378 l 1
 417 533 l 1
 478 509 l 1
 420 378 l 1
 553 378 l 1
 553 309 l 1
 390 309 l 1
 339 193 l 1
 553 193 l 1
 553 124 l 1
 309 124 l 1
 243 -28 l 1
 183 -4 l 1
 239 124 l 1
 121 124 l 1
 121 193 l 1
 269 193 l 1
 319 309 l 1
 121 309 l 1
EndSplineSet
EndChar

StartChar: mu
Encoding: 181 181 223
Width: 560
Flags: MW
HStem: -222 21G<43 43 43 117> -10 66<252 291.5> 0 21G<392 465 392 392> 480 20G<210 284 284 284 506 580 580 580>
VStem: 43 537
LayerCount: 2
Fore
SplineSet
43 -222 m 1xd8
 158 278 l 1
 210 500 l 1
 284 500 l 1
 232 278 l 1
 233 278 l 1
 215 200 l 2
 210 176 207 150 207 131 c 0
 207 84 229 56 275 56 c 0xd8
 342 56 429 168 429 168 c 1
 506 500 l 1
 580 500 l 1
 465 0 l 1
 392 0 l 1xb8
 410 87 l 1
 410 87 334 -10 249 -10 c 0
 216 -10 191 -1 172 14 c 1
 117 -222 l 1
 43 -222 l 1xd8
EndSplineSet
EndChar

StartChar: ae
Encoding: 230 230 224
Width: 749
Flags: MW
HStem: -10 67<164.5 196> -10 70<498.5 550.5> 218 61 244 61 437 73<329.5 388.5> 442 68<608 652.5>
VStem: 63 76 362 79 712 73
LayerCount: 2
Fore
SplineSet
531 60 m 0x6b80
 599 60 704 69 704 69 c 1
 691 6 l 1
 691 6 590 -10 511 -10 c 0
 446 -10 404 9 382 44 c 1
 331 22 226 -10 166 -10 c 0
 78 -10 50 66 67 144 c 0
 86 242 153 277 241 291 c 0
 292 299 343 303 392 305 c 1x5b80
 407 349 430 437 347 437 c 0
 277 437 167 426 167 426 c 1
 179 495 l 1
 179 495 293 510 366 510 c 0
 422 510 465 485 475 436 c 1
 517 487 575 510 641 510 c 0
 734 510 783 465 785 375 c 0
 785 342 781 308 771 272 c 2
 756 217 l 1
 451 219 l 1
 444 190 440 163 441 140 c 0
 443 90 466 60 531 60 c 0x6b80
190 57 m 0x9b80
 238 57 318 79 366 95 c 1
 356 144 368 193 380 244 c 1
 328 240 281 235 242 230 c 0
 191 222 155 197 142 146 c 0
 133 108 139 57 190 57 c 0x9b80
464 280 m 1x6780
 701 278 l 1
 710 312 713 340 712 364 c 0
 710 418 681 442 624 442 c 0
 542 442 491 393 464 280 c 1x6780
EndSplineSet
EndChar

StartChar: florin
Encoding: 402 402 225
Width: 560
Flags: MW
HStem: -235 61 359 72<213 300 197 317 390 530 213 374> 615 71<475 519>
VStem: 26 592
LayerCount: 2
Fore
SplineSet
374 359 m 1
 272 -67 l 2
 240 -201 185 -243 97 -243 c 0
 65 -243 26 -235 26 -235 c 1
 41 -171 l 1
 41 -171 79 -174 105 -174 c 0
 149 -174 179 -146 199 -63 c 2
 300 359 l 1
 197 359 l 1
 213 431 l 1
 317 431 l 1
 329 482 l 1
 370 638 416 686 507 686 c 0
 547 686 605 680 618 677 c 1
 602 611 l 1
 602 611 533 615 505 615 c 0
 445 615 422 566 399 467 c 2
 390 431 l 1
 547 431 l 1
 530 359 l 1
 374 359 l 1
EndSplineSet
EndChar

StartChar: oe
Encoding: 339 339 226
Width: 799
Flags: MW
HStem: -10 69<225.5 288> 218 61 441 69<302.5 379>
VStem: 89 73 446 66 763 73
LayerCount: 2
Fore
SplineSet
581 60 m 0
 648 60 754 69 754 69 c 1
 742 6 l 1
 742 6 641 -10 560 -10 c 0
 482 -10 440 20 426 74 c 1
 385 17 331 -10 245 -10 c 0
 141 -10 93 29 89 110 c 0
 86 156 92 204 105 257 c 0
 144 420 208 510 367 510 c 0
 448 510 493 480 508 416 c 1
 551 482 613 510 689 510 c 0
 782 510 833 467 836 379 c 0
 837 350 834 314 823 274 c 2
 806 217 l 1
 498 219 l 1
 491 188 486 161 487 139 c 0
 490 87 517 60 581 60 c 0
260 59 m 0
 377 59 405 146 433 258 c 0
 442 294 450 334 443 374 c 0
 435 420 407 441 351 441 c 0
 254 441 209 384 179 257 c 0
 167 205 159 164 162 132 c 0
 164 82 191 59 260 59 c 0
512 280 m 1
 751 278 l 1
 760 313 764 342 763 365 c 0
 762 418 733 439 675 439 c 0
 593 439 539 393 512 280 c 1
EndSplineSet
EndChar

StartChar: daggerdbl
Encoding: 8225 8225 227
Width: 481
Flags: MW
HStem: 113 75.5 421.5 76.5
VStem: 72 478<113 498>
LayerCount: 2
Fore
SplineSet
187 -75 m 1
 231 113 l 1
 72 113 l 1
 89 189 l 1
 248 188 l 1
 303 421 l 1
 146 421 l 1
 163 498 l 1
 321 496 l 1
 366 686 l 1
 436 686 l 1
 392 498 l 1
 550 498 l 1
 532 421 l 1
 374 422 l 1
 319 189 l 1
 477 189 l 1
 459 113 l 1
 301 114 l 1
 256 -75 l 1
 187 -75 l 1
EndSplineSet
EndChar

StartChar: quotedbl
Encoding: 34 34 228
Width: 313
Flags: MW
HStem: 466 228<273 303 221 360>
VStem: 221 139
LayerCount: 2
Fore
SplineSet
303 466 m 1
 221 466 l 1
 273 694 l 1
 360 694 l 1
 303 466 l 1
EndSplineSet
EndChar

StartChar: quotesingle
Encoding: 39 39 229
Width: 162
Flags: MW
HStem: 466 228<206 220 154 277>
VStem: 154 123
LayerCount: 2
Fore
SplineSet
220 466 m 1
 154 466 l 1
 206 694 l 1
 277 694 l 1
 220 466 l 1
EndSplineSet
EndChar

StartChar: parenleft
Encoding: 40 40 230
Width: 227
Flags: MW
HStem: -124 872<102 378 102 378>
VStem: 81 77<42.5 264 42.5 275.5>
LayerCount: 2
Fore
SplineSet
307 748 m 1
 378 748 l 1
 378 748 158 415 158 113 c 0
 158 -28 173 -124 173 -124 c 1
 102 -124 l 1
 102 -124 81 -37 81 113 c 0
 81 438 307 748 307 748 c 1
EndSplineSet
Substitution2: "'case' Case-Sensitive Forms in Lateinisch lookup 4 subtable" parenleft.cap
EndChar

StartChar: parenright
Encoding: 41 41 231
Width: 227
Flags: MW
HStem: -118 872<-6 270 -6 270>
VStem: 214 77<366 587.5>
LayerCount: 2
Fore
SplineSet
65 -118 m 1
 -6 -118 l 1
 -6 -118 214 215 214 517 c 0
 214 658 199 754 199 754 c 1
 270 754 l 1
 270 754 291 667 291 517 c 0
 291 192 65 -118 65 -118 c 1
EndSplineSet
Substitution2: "'case' Case-Sensitive Forms in Lateinisch lookup 4 subtable" parenright.cap
EndChar

StartChar: comma
Encoding: 44 44 232
Width: 183
Flags: MW
HStem: -129 240<-12 169 -12 169>
VStem: -12 181
LayerCount: 2
Fore
SplineSet
49 -129 m 1
 -12 -129 l 1
 86 111 l 1
 169 111 l 1
 49 -129 l 1
EndSplineSet
EndChar

StartChar: hyphen
Encoding: 45 45 233
Width: 337
Flags: MW
HStem: 233 69<98 362 115 345>
VStem: 98 264<233 302>
LayerCount: 2
Fore
SplineSet
98 233 m 1
 115 302 l 1
 362 302 l 1
 345 233 l 1
 98 233 l 1
EndSplineSet
EndChar

StartChar: period
Encoding: 46 46 234
Width: 168
Flags: MW
HStem: 0 111<46 148 72 122>
VStem: 46 102
LayerCount: 2
Fore
SplineSet
46 0 m 1
 72 111 l 1
 148 111 l 1
 122 0 l 1
 46 0 l 1
EndSplineSet
EndChar

StartChar: colon
Encoding: 58 58 235
Width: 171
Flags: MW
HStem: 0 111<47 149 73 123> 330 111<123 225 149 199>
VStem: 47 178
LayerCount: 2
Fore
SplineSet
123 330 m 1
 149 441 l 1
 225 441 l 1
 199 330 l 1
 123 330 l 1
47 0 m 1
 73 111 l 1
 149 111 l 1
 123 0 l 1
 47 0 l 1
EndSplineSet
EndChar

StartChar: semicolon
Encoding: 59 59 236
Width: 201
Flags: MW
HStem: 330 111<142 244 168 218>
VStem: -2 246
LayerCount: 2
Fore
SplineSet
-2 -129 m 1
 59 -129 l 1
 179 111 l 1
 96 111 l 1
 -2 -129 l 1
142 330 m 1
 168 441 l 1
 244 441 l 1
 218 330 l 1
 142 330 l 1
EndSplineSet
EndChar

StartChar: equal
Encoding: 61 61 237
Width: 560
Flags: MW
HStem: 124 69<122 554 122 554> 309 69<122 554 122 554>
VStem: 122 432<124 193 124 193 309 378 124 378>
LayerCount: 2
Fore
SplineSet
122 309 m 1
 122 378 l 1
 554 378 l 1
 554 309 l 1
 122 309 l 1
122 124 m 1
 122 193 l 1
 554 193 l 1
 554 124 l 1
 122 124 l 1
EndSplineSet
EndChar

StartChar: question
Encoding: 63 63 238
Width: 414
Flags: MW
HStem: 1 116<141 243 166 217> 634 68<306 354>
VStem: 424 80<532 592>
LayerCount: 2
Fore
SplineSet
504 571 m 0
 504 472 465 433 340 336 c 0
 292 299 268 266 262 235 c 2
 254 196 l 1
 183 196 l 1
 183 196 184 229 190 258 c 0
 198 302 231 342 291 388 c 0
 390 466 424 498 424 566 c 0
 424 618 385 634 323 634 c 0
 263 634 179 616 179 616 c 1
 185 677 l 1
 185 677 273 702 339 702 c 0
 435 702 504 666 504 571 c 0
141 1 m 1
 166 117 l 1
 243 117 l 1
 217 1 l 1
 141 1 l 1
EndSplineSet
EndChar

StartChar: underscore
Encoding: 95 95 239
Width: 577
Flags: MW
HStem: -152 73<46 477 30 494>
VStem: 30 464<-152 -79>
LayerCount: 2
Fore
SplineSet
46 -79 m 1
 494 -79 l 1
 477 -152 l 1
 30 -152 l 1
 46 -79 l 1
EndSplineSet
EndChar

StartChar: braceleft
Encoding: 123 123 240
Width: 313
Flags: MW
HStem: -127 68<252 252>
VStem: 108 74<-13 16.5> 155 75<202 224.5>
LayerCount: 2
Fore
SplineSet
230 222 m 0xa0
 230 182 182 62 182 10 c 0
 182 -36 211 -59 271 -59 c 1
 252 -127 l 1
 158 -125 108 -86 108 -12 c 0xc0
 108 45 155 165 155 204 c 0
 155 245 133 267 83 285 c 1
 97 344 l 1
 188 368 205 397 218 459 c 0
 226 495 239 577 247 599 c 0
 280 705 339 748 460 753 c 1
 448 685 l 1
 359 680 326 640 310 570 c 0
 306 549 292 469 288 450 c 0
 269 366 238 335 167 312 c 1
 204 295 230 272 230 222 c 0xa0
EndSplineSet
Substitution2: "'case' Case-Sensitive Forms in Lateinisch lookup 4 subtable" braceleft.cap
EndChar

StartChar: braceright
Encoding: 125 125 241
Width: 312
Flags: MW
HStem: 682 68<204 204 204 215>
VStem: 226 75<398.5 421> 274 74<606.5 636>
LayerCount: 2
Fore
SplineSet
226 401 m 0xc0
 226 441 274 561 274 613 c 0
 274 659 245 682 185 682 c 1
 204 750 l 1
 298 748 348 709 348 635 c 0xa0
 348 578 301 458 301 419 c 0
 301 378 323 356 373 338 c 1
 359 279 l 1
 268 255 251 226 238 164 c 0
 230 128 217 46 209 24 c 0
 176 -82 117 -125 -4 -130 c 1
 8 -62 l 1
 97 -57 130 -17 146 53 c 0
 150 74 164 154 168 173 c 0
 187 257 218 288 289 311 c 1
 252 328 226 351 226 401 c 0xc0
EndSplineSet
Substitution2: "'case' Case-Sensitive Forms in Lateinisch lookup 4 subtable" braceright.cap
EndChar

StartChar: cent
Encoding: 162 162 242
Width: 560
Flags: MW
HStem: 48 59 393 189<413 420>
VStem: 156 76
LayerCount: 2
Fore
SplineSet
257 -80 m 1
 284 36 l 1
 152 39 141 145 167 248 c 0
 203 388 281 459 385 463 c 1
 413 582 l 1
 476 582 l 1
 447 462 l 1
 487 459 539 452 539 452 c 1
 519 386 l 1
 519 386 438 393 402 393 c 0
 313 393 264 340 241 248 c 0
 221 166 223 107 335 107 c 0
 376 107 459 113 459 113 c 1
 445 48 l 1
 445 48 388 41 348 40 c 1
 320 -80 l 1
 257 -80 l 1
EndSplineSet
EndChar

StartChar: quoteleft
Encoding: 8216 8216 243
Width: 181
Flags: MW
HStem: 468 223<141 308 141 308>
VStem: 141 167
LayerCount: 2
Fore
SplineSet
252 691 m 1
 308 691 l 1
 217 468 l 1
 141 468 l 1
 252 691 l 1
EndSplineSet
EndChar

StartChar: quoteright
Encoding: 8217 8217 244
Width: 181
Flags: MW
HStem: 469 223<143 310 143 310>
VStem: 143 167
LayerCount: 2
Fore
SplineSet
199 469 m 1
 143 469 l 1
 234 692 l 1
 310 692 l 1
 199 469 l 1
EndSplineSet
EndChar

StartChar: divide
Encoding: 247 247 245
Width: 560
Flags: MW
HStem: 30 101<300 375 300 375> 281 73<178 235 178 235 441 497>
VStem: 235 206<354 402 354 402> 300 75<30 131 30 131>
LayerCount: 2
Fore
SplineSet
178 281 m 1xd0
 178 354 l 1
 235 354 l 1
 235 402 l 1
 441 402 l 1
 441 354 l 1
 497 354 l 1
 497 281 l 1xe0
 178 281 l 1xd0
300 30 m 1xd0
 300 131 l 1
 375 131 l 1
 375 30 l 1
 300 30 l 1xd0
EndSplineSet
EndChar

StartChar: Euro
Encoding: 8364 8364 246
Width: 560
Flags: MW
HStem: -10 65<305 374> 209 62<114 152 100 158 234 495> 376 61<153 180 138 200 153 257 279 533> 606 65<435.5 518>
VStem: 152 76<180 183 183 209 140.5 209> 158 76<271 271>
LayerCount: 2
Fore
SplineSet
502 72 m 1xf8
 497 11 l 1
 497 11 412 -10 336 -10 c 0
 212 -10 152 56 152 180 c 2
 152 209 l 1
 100 209 l 1
 114 271 l 1xf8
 158 271 l 1
 162 305 170 341 180 376 c 1
 138 376 l 1
 153 437 l 1
 200 437 l 1
 251 565 343 671 485 671 c 0
 561 671 644 649 644 649 c 1
 628 591 l 1
 628 591 554 606 482 606 c 0
 389 606 321 533 279 437 c 1
 547 437 l 1
 533 376 l 1
 257 376 l 1
 246 342 239 306 234 271 c 1xf4
 509 271 l 1
 495 209 l 1
 228 209 l 1
 228 183 l 2
 228 98 264 55 346 55 c 0
 422 55 502 72 502 72 c 1xf8
EndSplineSet
EndChar

StartChar: ampersand
Encoding: 38 38 247
Width: 635
Flags: MW
HStem: -10 66<237.5 309 237.5 311.5> -7 21G<583 583> 638 64<403 462>
VStem: 75 78<120.5 204.5 120.5 216.5> 254 77<488 543.5 486.5 570> 509 77<537 597>
LayerCount: 2
Fore
SplineSet
443 702 m 0xbc
 531 702 586 666 586 579 c 0
 586 476 522 412 389 361 c 1
 500 209 l 1
 520 241 545 296 559 344 c 1
 631 344 l 1
 612 278 573 201 542 157 c 1
 635 39 l 1
 583 -7 l 1x7c
 495 106 l 1
 432 31 359 -10 264 -10 c 0
 127 -10 75 48 75 150 c 0
 75 283 138 355 281 409 c 1
 263 443 254 468 254 508 c 0
 254 632 328 702 443 702 c 0xbc
275 56 m 0
 343 56 411 94 456 156 c 1
 310 360 l 1
 191 314 153 252 153 157 c 0
 153 84 200 56 275 56 c 0
331 506 m 0
 331 467 341 435 360 407 c 1
 470 453 509 499 509 575 c 0
 509 619 484 638 440 638 c 0
 366 638 331 581 331 506 c 0
EndSplineSet
EndChar

StartChar: asterisk
Encoding: 42 42 248
Width: 413
Flags: MW
HStem: 511 50<362 492 362 492 361 492>
VStem: 174 318<458 511>
LayerCount: 2
Fore
SplineSet
492 511 m 1
 361 511 l 1
 401 386 l 1
 353 371 l 1
 311 497 l 1
 204 418 l 1
 174 458 l 1
 282 537 l 1
 176 614 l 1
 206 656 l 1
 313 578 l 1
 353 704 l 1
 403 688 l 1
 362 561 l 1
 492 561 l 1
 492 511 l 1
EndSplineSet
EndChar

StartChar: sterling
Encoding: 163 163 249
Width: 560
Flags: MW
HStem: 0 65<95 191 267 402 80 191> 355 66<197 256 181 272 348 527 197 333> 612 67<433.5 496.5> 662 21G<607 607>
VStem: 80 527
LayerCount: 2
Fore
SplineSet
607 662 m 1xd8
 591 604 l 1
 591 604 521 612 472 612 c 0
 395 612 380 552 358 464 c 2
 348 421 l 1
 542 421 l 1
 527 355 l 1
 333 355 l 1
 267 65 l 1
 405 65 l 1
 481 82 l 1
 480 18 l 1
 402 0 l 1
 80 0 l 1
 95 65 l 1
 191 65 l 1
 256 355 l 1
 181 355 l 1
 197 421 l 1
 272 421 l 1
 284 472 l 2
 315 605 351 679 473 679 c 0xe8
 526 679 607 662 607 662 c 1xd8
EndSplineSet
EndChar

StartChar: paragraph
Encoding: 182 182 250
Width: 557
Flags: MW
HStem: 0 21G<208 272 208 208 382 445 382 382> 636 64<424 533 424 424 596 596 596 665>
VStem: 145 534<436.5 700>
LayerCount: 2
Fore
SplineSet
382 0 m 1
 533 636 l 1
 424 636 l 1
 272 0 l 1
 208 0 l 1
 289 332 l 1
 184 333 145 400 145 473 c 0
 145 580 237 700 369 700 c 2
 679 700 l 1
 665 636 l 1
 596 636 l 1
 445 0 l 1
 382 0 l 1
EndSplineSet
EndChar

StartChar: dagger
Encoding: 8224 8224 251
Width: 444
Flags: MW
HStem: 421.5 76.5
VStem: 126 404<421 498>
LayerCount: 2
Fore
SplineSet
126 421 m 1
 143 498 l 1
 301 496 l 1
 346 686 l 1
 416 686 l 1
 372 498 l 1
 530 498 l 1
 513 421 l 1
 354 422 l 1
 236 -75 l 1
 167 -75 l 1
 283 421 l 1
 126 421 l 1
EndSplineSet
EndChar

StartChar: percent
Encoding: 37 37 252
Width: 560
Flags: MW
HStem: -9 21G<206 206> 0 51<408.5 445.5 408.5 448.5> 228 52<453 489.5> 473 177<233 314> 694 21G<565 565> 702 21G<274 342>
VStem: 216 115 332 60 506 62
LayerCount: 2
Fore
SplineSet
295 650 m 0xba80
 333 650 338 622 323 563 c 0
 308 504 289 473 251 473 c 0
 215 473 209 505 224 564 c 0
 239 622 259 650 295 650 c 0xba80
155 6 m 1
 515 709 l 1
 565 694 l 1
 206 -9 l 1
 155 6 l 1
164 564 m 0
 140 467 171 422 239 422 c 0
 305 422 359 467 383 563 c 0
 407 660 376 702 308 702 c 0x7580
 240 702 188 660 164 564 c 0
340 142 m 0x6580
 364 238 416 280 484 280 c 0
 551 280 584 238 560 141 c 0
 536 45 482 0 415 0 c 0
 348 0 316 45 340 142 c 0x6580
400 142 m 0
 385 82 390 51 427 51 c 0
 464 51 484 82 499 141 c 0
 514 200 508 228 471 228 c 0
 435 228 415 200 400 142 c 0
EndSplineSet
EndChar

StartChar: plus
Encoding: 43 43 253
Width: 560
Flags: MW
HStem: 217 68<113 302 113 302 371 562>
VStem: 302 69<20 217 20 217 285 480>
LayerCount: 2
Fore
SplineSet
113 217 m 1
 113 285 l 1
 302 285 l 1
 302 480 l 1
 371 480 l 1
 371 285 l 1
 562 285 l 1
 562 217 l 1
 371 217 l 1
 371 20 l 1
 302 20 l 1
 302 217 l 1
 113 217 l 1
EndSplineSet
EndChar

StartChar: asciicircum
Encoding: 94 94 254
Width: 560
Flags: MW
HStem: 319 341<116 369 116 369 302 560 302 480>
VStem: 116 444<319 319>
LayerCount: 2
Fore
SplineSet
480 319 m 1
 336 586 l 1
 196 319 l 1
 116 319 l 1
 302 660 l 1
 369 660 l 1
 560 319 l 1
 480 319 l 1
EndSplineSet
EndChar

StartChar: quotedblright
Encoding: 8221 8221 255
Width: 339
Flags: MW
HStem: 469 223<143 310 143 310 301 301 301 310 234 357>
VStem: 143 325<469 692>
LayerCount: 2
Fore
SplineSet
199 469 m 1
 143 469 l 1
 234 692 l 1
 310 692 l 1
 199 469 l 1
357 469 m 1
 301 469 l 1
 392 692 l 1
 468 692 l 1
 357 469 l 1
EndSplineSet
EndChar

StartChar: zerosuperior
Encoding: 8304 8304 256
Width: 280
Flags: MW
HStem: 468 59<242 260.5> 741 59<311 331>
VStem: 156 67 349 67
LayerCount: 2
Fore
SplineSet
327 800 m 0
 400 800 436 759 405 634 c 0
 387 562 363 517 330 492 c 0
 306 473 277 468 244 468 c 0
 170 468 136 509 167 634 c 0
 185 706 210 751 242 776 c 0
 266 794 295 800 327 800 c 0
312 741 m 0
 276 741 253 715 233 634 c 0
 211 548 225 527 259 527 c 0
 294 527 317 548 339 634 c 0
 359 714 350 741 312 741 c 0
EndSplineSet
Substitution2: "Single Substitution lookup 5 subtable" zeroinferior
EndChar

StartChar: onesuperior
Encoding: 185 185 257
Width: 280
Flags: MW
HStem: 478 312<240 381 240 381>
VStem: 202 179<720 790>
LayerCount: 2
Fore
SplineSet
202 720 m 1
 321 790 l 1
 381 790 l 1
 304 478 l 1
 240 478 l 1
 300 720 l 1
 220 673 l 1
 202 720 l 1
EndSplineSet
Substitution2: "Single Substitution lookup 5 subtable" oneinferior
EndChar

StartChar: twosuperior
Encoding: 178 178 258
Width: 280
Flags: MW
HStem: 478 58<238 351> 739 61<305.5 310.5>
VStem: 141 267
LayerCount: 2
Fore
SplineSet
351 478 m 1
 141 478 l 1
 155 534 l 1
 265 620 l 2
 303 650 328 673 336 703 c 0
 343 729 325 739 296 739 c 0
 267 739 209 729 209 729 c 1
 221 788 l 1
 221 788 284 800 327 800 c 0
 396 800 420 771 404 709 c 0
 392 663 363 632 314 596 c 2
 238 536 l 1
 365 536 l 1
 351 478 l 1
EndSplineSet
Substitution2: "Single Substitution lookup 5 subtable" twoinferior
EndChar

StartChar: threesuperior
Encoding: 179 179 259
Width: 280
Flags: MW
HStem: 468 59<233.5 272.5 233.5 281.5> 610 54<226 279 213 291> 741 59<303.5 319.5>
VStem: 314 71 341 72
LayerCount: 2
Fore
SplineSet
220 790 m 1xf0
 220 790 282 800 325 800 c 0
 396 800 424 774 410 716 c 0xe8
 398 667 359 646 351 641 c 1
 378 631 393 617 380 565 c 0
 363 499 315 468 248 468 c 0
 199 468 138 478 138 478 c 1
 156 534 l 1
 156 534 212 527 255 527 c 0
 290 527 308 543 314 568 c 0
 323 600 306 610 279 610 c 2xf0
 213 610 l 1
 226 664 l 1
 291 664 l 2
 309 664 334 683 341 708 c 0
 346 731 336 741 303 741 c 0xe8
 261 741 210 734 210 734 c 1
 220 790 l 1xf0
EndSplineSet
Substitution2: "Single Substitution lookup 5 subtable" threeinferior
EndChar

StartChar: foursuperior
Encoding: 8308 8308 260
Width: 280
Flags: MW
HStem: 526 59<228 286 228 350 364 377>
VStem: 145 246<526 585>
LayerCount: 2
Fore
SplineSet
275 478 m 1
 286 526 l 1
 145 526 l 1
 158 581 l 1
 280 790 l 1
 352 790 l 1
 228 585 l 1
 301 585 l 1
 329 673 l 1
 387 673 l 1
 364 585 l 1
 391 585 l 1
 377 526 l 1
 350 526 l 1
 338 478 l 1
 275 478 l 1
EndSplineSet
Substitution2: "Single Substitution lookup 5 subtable" fourinferior
EndChar

StartChar: fivesuperior
Encoding: 8309 8309 261
Width: 280
Flags: MW
HStem: 470 57<236 270 236 282.5> 621 56<298 299.5> 662 21G<253 253> 733 57<277 410 277 277>
VStem: 319 69
LayerCount: 2
Fore
SplineSet
237 790 m 1xb8
 424 790 l 1
 410 733 l 1
 277 733 l 1
 253 662 l 1xb8
 253 662 282 677 314 677 c 0
 368 677 402 649 384 578 c 0
 363 498 316 470 249 470 c 0
 201 470 145 483 145 483 c 1
 164 538 l 1
 164 538 216 527 256 527 c 0
 284 527 308 543 316 576 c 0
 325 610 312 621 287 621 c 0
 260 621 231 606 231 606 c 1
 183 612 l 1xd8
 237 790 l 1xb8
EndSplineSet
Substitution2: "Single Substitution lookup 5 subtable" fiveinferior
EndChar

StartChar: sixsuperior
Encoding: 8310 8310 262
Width: 280
Flags: MW
HStem: 468 57<245 280 245 287> 628 55<302 307> 742 58<307.5 345>
VStem: 163 65 326 68
LayerCount: 2
Fore
SplineSet
428 790 m 1
 411 736 l 1
 411 736 362 742 328 742 c 0
 287 742 263 721 249 669 c 1
 266 675 292 683 312 683 c 0
 382 683 405 644 389 580 c 0
 370 506 324 468 250 468 c 0
 173 468 146 521 173 630 c 0
 203 750 254 800 341 800 c 0
 378 800 428 790 428 790 c 1
290 628 m 0
 263 628 234 612 234 612 c 1
 222 558 227 525 263 525 c 0
 297 525 315 549 323 579 c 0
 332 615 324 628 290 628 c 0
EndSplineSet
Substitution2: "Single Substitution lookup 5 subtable" sixinferior
EndChar

StartChar: sevensuperior
Encoding: 8311 8311 263
Width: 280
Flags: MW
HStem: 728 62<199 422 214 331>
VStem: 165 257
LayerCount: 2
Fore
SplineSet
199 728 m 1
 214 790 l 1
 422 790 l 1
 403 713 l 1
 237 469 l 1
 165 484 l 1
 326 707 l 1
 331 728 l 1
 199 728 l 1
EndSplineSet
Substitution2: "Single Substitution lookup 5 subtable" seveninferior
EndChar

StartChar: eightsuperior
Encoding: 8312 8312 264
Width: 280
Flags: MW
HStem: 468 55<242.5 276 242.5 281.5> 613 52<280 295 268 308> 745 55<296.5 331.5>
VStem: 189 67 323 69 354 70
LayerCount: 2
Fore
SplineSet
328 800 m 0xf4
 403 800 435 771 421 715 c 0xf4
 410 671 386 648 358 641 c 1
 381 633 401 615 389 567 c 0xf8
 369 489 318 468 245 468 c 0
 173 468 132 493 149 563 c 0
 162 613 193 633 219 642 c 1
 198 650 181 669 192 715 c 0
 207 774 251 800 328 800 c 0xf4
259 523 m 0
 293 523 314 536 323 567 c 0
 329 593 319 605 295 613 c 1
 268 613 l 1xf8
 240 605 224 593 217 564 c 0
 209 536 226 523 259 523 c 0
314 745 m 0
 279 745 262 733 256 709 c 0
 250 685 258 674 280 665 c 1
 308 665 l 1
 336 674 348 685 354 708 c 0
 360 733 349 745 314 745 c 0
EndSplineSet
Substitution2: "Single Substitution lookup 5 subtable" eightinferior
EndChar

StartChar: ninesuperior
Encoding: 8313 8313 265
Width: 280
Flags: MW
HStem: 468 59<224.5 265.5 224.5 279.5> 586 53<268 273.5> 742 58<296 329>
VStem: 346 65
LayerCount: 2
Fore
SplineSet
145 480 m 1
 162 533 l 1
 162 533 206 527 243 527 c 0
 288 527 312 552 324 598 c 0
 325 598 288 586 259 586 c 0
 195 586 168 625 185 690 c 0
 202 761 254 800 324 800 c 0
 403 800 427 744 400 633 c 0
 370 513 325 468 234 468 c 0
 193 468 145 480 145 480 c 1
282 639 m 0
 305 639 340 654 340 654 c 1
 353 710 347 742 311 742 c 0
 281 742 259 725 250 691 c 0
 243 661 254 639 282 639 c 0
EndSplineSet
Substitution2: "Single Substitution lookup 5 subtable" nineinferior
EndChar

StartChar: questiondown
Encoding: 191 191 266
Width: 407
Flags: MW
HStem: -201 68<173 221> 384 116<310 361 284 386>
VStem: 23 80<-91 -31 -91 -20.5>
LayerCount: 2
Fore
SplineSet
23 -70 m 0
 23 29 62 68 187 165 c 0
 235 202 259 235 265 266 c 2
 273 305 l 1
 344 305 l 1
 344 305 343 272 337 243 c 0
 329 199 296 159 236 113 c 0
 137 35 103 3 103 -65 c 0
 103 -117 142 -133 204 -133 c 0
 264 -133 348 -115 348 -115 c 1
 342 -176 l 1
 342 -176 254 -201 188 -201 c 0
 92 -201 23 -165 23 -70 c 0
386 500 m 1
 361 384 l 1
 284 384 l 1
 310 500 l 1
 386 500 l 1
EndSplineSet
Substitution2: "'case' Case-Sensitive Forms in Lateinisch lookup 4 subtable" questiondown.cap
EndChar

StartChar: questiondown.cap
Encoding: 65550 -1 267
Width: 392
Flags: MW
HStem: -2 68<210 258> 484 20G<310 381 381 381> 583 116<347 398 321 423>
VStem: 60 80<108 168 108 178.5>
LayerCount: 2
Fore
SplineSet
60 129 m 0
 60 228 99 267 224 364 c 0
 272 401 296 434 302 465 c 2
 310 504 l 1
 381 504 l 1
 381 504 380 471 374 442 c 0
 366 398 333 358 273 312 c 0
 174 234 140 202 140 134 c 0
 140 82 179 66 241 66 c 0
 301 66 385 84 385 84 c 1
 379 23 l 1
 379 23 291 -2 225 -2 c 0
 129 -2 60 34 60 129 c 0
423 699 m 1
 398 583 l 1
 321 583 l 1
 347 699 l 1
 423 699 l 1
EndSplineSet
EndChar

StartChar: ellipsis
Encoding: 8230 8230 268
Width: 640
Flags: MW
HStem: 0 111<47 149 73 123 309 359 544 594>
VStem: 47 573<0 111>
LayerCount: 2
Fore
SplineSet
47 0 m 1
 73 111 l 1
 149 111 l 1
 123 0 l 1
 47 0 l 1
283 0 m 1
 309 111 l 1
 385 111 l 1
 359 0 l 1
 283 0 l 1
518 0 m 1
 544 111 l 1
 620 111 l 1
 594 0 l 1
 518 0 l 1
EndSplineSet
EndChar

StartChar: endash.cap
Encoding: 65551 -1 269
Width: 594
Flags: MW
HStem: 265 66<115 615 115 615>
VStem: 115 500<265 331 265 331>
LayerCount: 2
Fore
SplineSet
115 331 m 1
 615 331 l 1
 615 265 l 1
 115 265 l 1
 115 331 l 1
EndSplineSet
Position2: "'cpsp' Capital Spacing in Lateinisch lookup 0 subtable" dx=5 dy=0 dh=10 dv=0
EndChar

StartChar: emdash.cap
Encoding: 65552 -1 270
Width: 1094
Flags: MW
HStem: 265 66<115 1115 115 1115>
VStem: 115 1000<265 331 265 331>
LayerCount: 2
Fore
SplineSet
115 331 m 1
 1115 331 l 1
 1115 265 l 1
 115 265 l 1
 115 331 l 1
EndSplineSet
Position2: "'cpsp' Capital Spacing in Lateinisch lookup 0 subtable" dx=5 dy=0 dh=10 dv=0
EndChar

StartChar: periodcentered
Encoding: 183 183 271
Width: 170
Flags: MW
HStem: 245 117<103 206 129 180>
VStem: 103 103
LayerCount: 2
Fore
SplineSet
103 245 m 1
 129 362 l 1
 206 362 l 1
 180 245 l 1
 103 245 l 1
EndSplineSet
Substitution2: "'case' Case-Sensitive Forms in Lateinisch lookup 4 subtable" periodcentered.cap
EndChar

StartChar: periodcentered.cap
Encoding: 65553 -1 272
Width: 170
Flags: MW
HStem: 279 117<111 214 137 188>
VStem: 111 103
LayerCount: 2
Fore
SplineSet
111 279 m 1
 137 396 l 1
 214 396 l 1
 188 279 l 1
 111 279 l 1
EndSplineSet
Position2: "'cpsp' Capital Spacing in Lateinisch lookup 0 subtable" dx=5 dy=0 dh=10 dv=0
EndChar

StartChar: currency
Encoding: 164 164 273
Width: 560
Flags: MW
HStem: 71 71 361 71
VStem: 157 71 448 70
LayerCount: 2
Fore
SplineSet
507 30 m 1
 437 101 l 1
 377 61 299 61 238 101 c 1
 168 30 l 1
 116 83 l 1
 186 153 l 1
 147 213 147 291 186 351 c 1
 116 421 l 1
 168 474 l 1
 238 403 l 1
 299 442 377 442 437 403 c 1
 507 474 l 1
 560 421 l 1
 489 350 l 1
 528 290 528 213 489 153 c 1
 560 83 l 1
 507 30 l 1
260 174 m 0
 302 132 373 132 416 174 c 0
 458 217 458 287 416 330 c 0
 373 372 302 372 260 330 c 0
 217 287 217 217 260 174 c 0
EndSplineSet
EndChar

StartChar: perthousand
Encoding: 8240 8240 274
Width: 816
Flags: MW
HStem: -9 21G<207 207> 0 51<410 446.5 410 449.5 667.5 704.5> 228 52<454.5 491.5 712 748.5> 473 177<231 312> 695 21G<570 570> 701 21G<272 340>
VStem: 215 114 333 61 508 61 591 60 765 62
LayerCount: 2
Fore
SplineSet
293 650 m 0x9a
 331 650 337 622 322 563 c 0
 307 503 287 473 249 473 c 0
 213 473 208 504 222 563 c 0
 237 622 257 650 293 650 c 0x9a
156 4 m 1
 519 709 l 1
 570 695 l 1
 207 -9 l 1
 156 4 l 1
162 563 m 0
 138 466 169 421 237 421 c 0
 303 421 358 466 382 563 c 0
 406 659 374 701 306 701 c 0x15
 238 701 186 659 162 563 c 0
341 142 m 0x6180
 365 238 417 280 485 280 c 0
 553 280 585 238 561 141 c 0
 537 45 483 0 416 0 c 0
 349 0 317 45 341 142 c 0x6180
402 142 m 0
 387 82 392 51 428 51 c 0
 465 51 486 82 501 141 c 0
 515 200 510 228 473 228 c 0
 436 228 416 200 402 142 c 0
599 142 m 0x6060
 623 238 675 280 743 280 c 0
 810 280 843 238 819 141 c 0
 795 45 741 0 674 0 c 0
 607 0 575 45 599 142 c 0x6060
659 142 m 0
 644 82 649 51 686 51 c 0
 723 51 743 82 758 141 c 0
 773 200 767 228 730 228 c 0
 694 228 674 200 659 142 c 0
EndSplineSet
EndChar

StartChar: lessequal
Encoding: 8804 8804 275
Width: 560
Flags: MW
HStem: 22 68<113 535 113 535>
VStem: 113 422<22 90 22 90 22 352 22 352>
LayerCount: 2
Fore
SplineSet
535 422 m 1
 200 320 l 1
 535 210 l 1
 535 134 l 1
 113 284 l 1
 113 352 l 1
 535 497 l 1
 535 422 l 1
113 22 m 1
 113 90 l 1
 535 90 l 1
 535 22 l 1
 113 22 l 1
EndSplineSet
EndChar

StartChar: greaterequal
Encoding: 8805 8805 276
Width: 560
Flags: MW
HStem: 22 68<127 549 127 549>
VStem: 127 422<22 90 22 90 22 210 22 210 22 497 22 497>
LayerCount: 2
Fore
SplineSet
462 320 m 1
 127 422 l 1
 127 497 l 1
 549 352 l 1
 549 284 l 1
 127 134 l 1
 127 210 l 1
 462 320 l 1
549 90 m 1
 549 22 l 1
 127 22 l 1
 127 90 l 1
 549 90 l 1
EndSplineSet
EndChar

StartChar: logicalnot
Encoding: 172 172 277
Width: 560
Flags: MW
HStem: 274 68<123 481 123 551>
VStem: 481 70<117 274 274 274>
LayerCount: 2
Fore
SplineSet
123 342 m 1
 551 342 l 1
 551 117 l 1
 481 117 l 1
 481 274 l 1
 123 274 l 1
 123 342 l 1
EndSplineSet
EndChar

StartChar: Delta
Encoding: 8710 8710 278
Width: 560
Flags: MW
HStem: 0 66<162 460 162 538> 595 65<298 324 298 298>
VStem: 85 453<0 56 0 57 0 57>
LayerCount: 2
Fore
SplineSet
85 57 m 1
 244 660 l 1
 379 660 l 1
 538 56 l 1
 538 0 l 1
 85 0 l 1
 85 57 l 1
324 595 m 1
 298 595 l 1
 162 66 l 1
 460 66 l 1
 324 595 l 1
EndSplineSet
EndChar

StartChar: Omega
Encoding: 8486 8486 279
Width: 560
Flags: MW
HStem: -9 66<99 220 99 295 99 220 446 568> 602 69<271 395>
VStem: 112 80<305.5 439 300.5 474> 446 122<-9 57> 475 80<305.5 439>
LayerCount: 2
Fore
SplineSet
99 57 m 1xe8
 220 57 l 1
 220 57 112 235 112 376 c 0
 112 572 160 671 333 671 c 0
 506 671 555 572 555 376 c 0xe8
 555 235 446 57 446 57 c 1
 568 57 l 1
 568 -9 l 1xf0
 371 -9 l 1
 371 48 l 1
 371 48 475 245 475 356 c 0
 475 522 457 602 333 602 c 0
 209 602 192 522 192 356 c 0
 192 245 295 48 295 48 c 1
 295 -9 l 1
 99 -9 l 1
 99 57 l 1xe8
EndSplineSet
EndChar

StartChar: oslashacute
Encoding: 511 511 280
Width: 494
Flags: MW
HStem: -10 65<252.5 317 252.5 341.5> 445 65<289.5 353>
VStem: 91 75<140.5 228 140.5 247> 441 75<266 352.5>
LayerCount: 2
Fore
SplineSet
343 510 m 0
 377 510 406 505 431 494 c 1
 499 605 l 1
 544 585 l 1
 470 469 l 1
 500 441 516 398 516 340 c 0
 516 157 421 -10 262 -10 c 0
 229 -10 201 -6 177 3 c 1
 107 -111 l 1
 63 -92 l 1
 138 26 l 1
 107 52 91 94 91 154 c 0
 91 340 193 510 343 510 c 0
180 93 m 1
 286 259 l 1
 394 434 l 1
 380 441 363 445 343 445 c 0
 236 445 166 303 166 153 c 0
 166 128 171 108 180 93 c 1
262 55 m 0
 372 55 441 191 441 341 c 0
 441 364 436 385 427 401 c 1
 324 239 l 1
 215 63 l 1
 228 58 243 55 262 55 c 0
294 596 m 1
 287 654 l 1
 515 748 l 1
 522 682 l 1
 294 596 l 1
EndSplineSet
EndChar

StartChar: exclamdown
Encoding: 161 161 281
Width: 178
Flags: MW
HStem: 389 111<164 215 139 240>
VStem: 4 236
LayerCount: 2
Fore
SplineSet
187 270 m 1
 81 -200 l 1
 4 -200 l 1
 120 270 l 1
 187 270 l 1
240 500 m 1
 215 389 l 1
 139 389 l 1
 164 500 l 1
 240 500 l 1
EndSplineSet
Substitution2: "'case' Case-Sensitive Forms in Lateinisch lookup 4 subtable" exclamdown.cap
EndChar

StartChar: exclamdown.cap
Encoding: 65554 -1 282
Width: 189
Flags: MW
HStem: -8 21G<54 131 54 54> 581 111<214 265 189 290>
VStem: 54 236
LayerCount: 2
Fore
SplineSet
237 462 m 1
 131 -8 l 1
 54 -8 l 1
 170 462 l 1
 237 462 l 1
290 692 m 1
 265 581 l 1
 189 581 l 1
 214 692 l 1
 290 692 l 1
EndSplineSet
EndChar

StartChar: quotesinglbase
Encoding: 8218 8218 283
Width: 172
Flags: MW
HStem: -134 223<-14 153 -14 153>
VStem: -14 167
LayerCount: 2
Fore
SplineSet
42 -134 m 1
 -14 -134 l 1
 77 89 l 1
 153 89 l 1
 42 -134 l 1
EndSplineSet
EndChar

StartChar: parenleft.cap
Encoding: 65555 -1 284
Width: 226
Flags: MW
HStem: -94 872<109 385 109 385>
VStem: 88 77<72.5 294 72.5 305.5>
LayerCount: 2
Fore
SplineSet
314 778 m 1
 385 778 l 1
 385 778 165 445 165 143 c 0
 165 2 180 -94 180 -94 c 1
 109 -94 l 1
 109 -94 88 -7 88 143 c 0
 88 468 314 778 314 778 c 1
EndSplineSet
Position2: "'cpsp' Capital Spacing in Lateinisch lookup 0 subtable" dx=5 dy=0 dh=10 dv=0
EndChar

StartChar: parenright.cap
Encoding: 65556 -1 285
Width: 228
Flags: MW
HStem: -88 872<2 278 2 278>
VStem: 222 77<396 617.5>
LayerCount: 2
Fore
SplineSet
73 -88 m 1
 2 -88 l 1
 2 -88 222 245 222 547 c 0
 222 688 207 784 207 784 c 1
 278 784 l 1
 278 784 299 697 299 547 c 0
 299 222 73 -88 73 -88 c 1
EndSplineSet
Position2: "'cpsp' Capital Spacing in Lateinisch lookup 0 subtable" dx=5 dy=0 dh=10 dv=0
EndChar

StartChar: bracketleft.cap
Encoding: 65557 -1 286
Width: 276
Flags: MW
HStem: -92 65<123 225> 712 65<296 415 296 296>
VStem: 32 398
LayerCount: 2
Fore
SplineSet
235 777 m 1
 430 777 l 1
 415 712 l 1
 296 712 l 1
 123 -27 l 1
 242 -27 l 1
 225 -92 l 1
 32 -92 l 1
 235 777 l 1
EndSplineSet
Position2: "'cpsp' Capital Spacing in Lateinisch lookup 0 subtable" dx=5 dy=0 dh=10 dv=0
EndChar

StartChar: bracketright.cap
Encoding: 65558 -1 287
Width: 275
Flags: MW
HStem: -91 65<19 138 19 199 4 138> 713 65<209 311 192 402>
VStem: 4 398
LayerCount: 2
Fore
SplineSet
199 -91 m 1
 4 -91 l 1
 19 -26 l 1
 138 -26 l 1
 311 713 l 1
 192 713 l 1
 209 778 l 1
 402 778 l 1
 199 -91 l 1
EndSplineSet
Position2: "'cpsp' Capital Spacing in Lateinisch lookup 0 subtable" dx=5 dy=0 dh=10 dv=0
EndChar

StartChar: braceleft.cap
Encoding: 65559 -1 288
Width: 313
Flags: MW
HStem: -97 68<259 259>
VStem: 115 74<17 46.5> 162 75<232 254.5>
LayerCount: 2
Fore
SplineSet
237 252 m 0xa0
 237 212 189 92 189 40 c 0
 189 -6 218 -29 278 -29 c 1
 259 -97 l 1
 165 -95 115 -56 115 18 c 0xc0
 115 75 162 195 162 234 c 0
 162 275 140 297 90 315 c 1
 104 374 l 1
 195 398 212 427 225 489 c 0
 233 525 246 607 254 629 c 0
 287 735 346 778 467 783 c 1
 455 715 l 1
 366 710 333 670 317 600 c 0
 313 579 299 499 295 480 c 0
 276 396 245 365 174 342 c 1
 211 325 237 302 237 252 c 0xa0
EndSplineSet
Position2: "'cpsp' Capital Spacing in Lateinisch lookup 0 subtable" dx=5 dy=0 dh=10 dv=0
EndChar

StartChar: braceright.cap
Encoding: 65560 -1 289
Width: 313
Flags: MW
HStem: 712 68<212 212 212 223>
VStem: 234 75<428.5 451> 282 74<636.5 666>
LayerCount: 2
Fore
SplineSet
234 431 m 0xc0
 234 471 282 591 282 643 c 0
 282 689 253 712 193 712 c 1
 212 780 l 1
 306 778 356 739 356 665 c 0xa0
 356 608 309 488 309 449 c 0
 309 408 331 386 381 368 c 1
 367 309 l 1
 276 285 259 256 246 194 c 0
 238 158 225 76 217 54 c 0
 184 -52 125 -95 4 -100 c 1
 16 -32 l 1
 105 -27 138 13 154 83 c 0
 158 104 172 184 176 203 c 0
 195 287 226 318 297 341 c 1
 260 358 234 381 234 431 c 0xc0
EndSplineSet
Position2: "'cpsp' Capital Spacing in Lateinisch lookup 0 subtable" dx=5 dy=0 dh=10 dv=0
EndChar

StartChar: grave.cap
Encoding: 65561 -1 290
Width: 490
Flags: MW
HStem: 780 150
VStem: 324 222<836 866>
LayerCount: 2
Fore
SplineSet
361 930 m 1
 546 836 l 1
 512 780 l 1
 324 866 l 1
 361 930 l 1
EndSplineSet
EndChar

StartChar: caron.cap
Encoding: 65562 -1 291
Width: 439
Flags: MW
HStem: 792 137<274 419 274 372>
VStem: 274 302<929 929>
LayerCount: 2
Fore
SplineSet
576 929 m 1
 419 792 l 1
 372 792 l 1
 274 929 l 1
 348 929 l 1
 406 847 l 1
 499 929 l 1
 576 929 l 1
EndSplineSet
EndChar

StartChar: tilde.cap
Encoding: 65563 -1 292
Width: 433
Flags: MW
HStem: 809 66<490.5 508.5> 865 65<346 365>
VStem: 260 330<868 870>
LayerCount: 2
Fore
SplineSet
587 921 m 1xa0
 590 868 l 1
 590 868 527 809 490 809 c 0xa0
 446 809 381 865 349 865 c 0
 327 865 262 816 262 816 c 1
 260 870 l 1
 260 870 327 930 365 930 c 0x60
 414 930 476 875 505 875 c 0
 525 875 587 921 587 921 c 1xa0
EndSplineSet
EndChar

StartChar: dieresis.cap
Encoding: 65564 -1 293
Width: 387
Flags: MW
HStem: 814 93<285 368 306 345 494 533>
VStem: 285 271<814 907>
LayerCount: 2
Fore
SplineSet
285 814 m 1
 306 907 l 1
 368 907 l 1
 345 814 l 1
 285 814 l 1
472 814 m 1
 494 907 l 1
 556 907 l 1
 533 814 l 1
 472 814 l 1
EndSplineSet
EndChar

StartChar: macron.cap
Encoding: 65565 -1 294
Width: 439
Flags: MW
HStem: 823 60<263 570 276 556>
VStem: 263 307<823 883>
LayerCount: 2
Fore
SplineSet
263 823 m 1
 276 883 l 1
 570 883 l 1
 556 823 l 1
 263 823 l 1
EndSplineSet
EndChar

StartChar: breve.cap
Encoding: 65566 -1 295
Width: 439
Flags: MW
HStem: 796 60<389.5 431.5 389.5 443>
VStem: 283 69
LayerCount: 2
Fore
SplineSet
286 923 m 1
 352 923 l 1
 344 871 368 856 411 856 c 0
 452 856 490 882 502 923 c 1
 568 923 l 1
 545 843 488 796 398 796 c 0
 314 796 272 838 286 923 c 1
EndSplineSet
EndChar

StartChar: ring.cap
Encoding: 65567 -1 296
Width: 315
Flags: MW
HStem: 677 52<303.5 338.5 303.5 342.5> 825 52<328 360>
VStem: 225 54
LayerCount: 2
Fore
SplineSet
438 777 m 0
 422 715 376 677 309 677 c 0
 247 677 212 714 229 777 c 0
 247 845 296 877 358 877 c 0
 417 877 455 847 438 777 c 0
279 777 m 0
 273 750 286 729 321 729 c 0
 356 729 380 747 387 777 c 0
 394 809 375 825 345 825 c 0
 311 825 287 808 279 777 c 0
EndSplineSet
EndChar

StartChar: hungarumlaut.cap
Encoding: 65568 -1 297
Width: 666
Flags: MW
HStem: 755 162<480 546>
VStem: 314 403<785 884>
LayerCount: 2
Fore
SplineSet
546 755 m 1
 504 785 l 1
 668 916 l 1
 717 884 l 1
 546 755 l 1
357 756 m 1
 314 785 l 1
 480 917 l 1
 526 885 l 1
 357 756 l 1
EndSplineSet
EndChar

StartChar: dotaccent.cap
Encoding: 65569 -1 298
Width: 224
Flags: MW
HStem: 793 90<263 347 283 326>
VStem: 263 84
LayerCount: 2
Fore
SplineSet
263 793 m 1
 283 883 l 1
 347 883 l 1
 326 793 l 1
 263 793 l 1
EndSplineSet
EndChar

StartChar: Aringacute
Encoding: 506 506 299
Width: 554
Flags: MW
HStem: 0 21G<24 24 24 102 456 456 456 532> 177 67<223 450 191 451> 624 68<414 447 442 444> 669 21G<358 358> 670 21G<518 518> 788 52<449 481>
VStem: 346 54 447.5 77.5
LayerCount: 2
Fore
SplineSet
24 0 m 1xcf
 358 669 l 1xd7
 345 686 342 710 350 740 c 0
 368 808 417 840 479 840 c 0
 538 840 576 810 559 740 c 0
 551 711 538 687 518 670 c 1
 532 0 l 1
 456 0 l 1
 450 177 l 1
 191 177 l 1
 102 0 l 1
 24 0 l 1xcf
414 624 m 1xe7
 223 244 l 1
 451 244 l 1
 444 624 l 1
 414 624 l 1xe7
387 876 m 1
 380 934 l 1
 608 1028 l 1
 615 962 l 1
 387 876 l 1
400 740 m 0
 394 713 407 692 442 692 c 2
 447 692 l 2
 479 693 501 711 508 740 c 0
 515 772 496 788 466 788 c 0
 432 788 408 771 400 740 c 0
EndSplineSet
Position2: "'cpsp' Capital Spacing in Lateinisch lookup 0 subtable" dx=5 dy=0 dh=10 dv=0
EndChar

StartChar: Eng
Encoding: 330 330 300
Width: 631
Flags: MW
HStem: 0 79<421 497 421 497> 617 75<294 314 294 294>
VStem: 78 635
LayerCount: 2
Fore
SplineSet
78 0 m 1
 238 692 l 1
 375 692 l 1
 479 79 l 1
 497 79 l 1
 546 289 l 1
 639 692 l 1
 713 692 l 1
 686 576 l 1
 554 2 l 2
 517 -158 497 -187 346 -187 c 1
 358 -119 l 1
 439 -118 455 -103 479 0 c 1
 421 0 l 1
 314 617 l 1
 294 617 l 1
 151 0 l 1
 78 0 l 1
EndSplineSet
Position2: "'cpsp' Capital Spacing in Lateinisch lookup 0 subtable" dx=5 dy=0 dh=10 dv=0
EndChar

StartChar: amacron
Encoding: 257 257 301
Width: 500
Flags: MW
HStem: -10 65<212 260.5> -1 21G<369 369> 445 65<284 365.5> 639 59<285 574 299 559>
VStem: 89 77<112.5 201 112.5 217>
LayerCount: 2
Fore
SplineSet
217 -10 m 0xb8
 128 -10 89 47 89 139 c 0
 89 295 172 510 341 510 c 0
 404 510 546 485 546 485 c 1
 470 160 l 2
 455 97 442 2 442 2 c 1
 369 -1 l 1x78
 369 -1 383 85 387 106 c 1
 387 106 304 -10 217 -10 c 0xb8
342 445 m 0
 226 445 166 263 166 139 c 0
 166 86 184 55 240 55 c 0
 303 55 402 186 402 186 c 1
 459 431 l 1
 459 431 389 445 342 445 c 0
285 639 m 1
 299 698 l 1
 574 698 l 1
 559 639 l 1
 285 639 l 1
EndSplineSet
EndChar

StartChar: abreve
Encoding: 259 259 302
Width: 500
Flags: MW
HStem: -10 65<212 260.5> -1 21G<369 369> 445 65<284 365.5> 593 62<402.5 456.5 402.5 463>
VStem: 89 77<112.5 201 112.5 217> 299 69
LayerCount: 2
Fore
SplineSet
217 -10 m 0xb8
 128 -10 89 47 89 139 c 0
 89 295 172 510 341 510 c 0
 404 510 546 485 546 485 c 1
 470 160 l 2
 455 97 442 2 442 2 c 1
 369 -1 l 1x78
 369 -1 383 85 387 106 c 1
 387 106 304 -10 217 -10 c 0xb8
342 445 m 0
 226 445 166 263 166 139 c 0
 166 86 184 55 240 55 c 0
 303 55 402 186 402 186 c 1
 459 431 l 1
 459 431 389 445 342 445 c 0
303 731 m 1
 368 731 l 1
 358 688 376 655 429 655 c 0
 484 655 514 687 527 731 c 1
 592 731 l 1
 568 648 515 593 411 593 c 0xbc
 323 593 287 648 303 731 c 1
EndSplineSet
EndChar

StartChar: aringacute
Encoding: 507 507 303
Width: 500
Flags: MW
HStem: -10 65<212 260.5> -1 21G<369 369> 445 65<284 365.5> 544 49<377.5 404.5 377.5 408> 689 51<401 428>
VStem: 89 77<112.5 201 112.5 217> 308 48 449 46
LayerCount: 2
Fore
SplineSet
345 768 m 1xbc
 337 833 l 1
 565 926 l 1
 573 853 l 1
 345 768 l 1xbc
217 -10 m 0
 128 -10 89 47 89 139 c 0
 89 295 172 510 341 510 c 0
 404 510 546 485 546 485 c 1
 470 160 l 2
 455 97 442 2 442 2 c 1
 369 -1 l 1x7c
 369 -1 383 85 387 106 c 1
 387 106 304 -10 217 -10 c 0
342 445 m 0
 226 445 166 263 166 139 c 0
 166 86 184 55 240 55 c 0
 303 55 402 186 402 186 c 1
 459 431 l 1
 459 431 389 445 342 445 c 0
311 643 m 0xbf
 322 695 366 740 427 740 c 0
 478 740 501 706 495 655 c 0
 489 589 438 544 378 544 c 0
 318 544 299 587 311 643 c 0xbf
356 643 m 0
 350 619 364 593 391 593 c 0
 418 593 442 615 449 642 c 0
 455 666 441 689 415 689 c 0
 387 689 363 669 356 643 c 0
EndSplineSet
EndChar

StartChar: aogonek
Encoding: 261 261 304
Width: 500
Flags: MW
HStem: -204 67<312 378> -10 65<212 260.5> 445 65<284 365.5>
VStem: 89 77<112.5 201 112.5 217> 265 82<-123.5 -115>
LayerCount: 2
Fore
SplineSet
419 -132 m 1
 412 -195 l 1
 412 -195 367 -204 335 -204 c 0
 289 -204 265 -181 265 -141 c 0
 265 -89 334 -21 370 8 c 1
 374 29 383 88 387 106 c 1
 387 106 304 -10 217 -10 c 0
 128 -10 89 47 89 139 c 0
 89 295 172 510 341 510 c 0
 404 510 546 485 546 485 c 1
 470 160 l 2
 455 97 442 2 442 2 c 1
 436 2 l 1
 406 -22 347 -82 347 -117 c 0
 347 -130 355 -137 371 -137 c 0
 385 -137 419 -132 419 -132 c 1
342 445 m 0
 226 445 166 263 166 139 c 0
 166 86 184 55 240 55 c 0
 303 55 402 186 402 186 c 1
 459 431 l 1
 459 431 389 445 342 445 c 0
EndSplineSet
EndChar

StartChar: aeacute
Encoding: 509 509 305
Width: 749
Flags: MW
HStem: -10 67<164.5 196> -10 70<498.5 550.5> 218 61 244 61 437 73<329.5 388.5> 442 68<608 652.5>
VStem: 63 76 362 79 712 73
LayerCount: 2
Fore
SplineSet
531 60 m 0x6b80
 599 60 704 69 704 69 c 1
 691 6 l 1
 691 6 590 -10 511 -10 c 0
 446 -10 404 9 382 44 c 1
 331 22 226 -10 166 -10 c 0
 78 -10 50 66 67 144 c 0
 86 242 153 277 241 291 c 0
 292 299 343 303 392 305 c 1x5b80
 407 349 430 437 347 437 c 0
 277 437 167 426 167 426 c 1
 179 495 l 1
 179 495 293 510 366 510 c 0
 422 510 465 485 475 436 c 1
 517 487 575 510 641 510 c 0
 734 510 783 465 785 375 c 0
 785 342 781 308 771 272 c 2
 756 217 l 1
 451 219 l 1
 444 190 440 163 441 140 c 0
 443 90 466 60 531 60 c 0x6b80
190 57 m 0x9b80
 238 57 318 79 366 95 c 1
 356 144 368 193 380 244 c 1
 328 240 281 235 242 230 c 0
 191 222 155 197 142 146 c 0
 133 108 139 57 190 57 c 0x9b80
464 280 m 1x6780
 701 278 l 1
 710 312 713 340 712 364 c 0
 710 418 681 442 624 442 c 0
 542 442 491 393 464 280 c 1x6780
431 596 m 1
 424 654 l 1
 652 748 l 1
 659 682 l 1
 431 596 l 1
EndSplineSet
EndChar

StartChar: cacute
Encoding: 263 263 306
Width: 405
Flags: MW
HStem: -10 65<234.5 278.5> 445 65<289.5 374.5> 490 20G<265.5 383.5>
VStem: 92 77<123.5 226 123.5 238>
LayerCount: 2
Fore
SplineSet
355 510 m 0xd0
 412 510 480 491 480 491 c 1xb0
 461 433 l 1
 461 433 396 445 353 445 c 0
 226 445 169 296 169 156 c 0
 169 91 197 55 272 55 c 0
 311 55 384 70 384 70 c 1
 379 11 l 1
 379 11 310 -10 247 -10 c 0
 145 -10 92 45 92 142 c 0
 92 334 176 510 355 510 c 0xd0
294 596 m 1
 287 654 l 1
 515 748 l 1
 522 682 l 1
 294 596 l 1
EndSplineSet
EndChar

StartChar: ccircumflex
Encoding: 265 265 307
Width: 405
Flags: MW
HStem: -10 65<234.5 278.5> 445 65<289.5 374.5> 490 20G<265.5 383.5> 587 151<226 421 381 439 381 508>
VStem: 92 77<123.5 226 123.5 238>
LayerCount: 2
Fore
SplineSet
355 510 m 0xd8
 412 510 480 491 480 491 c 1xb8
 461 433 l 1
 461 433 396 445 353 445 c 0
 226 445 169 296 169 156 c 0
 169 91 197 55 272 55 c 0
 311 55 384 70 384 70 c 1
 379 11 l 1
 379 11 310 -10 247 -10 c 0
 145 -10 92 45 92 142 c 0
 92 334 176 510 355 510 c 0xd8
226 587 m 1
 381 738 l 1
 421 738 l 1
 508 587 l 1
 439 587 l 1
 391 673 l 1
 302 587 l 1
 226 587 l 1
EndSplineSet
EndChar

StartChar: ccaron
Encoding: 269 269 308
Width: 405
Flags: MW
HStem: -10 65<234.5 278.5> 445 65<289.5 374.5> 490 20G<265.5 383.5> 587 151<265 392 265 350>
VStem: 92 77<123.5 226 123.5 238>
LayerCount: 2
Fore
SplineSet
392 587 m 1xd8
 350 587 l 1
 265 738 l 1
 334 738 l 1
 385 649 l 1
 475 738 l 1
 550 738 l 1
 392 587 l 1xd8
355 510 m 0
 412 510 480 491 480 491 c 1xb8
 461 433 l 1
 461 433 396 445 353 445 c 0
 226 445 169 296 169 156 c 0
 169 91 197 55 272 55 c 0
 311 55 384 70 384 70 c 1
 379 11 l 1
 379 11 310 -10 247 -10 c 0
 145 -10 92 45 92 142 c 0
 92 334 176 510 355 510 c 0
EndSplineSet
EndChar

StartChar: cdotaccent
Encoding: 267 267 309
Width: 405
Flags: MW
HStem: -10 65<234.5 278.5> 445 65<289.5 374.5> 490 20G<265.5 383.5> 605 89<334 419 355 398>
VStem: 92 77<123.5 226 123.5 238>
LayerCount: 2
Fore
SplineSet
355 510 m 0xd8
 412 510 480 491 480 491 c 1xb8
 461 433 l 1
 461 433 396 445 353 445 c 0
 226 445 169 296 169 156 c 0
 169 91 197 55 272 55 c 0
 311 55 384 70 384 70 c 1
 379 11 l 1
 379 11 310 -10 247 -10 c 0
 145 -10 92 45 92 142 c 0
 92 334 176 510 355 510 c 0xd8
334 605 m 1
 355 694 l 1
 419 694 l 1
 398 605 l 1
 334 605 l 1
EndSplineSet
EndChar

StartChar: dcaron
Encoding: 271 271 310
Width: 551
Flags: MW
HStem: -10 65<213 259.5> 0 21G<361 433 361 361> 445 65<282.5 366> 460 232<653 667 598 721> 490 20G<259 368> 698 20G<525 600 600 600>
VStem: 89 77<111 199 111 220.5>
LayerCount: 2
Fore
SplineSet
721 692 m 1x92
 667 460 l 1
 598 460 l 1
 653 692 l 1
 721 692 l 1x92
600 718 m 1x8e
 433 0 l 1
 361 0 l 1x66
 380 89 l 1
 380 89 304 -10 215 -10 c 0
 132 -10 89 39 89 136 c 0
 89 305 179 510 339 510 c 0xa6
 397 510 472 492 472 492 c 1
 525 718 l 1
 600 718 l 1x8e
399 173 m 1
 459 430 l 1
 459 430 393 445 339 445 c 0
 226 445 166 261 166 137 c 0
 166 85 188 55 238 55 c 0xa6
 305 55 399 173 399 173 c 1
EndSplineSet
EndChar

StartChar: dcroat
Encoding: 273 273 311
Width: 500
Flags: MW
HStem: -10 65<213 259.5> 0 21G<361 433 361 361> 445 65<282.5 366> 490 20G<259 368> 589 69<366 494 350 511 586 625 366 570> 589 129<350 600 570 600 525 625 570 570>
VStem: 89 77<111 199 111 220.5>
LayerCount: 2
Fore
SplineSet
600 718 m 1xa6
 586 658 l 1
 641 658 l 1xaa
 625 589 l 1
 570 589 l 1
 433 0 l 1
 361 0 l 1x66
 380 89 l 1
 380 89 304 -10 215 -10 c 0
 132 -10 89 39 89 136 c 0
 89 305 179 510 339 510 c 0xa6
 397 510 472 492 472 492 c 1
 494 589 l 1
 350 589 l 1x96
 366 658 l 1
 511 658 l 1xaa
 525 718 l 1
 600 718 l 1xa6
399 173 m 1
 459 430 l 1
 459 430 393 445 339 445 c 0
 226 445 166 261 166 137 c 0
 166 85 188 55 238 55 c 0
 305 55 399 173 399 173 c 1
EndSplineSet
EndChar

StartChar: ecaron
Encoding: 283 283 312
Width: 462
Flags: MW
HStem: -10 66<233.5 287> 228 59<187 228 177 242> 447 63<311.5 381.5> 587 151<274 401 274 359>
VStem: 91 75<117 158.5 117 228> 434 74<348 409>
LayerCount: 2
Fore
SplineSet
262 56 m 0
 336 56 427 78 427 78 c 1
 421 19 l 1
 421 19 332 -10 242 -10 c 0
 146 -10 91 40 91 142 c 0
 91 314 173 510 360 510 c 0
 450 510 508 474 508 388 c 0
 508 265 415 228 228 228 c 2
 177 228 l 1
 170 203 166 170 166 147 c 0
 166 87 205 56 262 56 c 0
187 287 m 1
 242 287 l 2
 373 287 434 309 434 387 c 0
 434 431 406 447 357 447 c 0
 266 447 215 383 187 287 c 1
401 587 m 1
 359 587 l 1
 274 738 l 1
 343 738 l 1
 394 649 l 1
 484 738 l 1
 559 738 l 1
 401 587 l 1
EndSplineSet
EndChar

StartChar: emacron
Encoding: 275 275 313
Width: 462
Flags: MW
HStem: -10 66<233.5 287> 228 59<187 228 177 242> 447 63<311.5 381.5> 639 59<255 544 269 529>
VStem: 91 75<117 158.5 117 228> 434 74<348 409>
LayerCount: 2
Fore
SplineSet
262 56 m 0
 336 56 427 78 427 78 c 1
 421 19 l 1
 421 19 332 -10 242 -10 c 0
 146 -10 91 40 91 142 c 0
 91 314 173 510 360 510 c 0
 450 510 508 474 508 388 c 0
 508 265 415 228 228 228 c 2
 177 228 l 1
 170 203 166 170 166 147 c 0
 166 87 205 56 262 56 c 0
187 287 m 1
 242 287 l 2
 373 287 434 309 434 387 c 0
 434 431 406 447 357 447 c 0
 266 447 215 383 187 287 c 1
255 639 m 1
 269 698 l 1
 544 698 l 1
 529 639 l 1
 255 639 l 1
EndSplineSet
EndChar

StartChar: ebreve
Encoding: 277 277 314
Width: 462
Flags: MW
HStem: -10 66<233.5 287> 228 59<187 228 177 242> 447 63<311.5 381.5> 593 62<369.5 423.5 369.5 430>
VStem: 91 75<117 158.5 117 228> 266 69 434 74<348 409>
LayerCount: 2
Fore
SplineSet
262 56 m 0
 336 56 427 78 427 78 c 1
 421 19 l 1
 421 19 332 -10 242 -10 c 0
 146 -10 91 40 91 142 c 0
 91 314 173 510 360 510 c 0
 450 510 508 474 508 388 c 0
 508 265 415 228 228 228 c 2
 177 228 l 1
 170 203 166 170 166 147 c 0
 166 87 205 56 262 56 c 0
187 287 m 1
 242 287 l 2
 373 287 434 309 434 387 c 0
 434 431 406 447 357 447 c 0
 266 447 215 383 187 287 c 1
270 731 m 1
 335 731 l 1
 325 688 343 655 396 655 c 0
 451 655 481 687 494 731 c 1
 559 731 l 1
 535 648 482 593 378 593 c 0
 290 593 254 648 270 731 c 1
EndSplineSet
EndChar

StartChar: edotaccent
Encoding: 279 279 315
Width: 462
Flags: MW
HStem: -10 66<233.5 287> 228 59<187 228 177 242> 447 63<311.5 381.5> 605 89<338 423 359 402>
VStem: 91 75<117 158.5 117 228> 434 74<348 409>
LayerCount: 2
Fore
SplineSet
262 56 m 0
 336 56 427 78 427 78 c 1
 421 19 l 1
 421 19 332 -10 242 -10 c 0
 146 -10 91 40 91 142 c 0
 91 314 173 510 360 510 c 0
 450 510 508 474 508 388 c 0
 508 265 415 228 228 228 c 2
 177 228 l 1
 170 203 166 170 166 147 c 0
 166 87 205 56 262 56 c 0
187 287 m 1
 242 287 l 2
 373 287 434 309 434 387 c 0
 434 431 406 447 357 447 c 0
 266 447 215 383 187 287 c 1
338 605 m 1
 359 694 l 1
 423 694 l 1
 402 605 l 1
 338 605 l 1
EndSplineSet
EndChar

StartChar: eogonek
Encoding: 281 281 316
Width: 462
Flags: MW
HStem: -184 67<291 357> -10 66<233.5 254.5> 228 59<187 228 177 242> 447 63<311.5 381.5>
VStem: 91 75<117 158.5 117 228> 244 82<-103.5 -102> 434 74<348 409>
LayerCount: 2
Fore
SplineSet
398 -112 m 1
 391 -175 l 1
 391 -175 346 -184 314 -184 c 0
 268 -184 244 -161 244 -121 c 0
 244 -83 279 -38 313 -5 c 1
 290 -8 267 -10 242 -10 c 0
 146 -10 91 40 91 142 c 0
 91 314 173 510 360 510 c 0
 450 510 508 474 508 388 c 0
 508 265 415 228 228 228 c 2
 177 228 l 1
 170 203 166 170 166 147 c 0
 166 87 205 56 262 56 c 0
 336 56 427 78 427 78 c 1
 421 19 l 1
 421 19 414 16 406 14 c 0
 375 -12 326 -65 326 -97 c 0
 326 -110 334 -117 350 -117 c 0
 364 -117 398 -112 398 -112 c 1
187 287 m 1
 242 287 l 2
 373 287 434 309 434 387 c 0
 434 431 406 447 357 447 c 0
 266 447 215 383 187 287 c 1
EndSplineSet
EndChar

StartChar: gcircumflex
Encoding: 285 285 317
Width: 468
Flags: MW
HStem: -235 64<162 245 162 275> 170 62<260 320 243.5 337> 436 64<461 565> 447 63<276 347 256.5 349.5> 587 151<211 406 366 424 366 493>
VStem: 18 71<-111.5 -66> 120 71<288.5 341.5 288.5 357> 134 69<95.5 114> 374 73<-93 -35> 407 71<337.5 383 322.5 390.5>
LayerCount: 2
Fore
SplineSet
197 -235 m 0xe680
 87 -235 18 -188 18 -104 c 0
 18 -28 92 19 150 49 c 1
 140 59 134 72 134 92 c 0xe580
 134 136 189 189 189 189 c 1
 144 210 120 248 120 309 c 0
 120 405 192 510 321 510 c 0xd640
 373 510 417 494 417 494 c 1
 565 500 l 1
 550 436 l 1
 461 436 l 1
 470 421 478 399 478 367 c 0
 478 278 407 170 267 170 c 0
 253 170 234 173 234 173 c 1
 234 173 203 133 203 107 c 0xe540
 203 84 227 78 296 69 c 0
 397 56 447 27 447 -50 c 0
 447 -149 353 -235 197 -235 c 0xe680
276 7 m 0
 231 12 203 18 189 23 c 1
 144 0 89 -43 89 -88 c 0
 89 -135 124 -171 200 -171 c 0
 290 -171 374 -130 374 -56 c 0
 374 -14 345 -2 276 7 c 0
274 232 m 0xde40
 366 232 407 312 407 363 c 0
 407 418 382 447 317 447 c 0
 235 447 191 371 191 312 c 0
 191 265 213 232 274 232 c 0xde40
211 587 m 1
 366 738 l 1
 406 738 l 1
 493 587 l 1
 424 587 l 1
 376 673 l 1
 287 587 l 1
 211 587 l 1
EndSplineSet
EndChar

StartChar: gbreve
Encoding: 287 287 318
Width: 468
Flags: MW
HStem: -235 64<162 245 162 275> 170 62<260 320 243.5 337> 436 64<461 565> 447 63<276 347 256.5 349.5> 593 62<365.5 419.5 365.5 426>
VStem: 18 71<-111.5 -66> 120 71<288.5 341.5 288.5 357> 134 69<95.5 114> 262 69 374 73<-93 -35> 407 71<337.5 383 322.5 390.5>
LayerCount: 2
Fore
SplineSet
197 -235 m 0xee40
 87 -235 18 -188 18 -104 c 0
 18 -28 92 19 150 49 c 1
 140 59 134 72 134 92 c 0xed40
 134 136 189 189 189 189 c 1
 144 210 120 248 120 309 c 0
 120 405 192 510 321 510 c 0xde20
 373 510 417 494 417 494 c 1
 565 500 l 1
 550 436 l 1
 461 436 l 1
 470 421 478 399 478 367 c 0
 478 278 407 170 267 170 c 0
 253 170 234 173 234 173 c 1
 234 173 203 133 203 107 c 0xed20
 203 84 227 78 296 69 c 0
 397 56 447 27 447 -50 c 0
 447 -149 353 -235 197 -235 c 0xee40
276 7 m 0
 231 12 203 18 189 23 c 1
 144 0 89 -43 89 -88 c 0
 89 -135 124 -171 200 -171 c 0
 290 -171 374 -130 374 -56 c 0
 374 -14 345 -2 276 7 c 0
274 232 m 0xdea0
 366 232 407 312 407 363 c 0
 407 418 382 447 317 447 c 0
 235 447 191 371 191 312 c 0
 191 265 213 232 274 232 c 0xdea0
266 731 m 1
 331 731 l 1
 321 688 339 655 392 655 c 0
 447 655 477 687 490 731 c 1
 555 731 l 1
 531 648 478 593 374 593 c 0
 286 593 250 648 266 731 c 1
EndSplineSet
EndChar

StartChar: gdotaccent
Encoding: 289 289 319
Width: 468
Flags: MW
HStem: -235 64<162 245 162 275> 170 62<260 320 243.5 337> 436 64<461 565> 447 63<276 347 256.5 349.5> 605 89<324 409 345 388>
VStem: 18 71<-111.5 -66> 120 71<288.5 341.5 288.5 357> 134 69<95.5 114> 374 73<-93 -35> 407 71<337.5 383 322.5 390.5>
LayerCount: 2
Fore
SplineSet
197 -235 m 0xee80
 87 -235 18 -188 18 -104 c 0
 18 -28 92 19 150 49 c 1
 140 59 134 72 134 92 c 0xed80
 134 136 189 189 189 189 c 1
 144 210 120 248 120 309 c 0
 120 405 192 510 321 510 c 0xde40
 373 510 417 494 417 494 c 1
 565 500 l 1
 550 436 l 1
 461 436 l 1
 470 421 478 399 478 367 c 0
 478 278 407 170 267 170 c 0
 253 170 234 173 234 173 c 1
 234 173 203 133 203 107 c 0xed40
 203 84 227 78 296 69 c 0
 397 56 447 27 447 -50 c 0
 447 -149 353 -235 197 -235 c 0xee80
276 7 m 0
 231 12 203 18 189 23 c 1
 144 0 89 -43 89 -88 c 0
 89 -135 124 -171 200 -171 c 0
 290 -171 374 -130 374 -56 c 0
 374 -14 345 -2 276 7 c 0
274 232 m 0xde40
 366 232 407 312 407 363 c 0
 407 418 382 447 317 447 c 0
 235 447 191 371 191 312 c 0
 191 265 213 232 274 232 c 0xde40
324 605 m 1
 345 694 l 1
 409 694 l 1
 388 605 l 1
 324 605 l 1
EndSplineSet
EndChar

StartChar: gcommaaccent
Encoding: 291 291 320
Width: 468
Flags: MW
HStem: -235 64<162 245 162 275> 170 62<260 320 243.5 337> 436 64<461 565> 447 63<276 347 256.5 349.5> 584 210<313 470 313 470>
VStem: 18 71<-111.5 -66> 120 71<288.5 341.5 288.5 357> 134 69<95.5 114> 374 73<-93 -35> 407 71<337.5 383 322.5 390.5>
LayerCount: 2
Fore
SplineSet
409 794 m 1xee80
 470 794 l 1
 383 584 l 1
 313 584 l 1
 409 794 l 1xee80
197 -235 m 0
 87 -235 18 -188 18 -104 c 0
 18 -28 92 19 150 49 c 1
 140 59 134 72 134 92 c 0xed80
 134 136 189 189 189 189 c 1
 144 210 120 248 120 309 c 0
 120 405 192 510 321 510 c 0xde40
 373 510 417 494 417 494 c 1
 565 500 l 1
 550 436 l 1
 461 436 l 1
 470 421 478 399 478 367 c 0
 478 278 407 170 267 170 c 0
 253 170 234 173 234 173 c 1
 234 173 203 133 203 107 c 0xed40
 203 84 227 78 296 69 c 0
 397 56 447 27 447 -50 c 0
 447 -149 353 -235 197 -235 c 0
276 7 m 0
 231 12 203 18 189 23 c 1
 144 0 89 -43 89 -88 c 0
 89 -135 124 -171 200 -171 c 0
 290 -171 374 -130 374 -56 c 0
 374 -14 345 -2 276 7 c 0
274 232 m 0xde40
 366 232 407 312 407 363 c 0
 407 418 382 447 317 447 c 0
 235 447 191 371 191 312 c 0
 191 265 213 232 274 232 c 0xde40
EndSplineSet
EndChar

StartChar: hcircumflex
Encoding: 293 293 321
Width: 499
Flags: MW
HStem: 0 21G<66 141 66 66 363 363 363 437> 444 66<355.5 396> 698 20G<232 307 307 307> 763 138<290 495 454 522 454 591>
VStem: 439 77<363.5 392.5>
LayerCount: 2
Fore
SplineSet
141 0 m 1
 66 0 l 1
 232 718 l 1
 307 718 l 1
 236 412 l 1
 236 412 313 510 398 510 c 0
 478 510 516 459 516 384 c 0
 516 343 504 289 495 252 c 2
 437 0 l 1
 363 0 l 1
 421 249 l 2
 428 281 439 335 439 369 c 0
 439 416 420 444 372 444 c 0
 306 444 217 331 217 331 c 1
 141 0 l 1
290 763 m 1
 454 901 l 1
 495 901 l 1
 591 763 l 1
 522 763 l 1
 468 844 l 1
 372 763 l 1
 290 763 l 1
EndSplineSet
EndChar

StartChar: hbar
Encoding: 295 295 322
Width: 499
Flags: MW
HStem: 0 21G<66 141 66 66 363 437 363 363> 444 66<355.5 396> 579 65<145 215 160 200 160 274 289 419> 579 139<145 307 145 307 274 274 274 307 232 419>
VStem: 439 77<363.5 392.5>
LayerCount: 2
Fore
SplineSet
145 579 m 1xd8
 160 644 l 1
 215 644 l 1xe8
 232 718 l 1
 307 718 l 1xd8
 289 644 l 1
 435 644 l 1xe8
 419 579 l 1
 274 579 l 1
 236 412 l 1
 236 412 313 510 398 510 c 0
 478 510 516 459 516 384 c 0
 516 343 504 289 495 252 c 2
 437 0 l 1
 363 0 l 1
 421 249 l 2
 428 281 439 335 439 369 c 0
 439 416 420 444 372 444 c 0
 306 444 217 331 217 331 c 1
 141 0 l 1
 66 0 l 1
 200 579 l 1
 145 579 l 1xd8
EndSplineSet
EndChar

StartChar: itilde
Encoding: 297 297 323
Width: 206
Flags: MW
HStem: 0 21G<66 66 66 140> 480 20G<181 256 256 256> 614 66<305 322.5> 662 21G<164.5 190.5> 665 21G<398 398> 701 20G<393 393> 708 20G<173.5 213.5>
VStem: 66 332
LayerCount: 2
Fore
SplineSet
66 0 m 1xcb
 181 500 l 1
 256 500 l 1
 140 0 l 1
 66 0 l 1xcb
393 721 m 1xe5
 398 665 l 1
 398 665 341 614 304 614 c 0xcb
 264 614 205 662 176 662 c 0
 153 662 96 619 96 619 c 1xd3
 93 675 l 1
 93 675 155 728 192 728 c 0xe3
 235 728 292 680 318 680 c 0
 338 680 393 721 393 721 c 1xe5
EndSplineSet
EndChar

StartChar: imacron
Encoding: 299 299 324
Width: 206
Flags: MW
HStem: 0 21G<66 66 66 140> 480 20G<181 256 256 256> 639 59<105 394 119 379>
VStem: 66 328
LayerCount: 2
Fore
SplineSet
66 0 m 1
 181 500 l 1
 256 500 l 1
 140 0 l 1
 66 0 l 1
105 639 m 1
 119 698 l 1
 394 698 l 1
 379 639 l 1
 105 639 l 1
EndSplineSet
EndChar

StartChar: ibreve
Encoding: 301 301 325
Width: 206
Flags: MW
HStem: 0 21G<66 66 66 140> 480 20G<181 256 256 256> 593 62<221.5 275.5 221.5 282>
VStem: 118 69
LayerCount: 2
Fore
SplineSet
66 0 m 1
 181 500 l 1
 256 500 l 1
 140 0 l 1
 66 0 l 1
122 731 m 1
 187 731 l 1
 177 688 195 655 248 655 c 0
 303 655 333 687 346 731 c 1
 411 731 l 1
 387 648 334 593 230 593 c 0
 142 593 106 648 122 731 c 1
EndSplineSet
EndChar

StartChar: iogonek
Encoding: 303 303 326
Width: 207
Flags: MW
HStem: -204 67<11.5 77> 480 20G<182 257 257 257> 604 90<205 302 226 281>
VStem: -36 82<-123.5 -115.5>
LayerCount: 2
Fore
SplineSet
119 -132 m 1
 111 -195 l 1
 111 -195 67 -204 35 -204 c 0
 -12 -204 -36 -181 -36 -141 c 0
 -36 -90 31 -24 67 6 c 1
 182 500 l 1
 257 500 l 1
 141 0 l 1
 109 -23 46 -81 46 -117 c 0
 46 -130 54 -137 70 -137 c 0
 84 -137 119 -132 119 -132 c 1
205 604 m 1
 226 694 l 1
 302 694 l 1
 281 604 l 1
 205 604 l 1
EndSplineSet
EndChar

StartChar: jcircumflex
Encoding: 309 309 327
Width: 206
Flags: MW
HStem: -235 21G<-63 -63> 480 20G<181 256 256 256> 587 151<89 284 244 302 244 371>
VStem: -87 458
LayerCount: 2
Fore
SplineSet
66 0 m 2
 181 500 l 1
 256 500 l 1
 140 0 l 2
 106 -148 92 -164 -63 -235 c 1
 -87 -175 l 1
 32 -114 42 -102 66 0 c 2
89 587 m 1
 244 738 l 1
 284 738 l 1
 371 587 l 1
 302 587 l 1
 254 673 l 1
 165 587 l 1
 89 587 l 1
EndSplineSet
EndChar

StartChar: kcommaaccent
Encoding: 311 311 328
Width: 445
Flags: MW
HStem: -283 210<91 248 91 248> 0 21G<66 141 66 66 346 346 346 425> 238 63.5 480 20G<455 542 542 542> 698 20G<232 307 307 307>
VStem: 66 476
LayerCount: 2
Fore
SplineSet
91 -283 m 1
 178 -73 l 1
 248 -73 l 1
 152 -283 l 1
 91 -283 l 1
141 0 m 1
 66 0 l 1
 232 718 l 1
 307 718 l 1
 210 300 l 1
 274 303 l 1
 455 500 l 1
 542 500 l 1
 330 268 l 1
 425 0 l 1
 346 0 l 1
 262 239 l 1
 195 237 l 1
 141 0 l 1
EndSplineSet
EndChar

StartChar: lacute
Encoding: 314 314 329
Width: 215
Flags: MW
HStem: 0 21G<70 70 70 145> 698 20G<236 310 310 310>
VStem: 70 407
LayerCount: 2
Fore
SplineSet
70 0 m 1
 236 718 l 1
 310 718 l 1
 145 0 l 1
 70 0 l 1
249 785 m 1
 240 842 l 1
 468 936 l 1
 477 871 l 1
 249 785 l 1
EndSplineSet
EndChar

StartChar: lcaron
Encoding: 318 318 330
Width: 262
Flags: MW
HStem: 0 21G<70 70 70 145> 460 232<364 377 309 432> 698 20G<236 310 310 310>
VStem: 70 362
LayerCount: 2
Fore
SplineSet
432 692 m 1
 377 460 l 1
 309 460 l 1
 364 692 l 1
 432 692 l 1
70 0 m 1
 236 718 l 1
 310 718 l 1xb0
 145 0 l 1
 70 0 l 1
EndSplineSet
EndChar

StartChar: lcommaaccent
Encoding: 316 316 331
Width: 215
Flags: MW
HStem: 0 21G<70 70 70 145> 698 20G<236 310 310 310>
VStem: -30 340
LayerCount: 2
Fore
SplineSet
57 -73 m 1
 -30 -283 l 1
 31 -283 l 1
 127 -73 l 1
 57 -73 l 1
70 0 m 1
 236 718 l 1
 310 718 l 1
 145 0 l 1
 70 0 l 1
EndSplineSet
EndChar

StartChar: nacute
Encoding: 324 324 332
Width: 498
Flags: MW
HStem: 0 748<66 521 140 521 362 521 436 521>
VStem: 66 462
LayerCount: 2
Fore
SplineSet
66 0 m 1
 140 0 l 1
 217 332 l 1
 217 332 304 444 371 444 c 0
 419 444 439 416 439 369 c 0
 439 335 428 281 420 249 c 2
 362 0 l 1
 436 0 l 1
 495 254 l 2
 504 290 515 343 515 384 c 0
 515 459 477 510 397 510 c 0
 312 510 236 413 236 413 c 1
 254 500 l 1
 181 500 l 1
 66 0 l 1
300 596 m 1
 293 654 l 1
 521 748 l 1
 528 682 l 1
 300 596 l 1
EndSplineSet
EndChar

StartChar: ncaron
Encoding: 328 328 333
Width: 498
Flags: MW
HStem: 0 21G<66 140 66 66 362 362 362 436> 444 66<354.5 395> 480 20G<181 254 254 254> 587 151<276 403 276 361>
VStem: 439 76<363.5 392.5>
LayerCount: 2
Fore
SplineSet
140 0 m 1xd8
 66 0 l 1
 181 500 l 1
 254 500 l 1xb8
 236 413 l 1
 236 413 312 510 397 510 c 0
 477 510 515 459 515 384 c 0
 515 343 504 290 495 254 c 2
 436 0 l 1
 362 0 l 1
 420 249 l 2
 428 281 439 335 439 369 c 0
 439 416 419 444 371 444 c 0
 304 444 217 332 217 332 c 1
 140 0 l 1xd8
403 587 m 1
 361 587 l 1
 276 738 l 1
 345 738 l 1
 396 649 l 1
 486 738 l 1
 561 738 l 1
 403 587 l 1
EndSplineSet
EndChar

StartChar: ncommaaccent
Encoding: 326 326 334
Width: 498
Flags: MW
HStem: 0 21G<66 140 66 66 362 362 362 436> 444 66<354.5 395> 480 20G<181 254 254 254>
VStem: 439 76<363.5 392.5>
LayerCount: 2
Fore
SplineSet
140 0 m 1xd0
 66 0 l 1
 181 500 l 1
 254 500 l 1xb0
 236 413 l 1
 236 413 312 510 397 510 c 0
 477 510 515 459 515 384 c 0
 515 343 504 290 495 254 c 2
 436 0 l 1
 362 0 l 1
 420 249 l 2
 428 281 439 335 439 369 c 0
 439 416 419 444 371 444 c 0
 304 444 217 332 217 332 c 1
 140 0 l 1xd0
125 -283 m 1
 212 -73 l 1
 282 -73 l 1
 186 -283 l 1
 125 -283 l 1
EndSplineSet
EndChar

StartChar: omacron
Encoding: 333 333 335
Width: 494
Flags: MW
HStem: -10 65<230 317 230 341.5> 445 65<289.5 376.5> 639 59<245 534 259 519>
VStem: 91 75<121.5 228 121.5 247> 441 75<266 372>
LayerCount: 2
Fore
SplineSet
343 510 m 0
 455 510 516 455 516 340 c 0
 516 157 421 -10 262 -10 c 0
 151 -10 91 39 91 154 c 0
 91 340 193 510 343 510 c 0
262 55 m 0
 372 55 441 191 441 341 c 0
 441 403 410 445 343 445 c 0
 236 445 166 303 166 153 c 0
 166 90 198 55 262 55 c 0
245 639 m 1
 259 698 l 1
 534 698 l 1
 519 639 l 1
 245 639 l 1
EndSplineSet
EndChar

StartChar: obreve
Encoding: 335 335 336
Width: 494
Flags: MW
HStem: -10 65<230 317 230 341.5> 445 65<289.5 376.5> 593 62<363.5 417.5 363.5 424>
VStem: 91 75<121.5 228 121.5 247> 260 69 441 75<266 372>
LayerCount: 2
Fore
SplineSet
343 510 m 0
 455 510 516 455 516 340 c 0
 516 157 421 -10 262 -10 c 0
 151 -10 91 39 91 154 c 0
 91 340 193 510 343 510 c 0
262 55 m 0
 372 55 441 191 441 341 c 0
 441 403 410 445 343 445 c 0
 236 445 166 303 166 153 c 0
 166 90 198 55 262 55 c 0
264 731 m 1
 329 731 l 1
 319 688 337 655 390 655 c 0
 445 655 475 687 488 731 c 1
 553 731 l 1
 529 648 476 593 372 593 c 0
 284 593 248 648 264 731 c 1
EndSplineSet
EndChar

StartChar: ohungarumlaut
Encoding: 337 337 337
Width: 494
Flags: MW
HStem: -10 65<230 317 230 341.5> 445 65<289.5 376.5> 699 20G<436 436 619 619>
VStem: 91 75<121.5 228 121.5 247> 441 75<266 372>
LayerCount: 2
Fore
SplineSet
343 510 m 0
 455 510 516 455 516 340 c 0
 516 157 421 -10 262 -10 c 0
 151 -10 91 39 91 154 c 0
 91 340 193 510 343 510 c 0
262 55 m 0
 372 55 441 191 441 341 c 0
 441 403 410 445 343 445 c 0
 236 445 166 303 166 153 c 0
 166 90 198 55 262 55 c 0
446 582 m 1
 407 623 l 1
 576 762 l 1
 619 719 l 1
 446 582 l 1
264 582 m 1
 225 623 l 1
 393 761 l 1
 436 719 l 1
 264 582 l 1
EndSplineSet
EndChar

StartChar: racute
Encoding: 341 341 338
Width: 316
Flags: MW
HStem: 0 21G<66 66 66 141> 426 74<238 238> 491 20G<419 419>
VStem: 66 364
LayerCount: 2
Fore
SplineSet
66 0 m 1xb0
 182 500 l 1
 256 500 l 1
 238 426 l 1xd0
 238 426 331 493 419 511 c 1
 399 434 l 1
 335 418 224 359 224 359 c 1
 141 0 l 1
 66 0 l 1xb0
202 596 m 1
 195 654 l 1
 423 748 l 1
 430 682 l 1
 202 596 l 1
EndSplineSet
EndChar

StartChar: rcommaaccent
Encoding: 343 343 339
Width: 316
Flags: MW
HStem: 0 21G<66 66 66 141> 426 74<238 238> 491 20G<419 419>
VStem: -29 448
LayerCount: 2
Fore
SplineSet
66 0 m 1xb0
 182 500 l 1
 256 500 l 1
 238 426 l 1xd0
 238 426 331 493 419 511 c 1
 399 434 l 1
 335 418 224 359 224 359 c 1
 141 0 l 1
 66 0 l 1xb0
58 -73 m 1
 -29 -283 l 1
 32 -283 l 1
 128 -73 l 1
 58 -73 l 1
EndSplineSet
EndChar

StartChar: rcaron
Encoding: 345 345 340
Width: 316
Flags: MW
HStem: 0 21G<66 66 66 141> 426 74<238 238> 491 20G<419 419> 587 151<189 316 189 274>
VStem: 66 408
LayerCount: 2
Fore
SplineSet
66 0 m 1xb8
 182 500 l 1
 256 500 l 1
 238 426 l 1xd8
 238 426 331 493 419 511 c 1
 399 434 l 1
 335 418 224 359 224 359 c 1
 141 0 l 1
 66 0 l 1xb8
316 587 m 1
 274 587 l 1
 189 738 l 1
 258 738 l 1
 309 649 l 1
 399 738 l 1
 474 738 l 1
 316 587 l 1
EndSplineSet
EndChar

StartChar: sacute
Encoding: 347 347 341
Width: 429
Flags: MW
HStem: -10 65<187.5 256 187.5 269.5> 445 65<276 343> 490 20G<264 360>
VStem: 123 75<331.5 374 331.5 384> 350 77<122.5 177>
LayerCount: 2
Fore
SplineSet
485 489 m 1xb8
 470 431 l 1
 470 431 375 445 311 445 c 0
 241 445 198 400 198 348 c 0
 198 315 217 304 290 285 c 0
 379 263 427 245 427 172 c 0
 427 49 330 -10 209 -10 c 0
 132 -10 51 13 51 13 c 1
 65 71 l 1
 65 71 157 55 218 55 c 0
 294 55 350 88 350 157 c 0
 350 197 323 205 255 221 c 0
 171 242 123 263 123 330 c 0
 123 438 208 510 320 510 c 0xd8
 400 510 485 489 485 489 c 1xb8
277 596 m 1
 270 654 l 1
 498 748 l 1
 505 682 l 1
 277 596 l 1
EndSplineSet
EndChar

StartChar: scircumflex
Encoding: 349 349 342
Width: 429
Flags: MW
HStem: -10 65<187.5 256 187.5 269.5> 445 65<276 343> 490 20G<264 360> 587 151<213 408 368 426 368 495>
VStem: 123 75<331.5 374 331.5 384> 350 77<122.5 177>
LayerCount: 2
Fore
SplineSet
485 489 m 1xac
 470 431 l 1
 470 431 375 445 311 445 c 0
 241 445 198 400 198 348 c 0
 198 315 217 304 290 285 c 0
 379 263 427 245 427 172 c 0
 427 49 330 -10 209 -10 c 0
 132 -10 51 13 51 13 c 1
 65 71 l 1
 65 71 157 55 218 55 c 0
 294 55 350 88 350 157 c 0
 350 197 323 205 255 221 c 0
 171 242 123 263 123 330 c 0
 123 438 208 510 320 510 c 0xdc
 400 510 485 489 485 489 c 1xac
213 587 m 1
 368 738 l 1
 408 738 l 1
 495 587 l 1
 426 587 l 1
 378 673 l 1
 289 587 l 1
 213 587 l 1
EndSplineSet
EndChar

StartChar: scedilla
Encoding: 351 351 343
Width: 429
Flags: MW
HStem: -211 55<172.5 199 172.5 219> -87 42<163 216> -9 21G<181 181> 445 65<276 343> 490 20G<264 360>
VStem: 123 75<331.5 374 331.5 384> 350 77<122.5 177>
LayerCount: 2
Fore
SplineSet
298 -124 m 0xf6
 285 -184 248 -211 190 -211 c 0
 148 -211 110 -204 110 -204 c 1
 123 -153 l 1
 123 -153 160 -156 185 -156 c 0
 213 -156 229 -146 236 -120 c 0
 243 -92 224 -87 202 -87 c 2
 163 -87 l 1
 181 -9 l 1
 113 -4 51 13 51 13 c 1
 65 71 l 1
 65 71 157 55 218 55 c 0
 294 55 350 88 350 157 c 0
 350 197 323 205 255 221 c 0
 171 242 123 263 123 330 c 0
 123 438 208 510 320 510 c 0xf6
 400 510 485 489 485 489 c 1xee
 470 431 l 1
 470 431 375 445 311 445 c 0
 241 445 198 400 198 348 c 0
 198 315 217 304 290 285 c 0
 379 263 427 245 427 172 c 0
 427 53 336 -6 220 -10 c 1
 211 -45 l 1
 216 -45 l 2
 271 -45 312 -63 298 -124 c 0xf6
EndSplineSet
Substitution2: "'locl' Localized Forms in Lateinisch lookup 0 subtable" scommaaccent
EndChar

StartChar: scommaaccent
Encoding: 537 537 344
Width: 428
Flags: MW
HStem: -73 128<172 255 186.5 242> -10 65<186.5 255 186.5 268.5> 445 65<275 342> 490 20G<263 359>
VStem: 122 75<331.5 374 331.5 384> 349 77<122.5 177>
LayerCount: 2
Fore
SplineSet
484 489 m 1x5c
 469 431 l 1
 469 431 374 445 310 445 c 0
 240 445 197 400 197 348 c 0
 197 315 216 304 289 285 c 0
 378 263 426 245 426 172 c 0
 426 49 329 -10 208 -10 c 0
 131 -10 50 13 50 13 c 1
 64 71 l 1
 64 71 156 55 217 55 c 0
 293 55 349 88 349 157 c 0
 349 197 322 205 254 221 c 0
 170 242 122 263 122 330 c 0
 122 438 207 510 319 510 c 0x6c
 399 510 484 489 484 489 c 1x5c
172 -73 m 1xac
 85 -283 l 1
 146 -283 l 1
 242 -73 l 1
 172 -73 l 1xac
EndSplineSet
EndChar

StartChar: tcaron
Encoding: 357 357 345
Width: 403
Flags: MW
HStem: -10 65<223 238.5> 435 65<138 187 121 203 277 401 138 261> 460 40
VStem: 113 78<87 101>
LayerCount: 2
Fore
SplineSet
569 692 m 1xd0
 514 460 l 1
 446 460 l 1xb0
 501 692 l 1
 569 692 l 1xd0
401 435 m 1xd0
 261 435 l 1
 203 184 l 2
 196 156 191 123 191 101 c 0
 191 73 205 55 241 55 c 0
 267 55 318 61 318 61 c 1
 313 4 l 1
 313 4 261 -10 216 -10 c 0
 150 -10 113 26 113 85 c 0
 113 117 121 156 129 188 c 2
 187 435 l 1
 121 435 l 1
 138 500 l 1
 203 500 l 1
 238 648 l 1
 313 648 l 1
 277 500 l 1
 417 500 l 1
 401 435 l 1xd0
EndSplineSet
EndChar

StartChar: tcommaaccent
Encoding: 539 539 346
Width: 318
Flags: MW
HStem: -73 128<141 254 141 254> -10 65<223 238.5> 435 65<138 187 121 203 277 401 138 261>
VStem: 113 78<87 101>
LayerCount: 2
Fore
SplineSet
401 435 m 1x70
 261 435 l 1
 203 184 l 2
 196 156 191 123 191 101 c 0
 191 73 205 55 241 55 c 0
 267 55 318 61 318 61 c 1
 313 4 l 1
 313 4 261 -10 216 -10 c 0
 150 -10 113 26 113 85 c 0
 113 117 121 156 129 188 c 2
 187 435 l 1
 121 435 l 1
 138 500 l 1
 203 500 l 1
 238 648 l 1
 313 648 l 1
 277 500 l 1
 417 500 l 1
 401 435 l 1x70
141 -73 m 1xb0
 54 -283 l 1
 115 -283 l 1
 211 -73 l 1
 141 -73 l 1xb0
EndSplineSet
EndChar

StartChar: tbar
Encoding: 359 359 347
Width: 322
Flags: MW
HStem: -10 65<226 241.5> 255 65<108 147 93 163 237 355 108 222> 435 65<141 190 124 206 280 404 141 264>
VStem: 116 78<87 101>
LayerCount: 2
Fore
SplineSet
404 435 m 1
 264 435 l 1
 237 320 l 1
 371 320 l 1
 355 255 l 1
 222 255 l 1
 206 184 l 2
 199 156 194 123 194 101 c 0
 194 73 208 55 244 55 c 0
 270 55 321 61 321 61 c 1
 316 4 l 1
 316 4 264 -10 219 -10 c 0
 153 -10 116 26 116 85 c 0
 116 117 124 156 132 188 c 2
 147 255 l 1
 93 255 l 1
 108 320 l 1
 163 320 l 1
 190 435 l 1
 124 435 l 1
 141 500 l 1
 206 500 l 1
 241 648 l 1
 316 648 l 1
 280 500 l 1
 420 500 l 1
 404 435 l 1
EndSplineSet
EndChar

StartChar: utilde
Encoding: 361 361 348
Width: 498
Flags: MW
HStem: -10 66<219 258.5> 0 21G<359 432 359 359> 480 20G<177 251 251 251 473 547 547 547> 614 66<454 471.5> 662 21G<313.5 339.5> 665 21G<547 547> 701 20G<542 542> 708 20G<322.5 362.5>
VStem: 98 76<107.5 136.5>
LayerCount: 2
Fore
SplineSet
542 721 m 1xb280
 547 665 l 1
 547 665 490 614 453 614 c 0xa580
 413 614 354 662 325 662 c 0
 302 662 245 619 245 619 c 1xa980
 242 675 l 1
 242 675 304 728 341 728 c 0xb180
 384 728 441 680 467 680 c 0
 487 680 542 721 542 721 c 1xb280
473 500 m 1
 547 500 l 1
 432 0 l 1
 359 0 l 1x6580
 377 87 l 1
 377 87 301 -10 216 -10 c 0
 137 -10 98 41 98 116 c 0
 98 157 109 210 118 246 c 2
 177 500 l 1
 251 500 l 1
 193 251 l 2
 185 219 174 165 174 131 c 0
 174 84 196 56 242 56 c 0
 309 56 396 168 396 168 c 1
 473 500 l 1
EndSplineSet
EndChar

StartChar: umacron
Encoding: 363 363 349
Width: 498
Flags: MW
HStem: -10 66<219 258.5> 0 21G<359 432 359 359> 480 20G<177 251 251 251 473 547 547 547> 639 59<244 533 258 518>
VStem: 98 76<107.5 136.5>
LayerCount: 2
Fore
SplineSet
473 500 m 1xb8
 547 500 l 1
 432 0 l 1
 359 0 l 1x78
 377 87 l 1
 377 87 301 -10 216 -10 c 0
 137 -10 98 41 98 116 c 0
 98 157 109 210 118 246 c 2
 177 500 l 1
 251 500 l 1
 193 251 l 2
 185 219 174 165 174 131 c 0
 174 84 196 56 242 56 c 0
 309 56 396 168 396 168 c 1
 473 500 l 1xb8
244 639 m 1
 258 698 l 1
 533 698 l 1
 518 639 l 1
 244 639 l 1
EndSplineSet
EndChar

StartChar: ubreve
Encoding: 365 365 350
Width: 498
Flags: MW
HStem: -10 66<219 258.5> 0 21G<359 432 359 359> 480 20G<177 251 251 251 473 547 547 547> 593 62<362.5 416.5 362.5 423>
VStem: 98 76<107.5 136.5> 259 69
LayerCount: 2
Fore
SplineSet
473 500 m 1xbc
 547 500 l 1
 432 0 l 1
 359 0 l 1x7c
 377 87 l 1
 377 87 301 -10 216 -10 c 0
 137 -10 98 41 98 116 c 0
 98 157 109 210 118 246 c 2
 177 500 l 1
 251 500 l 1
 193 251 l 2
 185 219 174 165 174 131 c 0
 174 84 196 56 242 56 c 0
 309 56 396 168 396 168 c 1
 473 500 l 1xbc
263 731 m 1
 328 731 l 1
 318 688 336 655 389 655 c 0
 444 655 474 687 487 731 c 1
 552 731 l 1
 528 648 475 593 371 593 c 0
 283 593 247 648 263 731 c 1
EndSplineSet
EndChar

StartChar: uring
Encoding: 367 367 351
Width: 498
Flags: MW
HStem: -10 66<219 258.5> 0 21G<359 432 359 359> 480 20G<177 251 251 251 473 547 547 547> 544 49<363.5 390.5 363.5 394> 689 51<387 414>
VStem: 98 76<107.5 136.5> 294 48 435 46
LayerCount: 2
Fore
SplineSet
297 643 m 0xbf
 308 695 352 740 413 740 c 0
 464 740 487 706 481 655 c 0
 475 589 424 544 364 544 c 0
 304 544 285 587 297 643 c 0xbf
342 643 m 0
 336 619 350 593 377 593 c 0
 404 593 428 615 435 642 c 0
 441 666 427 689 401 689 c 0
 373 689 349 669 342 643 c 0
473 500 m 1
 547 500 l 1
 432 0 l 1
 359 0 l 1x7f
 377 87 l 1
 377 87 301 -10 216 -10 c 0
 137 -10 98 41 98 116 c 0
 98 157 109 210 118 246 c 2
 177 500 l 1
 251 500 l 1
 193 251 l 2
 185 219 174 165 174 131 c 0
 174 84 196 56 242 56 c 0
 309 56 396 168 396 168 c 1
 473 500 l 1
EndSplineSet
EndChar

StartChar: uhungarumlaut
Encoding: 369 369 352
Width: 498
Flags: MW
HStem: -10 66<219 258.5> 0 21G<359 432 359 359> 480 20G<177 251 251 251 473 547 547 547> 699 20G<458 458 641 641>
VStem: 98 76<107.5 136.5>
LayerCount: 2
Fore
SplineSet
468 582 m 1xb8
 429 623 l 1
 598 762 l 1
 641 719 l 1
 468 582 l 1xb8
286 582 m 1
 247 623 l 1
 415 761 l 1
 458 719 l 1
 286 582 l 1
473 500 m 1
 547 500 l 1
 432 0 l 1
 359 0 l 1x78
 377 87 l 1
 377 87 301 -10 216 -10 c 0
 137 -10 98 41 98 116 c 0
 98 157 109 210 118 246 c 2
 177 500 l 1
 251 500 l 1
 193 251 l 2
 185 219 174 165 174 131 c 0
 174 84 196 56 242 56 c 0
 309 56 396 168 396 168 c 1
 473 500 l 1
EndSplineSet
EndChar

StartChar: uogonek
Encoding: 371 371 353
Width: 498
Flags: MW
HStem: -204 67<304 370> -10 66<219 258.5> 480 20G<177 251 251 251 473 547 547 547>
VStem: 98 76<107.5 136.5> 257 82<-123.5 -115.5>
LayerCount: 2
Fore
SplineSet
473 500 m 1
 547 500 l 1
 432 0 l 1
 401 -22 339 -81 339 -117 c 0
 339 -130 347 -137 363 -137 c 0
 377 -137 411 -132 411 -132 c 1
 404 -195 l 1
 404 -195 359 -204 327 -204 c 0
 281 -204 257 -181 257 -141 c 0
 257 -90 323 -25 360 5 c 1
 377 87 l 1
 377 87 301 -10 216 -10 c 0
 137 -10 98 41 98 116 c 0
 98 157 109 210 118 246 c 2
 177 500 l 1
 251 500 l 1
 193 251 l 2
 185 219 174 165 174 131 c 0
 174 84 196 56 242 56 c 0
 309 56 396 168 396 168 c 1
 473 500 l 1
EndSplineSet
EndChar

StartChar: wgrave
Encoding: 7809 7809 354
Width: 731
Flags: MW
HStem: 0 65<210 229 210 267 526 545> 480 20G<144 219 219 219 741 817 817 817>
VStem: 140.5 74 455.5 68.5
LayerCount: 2
Fore
SplineSet
386 741 m 1
 571 648 l 1
 538 596 l 1
 350 682 l 1
 386 741 l 1
144 500 m 1
 219 500 l 1
 210 65 l 1
 229 65 l 1
 434 490 l 1
 522 490 l 1
 526 65 l 1
 545 65 l 1
 741 500 l 1
 817 500 l 1
 590 0 l 1
 457 0 l 1
 454 393 l 1
 267 0 l 1
 137 0 l 1
 144 500 l 1
EndSplineSet
EndChar

StartChar: wacute
Encoding: 7811 7811 355
Width: 731
Flags: MW
HStem: 0 65<210 229 210 267 526 545> 480 20G<144 219 219 219 741 817 817 817>
VStem: 140.5 74 455.5 68.5
LayerCount: 2
Fore
SplineSet
144 500 m 1
 219 500 l 1
 210 65 l 1
 229 65 l 1
 434 490 l 1
 522 490 l 1
 526 65 l 1
 545 65 l 1
 741 500 l 1
 817 500 l 1
 590 0 l 1
 457 0 l 1
 454 393 l 1
 267 0 l 1
 137 0 l 1
 144 500 l 1
406 596 m 1
 399 654 l 1
 627 748 l 1
 634 682 l 1
 406 596 l 1
EndSplineSet
EndChar

StartChar: wcircumflex
Encoding: 373 373 356
Width: 731
Flags: MW
HStem: 0 65<210 229 210 267 526 545> 480 20G<144 219 219 219 741 817 817 817> 587 151<346 541 501 559 501 628>
VStem: 140.5 74 455.5 68.5
LayerCount: 2
Fore
SplineSet
144 500 m 1
 219 500 l 1
 210 65 l 1
 229 65 l 1
 434 490 l 1
 522 490 l 1
 526 65 l 1
 545 65 l 1
 741 500 l 1
 817 500 l 1
 590 0 l 1
 457 0 l 1
 454 393 l 1
 267 0 l 1
 137 0 l 1
 144 500 l 1
346 587 m 1
 501 738 l 1
 541 738 l 1
 628 587 l 1
 559 587 l 1
 511 673 l 1
 422 587 l 1
 346 587 l 1
EndSplineSet
EndChar

StartChar: wdieresis
Encoding: 7813 7813 357
Width: 731
Flags: MW
HStem: 0 65<210 229 210 267 526 545> 480 20G<144 219 219 219 741 817 817 817> 620 93<373 456 394 434 576 616>
VStem: 140.5 74 455.5 68.5
LayerCount: 2
Fore
SplineSet
144 500 m 1
 219 500 l 1
 210 65 l 1
 229 65 l 1
 434 490 l 1
 522 490 l 1
 526 65 l 1
 545 65 l 1
 741 500 l 1
 817 500 l 1
 590 0 l 1
 457 0 l 1
 454 393 l 1
 267 0 l 1
 137 0 l 1
 144 500 l 1
373 620 m 1
 394 713 l 1
 456 713 l 1
 434 620 l 1
 373 620 l 1
556 620 m 1
 576 713 l 1
 638 713 l 1
 616 620 l 1
 556 620 l 1
EndSplineSet
EndChar

